<?xml version="1.0" encoding="UTF-8"?><svg xmlns="http://www.w3.org/2000/svg" viewBox="0 0 384.19 359.88"><defs><style>.d,.e,.f,.g,.h,.i{fill:#22a1d4;}.j,.k,.l,.m,.n,.o,.p{fill:#fff;}.q{fill:#4d575c;}.k,.f,.r{opacity:.3;}.s{fill:#eeefef;}.t{fill:#f6f7f7;}.u{fill:#e9eaeb;}.l,.g{opacity:.5;}.m{opacity:.8;}.e,.o,.v{opacity:.2;}.n{opacity:.7;}.v{fill:#263238;}.p,.i{opacity:.6;}.h{opacity:.4;}.w{fill:#f2f3f3;}</style></defs><g id="a"/><g id="b"><g id="c"><g><g><g><polygon class="s" points="55.3 100.61 56.92 103.88 60.53 104.41 57.92 106.96 58.54 110.56 55.3 108.86 52.07 110.56 52.69 106.96 50.07 104.41 53.69 103.88 55.3 100.61"/><polygon class="t" points="378.95 254.84 380.57 258.12 384.19 258.65 381.57 261.2 382.19 264.8 378.95 263.1 375.72 264.8 376.34 261.2 373.72 258.65 377.34 258.12 378.95 254.84"/><polygon class="t" points="314.85 349.93 316.46 353.2 320.08 353.73 317.46 356.28 318.08 359.88 314.85 358.18 311.61 359.88 312.23 356.28 309.61 353.73 313.23 353.2 314.85 349.93"/><path class="s" d="M168.19,42.51l.6,1.22,1.34,.19c.34,.05,.47,.46,.23,.7l-.97,.95,.23,1.34c.06,.33-.29,.59-.59,.43l-1.2-.63-1.2,.63c-.3,.16-.65-.1-.59-.43l.23-1.34-.97-.95c-.24-.24-.11-.65,.23-.7l1.34-.19,.6-1.22c.15-.3,.58-.3,.73,0Z"/><path class="t" d="M3.02,334.37l.6,1.22,1.34,.19c.34,.05,.47,.46,.23,.7l-.97,.95,.23,1.34c.06,.33-.29,.59-.59,.43l-1.2-.63-1.2,.63c-.3,.16-.65-.1-.59-.43l.23-1.34-.97-.95c-.24-.24-.11-.65,.23-.7l1.34-.19,.6-1.22c.15-.3,.58-.3,.73,0Z"/><path class="s" d="M30,29.66l.6,1.22,1.34,.19c.33,.05,.47,.46,.23,.7l-.97,.95,.23,1.34c.06,.33-.29,.59-.59,.43l-1.2-.63-1.2,.63c-.3,.16-.65-.1-.59-.43l.23-1.34-.97-.95c-.24-.24-.11-.65,.23-.7l1.34-.19,.6-1.22c.15-.3,.58-.3,.73,0Z"/><path class="s" d="M28.38,270.68c0,.73-.59,1.33-1.33,1.33s-1.33-.59-1.33-1.33,.59-1.33,1.33-1.33,1.33,.59,1.33,1.33Z"/><path class="s" d="M217.92,104.25c0,.73-.59,1.33-1.33,1.33s-1.33-.59-1.33-1.33,.59-1.33,1.33-1.33,1.33,.59,1.33,1.33Z"/><path class="t" d="M148.96,30.76c0,.73-.59,1.33-1.33,1.33s-1.33-.59-1.33-1.33,.59-1.33,1.33-1.33,1.33,.59,1.33,1.33Z"/></g><circle class="w" cx="149.39" cy="347.74" r="7.35" transform="translate(-75.9 43.62) rotate(-13.28)"/><path class="u" d="M146.85,343.45c-1.56,0-3.01,.5-4.19,1.36-.39,.9-.61,1.89-.61,2.93,0,4.06,3.29,7.34,7.35,7.34,1.37,0,2.66-.38,3.76-1.04t0-.01c.55-1.02,.86-2.18,.86-3.42,0-3.95-3.21-7.16-7.17-7.16Z"/></g><g><g class="r"><path class="d" d="M143.2,77.98c0,1.03-.84,1.87-1.87,1.87s-1.87-.84-1.87-1.87,.84-1.87,1.87-1.87,1.87,.84,1.87,1.87Z"/><circle class="d" cx="15.21" cy="148.49" r="1.32"/><circle class="d" cx="233.3" cy="340.69" r="1.89"/><circle class="d" cx="278.75" cy="264.36" r="1.32"/><path class="d" d="M366.42,27.98c0,.73-.59,1.32-1.32,1.32s-1.32-.59-1.32-1.32,.59-1.32,1.32-1.32,1.32,.59,1.32,1.32Z"/><path class="d" d="M115,1.32c0,.73-.59,1.32-1.32,1.32s-1.32-.59-1.32-1.32,.59-1.32,1.32-1.32,1.32,.59,1.32,1.32Z"/><circle class="d" cx="219.94" cy="69.3" r="1.32"/></g><g><g><circle class="d" cx="83.48" cy="48.72" r="21.91"/><circle class="n" cx="83.48" cy="48.72" r="21.91"/></g><path class="e" d="M75.93,32.19c-3.07,0-5.99,.63-8.64,1.77-3.55,3.89-5.72,9.08-5.72,14.76,0,12.1,9.81,21.9,21.9,21.9,3.08,0,6.02-.63,8.68-1.78h0c3.53-3.9,5.68-9.07,5.68-14.74,0-12.11-9.81-21.91-21.91-21.91Z"/><path class="e" d="M73.75,37.98c0,1.11-.9,2-2,2s-2-.9-2-2,.9-2,2-2,2,.9,2,2Z"/><path class="e" d="M97.31,35.98c0,1.11-.9,2-2,2s-2-.9-2-2,.9-2,2-2,2,.9,2,2Z"/><path class="e" d="M93.31,50.26c0,1.81-1.47,3.28-3.28,3.28s-3.28-1.47-3.28-3.28,1.47-3.28,3.28-3.28,3.28,1.47,3.28,3.28Z"/><path class="e" d="M82.89,59.61c0,2.42-1.96,4.38-4.38,4.38s-4.38-1.96-4.38-4.38,1.96-4.38,4.38-4.38,4.38,1.96,4.38,4.38Z"/></g><g><g><circle class="d" cx="324.45" cy="308.61" r="19.23" transform="translate(-50.45 553.47) rotate(-76.72)"/><circle class="k" cx="324.45" cy="308.61" r="19.23" transform="translate(-50.45 553.47) rotate(-76.72)"/></g><path class="h" d="M336.58,293.7c-1.75-.53-3.61-.81-5.54-.81-10.62,0-19.23,8.61-19.23,19.23,0,6.02,2.76,11.38,7.09,14.91,1.75,.53,3.61,.81,5.54,.81,10.62,0,19.23-8.61,19.23-19.23,0-6.02-2.76-11.39-7.09-14.91Z"/><path class="d" d="M306.08,314.31c-20.53,9.66-5.22,17.11,23.71,6.71,26.78-9.63,36.97-21.77,13.05-18.01,1.23,5.11-32.31,18.18-36.76,11.29Z"/></g></g><g><path class="v" d="M336.35,120.19c-26.89,18.17-61.7,42.13-71.31,99.81h-2.05c9.35-56.98,42.89-81.57,69.79-99.81h3.57Z"/><g><path class="d" d="M197.27,300.63c-16.97,0-33.81-7.66-41.99-20.19-5.05-7.74-10.92-23.95,6.56-45.58l1.56,1.26c-12.36,15.3-14.65,30.65-6.44,43.23,9.99,15.31,33.6,23.01,53.73,17.53,20.63-5.61,33.15-23.56,34.36-49.23,4.13-87.81,50.78-114.85,84.85-134.6,21.16-12.27,36.45-21.14,33.09-39.84-.47-2.59-1.5-4.39-3.16-5.48-4.35-2.87-12.85-.89-22.69,1.41-19.31,4.5-45.75,10.66-61.5-16.13l1.72-1.01c15.01,25.52,39.58,19.8,59.32,15.2,10.29-2.4,19.18-4.47,24.25-1.13,2.14,1.41,3.46,3.64,4.03,6.8,3.61,20.08-13.01,29.72-34.06,41.92-33.66,19.52-79.77,46.25-83.85,132.97-1.25,26.6-14.31,45.21-35.83,51.06-4.54,1.23-9.25,1.82-13.94,1.82Z"/><path class="o" d="M197.27,300.63c-16.97,0-33.81-7.66-41.99-20.19-5.05-7.74-10.92-23.95,6.56-45.58l1.56,1.26c-12.36,15.3-14.65,30.65-6.44,43.23,9.99,15.31,33.6,23.01,53.73,17.53,20.63-5.61,33.15-23.56,34.36-49.23,4.13-87.81,50.78-114.85,84.85-134.6,21.16-12.27,36.45-21.14,33.09-39.84-.47-2.59-1.5-4.39-3.16-5.48-4.35-2.87-12.85-.89-22.69,1.41-19.31,4.5-45.75,10.66-61.5-16.13l1.72-1.01c15.01,25.52,39.58,19.8,59.32,15.2,10.29-2.4,19.18-4.47,24.25-1.13,2.14,1.41,3.46,3.64,4.03,6.8,3.61,20.08-13.01,29.72-34.06,41.92-33.66,19.52-79.77,46.25-83.85,132.97-1.25,26.6-14.31,45.21-35.83,51.06-4.54,1.23-9.25,1.82-13.94,1.82Z"/></g><g><g><path class="d" d="M255.01,29.31c6.86-.12,13.58,2.13,13.58,2.13,0,0,10.96,18.77,12.3,23.07-.46,4.24-7.62,11.19-7.62,11.19l-18.27-36.39Z"/><path class="k" d="M255.01,29.31c6.86-.12,13.58,2.13,13.58,2.13,0,0,10.96,18.77,12.3,23.07-.46,4.24-7.62,11.19-7.62,11.19l-18.27-36.39Z"/></g><g><g><path class="d" d="M287.59,120.49c-4.14-5.25-8.2-10.59-11.56-16.38-.84-1.45-1.64-2.92-2.39-4.42-.43-.85-.84-1.71-1.24-2.57-.35-.75-1.13-1.86-1.2-2.68-1.2-12.67,3.14-22-1.03-32.17l-16.47,6.44s1.4,18.12,4.6,28.96c1.98,6.73,6.47,12.55,10.8,17.94,1.35,1.69,2.66,3.41,4.01,5.1,1.28,1.6,2.71,3.06,3.99,4.65,1.95,2.41,2.59,4.72,1.11,7.56-.08,.15-.16,.3-.25,.45-.42,.74,1.55,1.58,2.78,.02,2.04-2.58,1.72-2.42,3.46-4.62,1.06-1.34,2.27-2.78,3.32-4.03,1.02-1.22,1.05-2.99,.06-4.25Z"/><path class="n" d="M287.59,120.49c-4.14-5.25-8.2-10.59-11.56-16.38-.84-1.45-1.64-2.92-2.39-4.42-.43-.85-.84-1.71-1.24-2.57-.35-.75-1.13-1.86-1.2-2.68-1.2-12.67,3.14-22-1.03-32.17l-16.47,6.44s1.4,18.12,4.6,28.96c1.98,6.73,6.47,12.55,10.8,17.94,1.35,1.69,2.66,3.41,4.01,5.1,1.28,1.6,2.71,3.06,3.99,4.65,1.95,2.41,2.59,4.72,1.11,7.56-.08,.15-.16,.3-.25,.45-.42,.74,1.55,1.58,2.78,.02,2.04-2.58,1.72-2.42,3.46-4.62,1.06-1.34,2.27-2.78,3.32-4.03,1.02-1.22,1.05-2.99,.06-4.25Z"/></g><path class="f" d="M283.56,115.28c-2.21,2.67-6.69,6.12-8.66,7.52,.43,.48,.86,.97,1.28,1.46,4.07-2.66,7.28-6.1,8.5-7.5-.38-.49-.75-.98-1.12-1.48Z"/><path class="f" d="M287.58,120.5c-.04-.05-.08-.09-.12-.15-.69,.72-1.18,1.88-1.26,3.17-.07,.89,.08,1.71,.38,2.35,.33-.39,.64-.77,.95-1.13,1.03-1.22,1.04-2.99,.05-4.24Z"/></g><g><g><path class="d" d="M251.09,41.31c-1.72,2.51-3.75,4.98-6.38,7.19-1.3,1.11-2.79,2.12-4.42,2.98-.82,.42-1.69,.78-2.58,1.08l-.67,.22-.22,.07c-.16,.05-.32,.09-.48,.13-.3,.07-.61,.11-.87,.14-1.08,.08-1.87-.07-2.51-.23-1.28-.35-2.13-.81-2.94-1.26-.8-.46-1.49-.93-2.15-1.41-1.3-.99-2.48-1.99-3.58-3.05-2.21-2.11-4.17-4.3-5.99-6.74-.83-1.11-.6-2.68,.51-3.51,.86-.64,1.99-.65,2.84-.11l.08,.05c2.36,1.5,4.74,3.08,7.06,4.49,1.17,.69,2.32,1.39,3.45,1.93,.55,.28,1.1,.54,1.59,.72,.48,.19,.95,.29,1.08,.27,.05,0,0-.07-.38-.06-.09,0-.22,.02-.34,.04-.07,.01-.15,.03-.22,.06-.07,.02,.03-.02,.03-.02l.33-.17c.44-.22,.86-.5,1.29-.79,.86-.58,1.67-1.31,2.5-2.12,1.65-1.63,3.23-3.67,4.9-5.79l.02-.03c1.71-2.17,4.86-2.54,7.03-.82,2.08,1.64,2.49,4.61,1.02,6.76Z"/><path class="n" d="M251.09,41.31c-1.72,2.51-3.75,4.98-6.38,7.19-1.3,1.11-2.79,2.12-4.42,2.98-.82,.42-1.69,.78-2.58,1.08l-.67,.22-.22,.07c-.16,.05-.32,.09-.48,.13-.3,.07-.61,.11-.87,.14-1.08,.08-1.87-.07-2.51-.23-1.28-.35-2.13-.81-2.94-1.26-.8-.46-1.49-.93-2.15-1.41-1.3-.99-2.48-1.99-3.58-3.05-2.21-2.11-4.17-4.3-5.99-6.74-.83-1.11-.6-2.68,.51-3.51,.86-.64,1.99-.65,2.84-.11l.08,.05c2.36,1.5,4.74,3.08,7.06,4.49,1.17,.69,2.32,1.39,3.45,1.93,.55,.28,1.1,.54,1.59,.72,.48,.19,.95,.29,1.08,.27,.05,0,0-.07-.38-.06-.09,0-.22,.02-.34,.04-.07,.01-.15,.03-.22,.06-.07,.02,.03-.02,.03-.02l.33-.17c.44-.22,.86-.5,1.29-.79,.86-.58,1.67-1.31,2.5-2.12,1.65-1.63,3.23-3.67,4.9-5.79l.02-.03c1.71-2.17,4.86-2.54,7.03-.82,2.08,1.64,2.49,4.61,1.02,6.76Z"/></g><g><path class="d" d="M214.53,34.78l1.17,1.97s.9,2.62,2.69,3.1l4.85-1.57-.24-.41h0c-.62-.95-.55-2.77-.34-4.29,.22-1.52-.57-1.57-1.15-1.2-.34,.22-.57,.91-.85,1.66-.24-.33-.49-.65-.78-.93l-1.48-1.48c-.64-.64-1.67-.67-2.34-.07l-1.2,1.07c-.61,.54-.75,1.45-.33,2.15Z"/><path class="n" d="M214.53,34.78l1.17,1.97s.9,2.62,2.69,3.1l4.85-1.57-.24-.41h0c-.62-.95-.55-2.77-.34-4.29,.22-1.52-.57-1.57-1.15-1.2-.34,.22-.57,.91-.85,1.66-.24-.33-.49-.65-.78-.93l-1.48-1.48c-.64-.64-1.67-.67-2.34-.07l-1.2,1.07c-.61,.54-.75,1.45-.33,2.15Z"/></g></g><g><path class="d" d="M259.92,27.58c-4.65,1.13-11.04,3.78-15.35,6.47-1.53,.95-2.29,2.76-1.93,4.52,1.92,9.44,6.31,22.08,11.05,30.13l22.11-9.15c.15-3.9-5.22-16.52-10.68-28.72-.98-2.19-2.86-3.82-5.2-3.26Z"/><path class="m" d="M259.92,27.58c-4.65,1.13-11.04,3.78-15.35,6.47-1.53,.95-2.29,2.76-1.93,4.52,1.92,9.44,6.31,22.08,11.05,30.13l22.11-9.15c.15-3.9-5.22-16.52-10.68-28.72-.98-2.19-2.86-3.82-5.2-3.26Z"/></g><path class="f" d="M268.54,38.57l-4.39-1.47c.98,2.57,4.53,5.82,7.03,7.73-.82-2.01-1.71-4.1-2.64-6.26Z"/><g><path class="d" d="M258.47,17.68c-1.82-3.48-5.77-5.23-10.52-4.84-4,.33-7.54,4.42-7.12,6.62,.42,2.21,3.78,3.14,4.39,3.91l-2.77,2.01c-1.38,1-1.65,2.95-.6,4.29,1.17,1.48,2.7,3.03,3.6,4.12,7.66-.2,13.33-3.12,15.37-5.94-.73-3.58-.54-6.71-2.36-10.18Z"/><path class="m" d="M258.47,17.68c-1.82-3.48-5.77-5.23-10.52-4.84-4,.33-7.54,4.42-7.12,6.62,.42,2.21,3.78,3.14,4.39,3.91l-2.77,2.01c-1.38,1-1.65,2.95-.6,4.29,1.17,1.48,2.7,3.03,3.6,4.12,7.66-.2,13.33-3.12,15.37-5.94-.73-3.58-.54-6.71-2.36-10.18Z"/></g><path class="q" d="M254.71,19.84c1.52,3.9-.4,8.29-4.3,9.81-3.9,1.52-8.29-.4-9.81-4.3-1.52-3.9,.4-8.29,4.3-9.81,3.9-1.52,8.29,.4,9.81,4.3Z"/><g><g><path class="d" d="M319.64,109.96c-.11-3.29-.25-2.96-.35-5.76-.06-1.7-.07-3.59-.08-5.22-.01-1.59-1.14-2.96-2.7-3.28-1.33-.27-2.65-.52-3.98-.81-1.73-.37-3.43-.76-5.13-1.26-1.31-.38-2.62-.8-3.9-1.27-1.38-.5-2.74-1.04-4.09-1.62-1.58-.68-3.13-1.4-4.68-2.14-1.73-.83-3.44-1.68-5.14-2.55-6.58-10.9-6.72-18.07-13.79-26.5l-15.16,6.86s11.14,19.76,18.72,28.14c4.37,4.82,11.22,7,17.33,8.57,4.41,1.14,8.88,2.01,13.35,2.83,1.74,.32,3.63,.44,5.13,1.48,1.18,.82,1.79,2.1,2.14,3.45,.07,.28,.13,.56,.18,.84,.16,.84,2.2,.21,2.13-1.78Z"/><path class="m" d="M319.64,109.96c-.11-3.29-.25-2.96-.35-5.76-.06-1.7-.07-3.59-.08-5.22-.01-1.59-1.14-2.96-2.7-3.28-1.33-.27-2.65-.52-3.98-.81-1.73-.37-3.43-.76-5.13-1.26-1.31-.38-2.62-.8-3.9-1.27-1.38-.5-2.74-1.04-4.09-1.62-1.58-.68-3.13-1.4-4.68-2.14-1.73-.83-3.44-1.68-5.14-2.55-6.58-10.9-6.72-18.07-13.79-26.5l-15.16,6.86s11.14,19.76,18.72,28.14c4.37,4.82,11.22,7,17.33,8.57,4.41,1.14,8.88,2.01,13.35,2.83,1.74,.32,3.63,.44,5.13,1.48,1.18,.82,1.79,2.1,2.14,3.45,.07,.28,.13,.56,.18,.84,.16,.84,2.2,.21,2.13-1.78Z"/></g><path class="f" d="M311.95,94.76c-.6-.13-1.2-.26-1.81-.41,.05,3.45-1.57,9.42-2.17,11.22,.63,.12,1.27,.24,1.9,.36,1.76-4.75,2.03-9.77,2.07-11.18Z"/><path class="f" d="M319.21,98.97c-.01-1.6-1.13-2.96-2.69-3.28-.31-.06-.64-.13-.95-.19,.07,.94,.65,2.03,1.63,2.9,.64,.58,1.37,.96,2.03,1.14,0-.2,0-.39-.01-.57Z"/></g><path class="j" d="M253.29,19.9c.4,1.52-1.29,3.11-2.65,1.8-1.1-1.06-2.76-2.85-4.12-3.69-1.39-.87,.46-2.39,2.65-1.8,2.04,.55,3.71,2.18,4.12,3.69Z"/><g><path class="d" d="M253.41,68.22c-.7,.26,.58,1.46,.58,1.46,0,0,13.97-4.79,22.49-9.72,.07-1.03-.68-1.58-.68-1.58,0,0-10.37,5.4-22.4,9.84Z"/><path class="l" d="M253.41,68.22c-.7,.26,.58,1.46,.58,1.46,0,0,13.97-4.79,22.49-9.72,.07-1.03-.68-1.58-.68-1.58,0,0-10.37,5.4-22.4,9.84Z"/></g><g><g><path class="d" d="M263.71,26.92c2.76,1.39,5.35,2.87,7.95,4.5,1.29,.81,2.58,1.65,3.84,2.55,1.28,.88,2.53,1.81,3.8,2.86l.47,.39,.59,.53c.42,.37,.73,.71,1.04,1.05,.32,.35,.59,.69,.85,1.03,.27,.34,.53,.68,.77,1.01,.99,1.33,1.8,2.68,2.59,4.02,1.54,2.72,2.87,5.43,3.97,8.35,.49,1.3-.17,2.75-1.47,3.24-.98,.37-2.04,.09-2.72-.63l-.05-.05c-2.01-2.13-3.94-4.37-5.88-6.46-1.9-2.08-3.91-4.21-5.54-5.14-2.27-1.42-4.8-2.82-7.31-4.21l-7.56-4.2h-.02c-2.42-1.35-3.29-4.39-1.95-6.81,1.31-2.35,4.24-3.24,6.63-2.04Z"/><path class="m" d="M263.71,26.92c2.76,1.39,5.35,2.87,7.95,4.5,1.29,.81,2.58,1.65,3.84,2.55,1.28,.88,2.53,1.81,3.8,2.86l.47,.39,.59,.53c.42,.37,.73,.71,1.04,1.05,.32,.35,.59,.69,.85,1.03,.27,.34,.53,.68,.77,1.01,.99,1.33,1.8,2.68,2.59,4.02,1.54,2.72,2.87,5.43,3.97,8.35,.49,1.3-.17,2.75-1.47,3.24-.98,.37-2.04,.09-2.72-.63l-.05-.05c-2.01-2.13-3.94-4.37-5.88-6.46-1.9-2.08-3.91-4.21-5.54-5.14-2.27-1.42-4.8-2.82-7.31-4.21l-7.56-4.2h-.02c-2.42-1.35-3.29-4.39-1.95-6.81,1.31-2.35,4.24-3.24,6.63-2.04Z"/></g><g><path class="d" d="M291.98,58.1l-.85-2.13s-.47-2.72-2.17-3.48l-5.04,.79,.18,.44h0c.47,1.03,.11,2.82-.34,4.29-.45,1.47,.32,1.64,.95,1.36,.37-.16,.71-.81,1.1-1.51,.18,.36,.39,.72,.63,1.05l1.23,1.69c.53,.73,1.54,.92,2.3,.43l1.35-.87c.69-.44,.97-1.31,.67-2.07Z"/><path class="m" d="M291.98,58.1l-.85-2.13s-.47-2.72-2.17-3.48l-5.04,.79,.18,.44h0c.47,1.03,.11,2.82-.34,4.29-.45,1.47,.32,1.64,.95,1.36,.37-.16,.71-.81,1.1-1.51,.18,.36,.39,.72,.63,1.05l1.23,1.69c.53,.73,1.54,.92,2.3,.43l1.35-.87c.69-.44,.97-1.31,.67-2.07Z"/></g></g><g><g><path class="f" d="M259.48,38.42l-1.22,.1-7.49,18.08c.44,.03,.84,0,1.22-.1,0,0,9.76-3.64,12.71-4.97-1.99-4.12-5.23-13.11-5.23-13.11Z"/><path class="j" d="M245.82,43.16c.42,3.26,2.86,10.18,4.96,13.44,3.66-1.26,9.76-3.64,12.71-4.97-1.99-4.12-4.08-9.8-5.23-13.11-3.15,.21-10.01,2.8-12.45,4.65Z"/></g><path class="f" d="M253.25,47.07c-.41,1.36-1.85,2.14-3.21,1.73s-2.14-1.85-1.73-3.21c.41-1.36,1.85-2.14,3.21-1.73,1.36,.41,2.14,1.85,1.73,3.21Z"/><path class="i" d="M255.16,43.63c-.13,.45-.6,.7-1.05,.57-.45-.13-.7-.6-.57-1.05,.13-.45,.6-.7,1.05-.57,.45,.13,.7,.6,.57,1.05Z"/><path class="i" d="M257.39,42.76c-.13,.45-.6,.7-1.05,.57-.45-.13-.7-.6-.57-1.05,.13-.45,.61-.7,1.05-.57,.45,.13,.7,.6,.57,1.05Z"/><polygon class="g" points="260.54 50.55 251.29 54.2 250.73 52.38 259.98 48.73 260.54 50.55"/></g></g></g><g><path class="v" d="M209.51,189.53c-.2,7.54-.76,13.33-1.68,17.35-1.18,5.14-3.01,8.9-5.5,11.28-2.48,2.38-5.42,3.57-8.81,3.57-5.14,0-9.07-2.8-11.77-8.41-.44-.91-.84-1.95-1.21-3.11-5.71,4.91-11.03,10.27-15.92,16.03l-5.31,6.26c2.87,2.91,6.13,5.3,9.77,7.19,6.23,3.22,14.4,4.84,24.52,4.84,1.78,0,3.5-.05,5.17-.15,6.12-9.06,11.19-18.8,15.1-29.02l14.85-38.72-19.21,12.89Z"/><g><path class="q" d="M75.64,242.32c5.6,5.6,17.5,17.5,17.5,17.5l49.01-46.17c-16.87-6.41-49.74,11.9-66.51,28.67Z"/><path class="q" d="M136.67,303.35c-5.6-5.6-17.5-17.5-17.5-17.5l46.17-49.01c6.41,16.87-11.9,49.74-28.67,66.51Z"/><g><path class="d" d="M203.65,193.06l19.09-36.81-36.81,19.09c-11.83,6.13-22.74,13.88-32.44,23.01l-62.75,59.07,30.83,30.83,59.07-62.75c9.13-9.7,16.87-20.62,23.01-32.44Z"/><path class="p" d="M203.65,193.06l19.09-36.81-36.81,19.09c-11.83,6.13-22.74,13.88-32.44,23.01l-62.75,59.07,30.83,30.83,59.07-62.75c9.13-9.7,16.87-20.62,23.01-32.44Z"/></g><circle class="j" cx="164.45" cy="214.54" r="12.9"/><circle class="d" cx="164.45" cy="214.54" r="8.29"/><polygon class="f" points="131.99 277.18 101.81 247 126.52 223.73 155.26 252.47 131.99 277.18"/><g><path class="d" d="M82.47,269.98c-22.6,1.84-30.09,16.31-32.65,35.54-1.3,9.81-1.88,19.73-10.12,25.48-2.29,1.59-1.15,5.15,1.63,5.06,30.34-.95,44.49-15.8,46.27-22.02-.61,3.93-1.5,7.04-2.49,9.47-1.02,2.51,1.74,4.83,4.03,3.39,8.52-5.34,19.2-15.16,19.91-31.08-6.3-8.85-26.58-25.84-26.58-25.84Z"/><path class="o" d="M82.47,269.98c-22.6,1.84-30.09,16.31-32.65,35.54-1.3,9.81-1.88,19.73-10.12,25.48-2.29,1.59-1.15,5.15,1.63,5.06,30.34-.95,44.49-15.8,46.27-22.02-.61,3.93-1.5,7.04-2.49,9.47-1.02,2.51,1.74,4.83,4.03,3.39,8.52-5.34,19.2-15.16,19.91-31.08-6.3-8.85-26.58-25.84-26.58-25.84Z"/></g><polygon class="d" points="112.52 302.66 76.33 266.46 95.61 262.29 116.7 283.38 112.52 302.66"/></g></g></g></g></g></svg>