<?xml version="1.0" encoding="UTF-8"?><svg xmlns="http://www.w3.org/2000/svg" xmlns:xlink="http://www.w3.org/1999/xlink" viewBox="0 0 2534.67 1400.49"><defs><style>.j{fill:#22a1d4;}.k{fill:#8a4f3d;}.l,.m{fill:#fff;}.n{fill:#d7c3bd;}.m{opacity:.54;}.o{clip-path:url(#h);}.p,.q{fill:#59b9df;}.r{fill:#353132;}.s{fill:#c7aba2;}.t{clip-path:url(#e);}.u{clip-path:url(#d);}.v{clip-path:url(#f);}.w{fill:#b8e1f1;}.x{fill:#955f4e;}.y{fill:#231f20;}.a`{clip-path:url(#i);}.aa{clip-path:url(#g);}.ab{fill:#f0f8fc;}.q{opacity:.42;}</style><clipPath id="d"><ellipse class="p" cx="1267.34" cy="1357.31" rx="1267.34" ry="43.19"/></clipPath><clipPath id="e"><path class="w" d="M846.42,1258.84s8.45-102.25-88.27-120.05c-96.72-17.8-346.49-185.7-443.66-161.68-40.91,10.11-3.05,125.58-27.76,187.35-20.82,52.04-127.38,151.39-50.06,172.26H857.99l-11.57-77.87Z"/></clipPath><clipPath id="f"><path class="x" d="M813.93,1151.36c0,88.98-89.24,128.07-189.75,128.07s-174.22-39.09-174.22-128.07,90.5-198.28,191.01-198.28,172.97,109.3,172.97,198.28Z"/></clipPath><clipPath id="g"><path class="w" d="M884.54,1335.83s26.04-254.46,48.32-282.03c22.29-27.57,372.8-87.53,508.12-100.71,560.8-54.62,1010.89,368.81,910.29,381.35-32.26,4.02-212.74,1.39-212.74,1.39H884.54Z"/></clipPath><clipPath id="h"><path class="x" d="M670.35,1297.86l230.63-103.39-16.45,141.36s-173.93,31.47-207.61,29.92c-33.68-1.55-6.57-67.89-6.57-67.89Z"/></clipPath><clipPath id="i"><path class="w" d="M776.27,1041.45s-105.92-28.32-169.37-81.04c-63.73-52.94,155.93-148.19,226.7-138.31,70.77,9.88,104.74,220.57,24.39,352.22l-44.06-195.92s5.41,47.04-37.66,63.05Z"/></clipPath></defs><g id="a"/><g id="b"><g id="c"><g><g><ellipse class="p" cx="1267.34" cy="1357.31" rx="1267.34" ry="43.19"/><g class="u"><ellipse class="j" cx="1301.3" cy="1330.37" rx="1178.75" ry="50.23"/></g></g><path class="ab" d="M2225.11,1336.67c57.6,0,95.19-58.45,95.27-125.84,.71-574.73-118.99-1167.39-852.31-1204.84C610.74-37.79,289.84,145.51,191.79,984.72c-21.78,186.45-77.15,355.23,264.53,351.96h1768.78Z"/><g><g><path class="w" d="M846.42,1258.84s8.45-102.25-88.27-120.05c-96.72-17.8-346.49-185.7-443.66-161.68-40.91,10.11-3.05,125.58-27.76,187.35-20.82,52.04-127.38,151.39-50.06,172.26H857.99l-11.57-77.87Z"/><g class="t"><path class="q" d="M454.7,1005.8s-72.14,210.65-4.75,282.6c67.39,71.95,202.6,100.1,202.6,100.1h205.44v-347.05l-403.29-35.64"/></g></g><path class="k" d="M795.82,1094.92s150.41-15.22,217.27-39.73c66.86-24.51-33.43,280.63-33.43,280.63h-246.66l62.82-240.9Z"/><g><g><path class="x" d="M813.93,1151.36c0,88.98-89.24,128.07-189.75,128.07s-174.22-39.09-174.22-128.07,90.5-198.28,191.01-198.28,172.97,109.3,172.97,198.28Z"/><g class="v"><path class="k" d="M776.27,1034.12s18.79,280.23-299.61,194.71c-318.4-85.52,0,0,0,0,0,0,27.52,112.31,174.52,79.15,146.99-33.16,191.2-102.11,190.09-151.07-1.11-48.97-65-122.79-65-122.79"/></g></g><path class="x" d="M670.35,956.5c-29.23-7.63-59.37-11.77-89.58-12.29-8.08-.14-16.35,0-23.91,2.87-1.24,.47-2.58,1.15-2.96,2.42-.62,2.07,1.7,3.78,3.74,4.5,3.18,1.13,6.56,1.68,9.93,1.62-10.72,1.01-21.44,2.01-32.17,3.02-9.08,.85-19.17,2.21-24.96,9.26-1.46,1.77-2.4,4.73-.56,6.11,.78,.59,1.83,.65,2.8,.68,6.96,.27,13.93,.54,20.9,.8-15.01,2.74-29.37,8.95-41.64,18.01-1.34,.99-2.75,2.16-3.1,3.79-.79,3.7,3.98,5.89,7.72,6.48,23.26,3.66,47,1.61,70.46-.44,19.02-1.66,38.11-3.34,56.73-7.59,9.4-2.15,18.96-5.12,26.25-11.43,7.29-6.32,11.76-16.74,8.59-25.85"/><path class="y" d="M543.39,1159.59s25.3,16.21,38.75-10.28c0,0-13.44,14.63-38.75,10.28Z"/><path class="y" d="M689.73,1138.79s17.11,22.18,43.27,3.98c0,0-20.39,7.46-43.27-3.98Z"/><path class="n" d="M682.56,1125.04c12.11-13.73,85.68,.6,113.26,6.56-.21-38.49-24.06-73.1-70.67-62.62-21.69,4.88-41.57,17.32-62.85,23.96-2.05-2.28-4.8-3.99-7.48-5.55-3.94-2.29-7.94-4.48-11.99-6.56-2.01-1.04-4.5-2.04-6.43-.84-1.66,1.04-2.08,3.39-1.47,5.25,.6,1.86,1.98,3.36,3.33,4.78-6.5-6.08-13.54-11.59-21.01-16.43-.95-.62-2.12-1.24-3.16-.78-.52,.23-.89,.7-1.14,1.21-1.16,2.32-.07,5.11,1.29,7.32,2.37,3.85,5.59,7.16,9.35,9.67-6.09-3.77-12.42-7.15-18.97-10.06-5.08-2.26-10.43-4.27-15.99-4.3-1.12,0-2.45,.21-2.91,1.23-.39,.87,.07,1.87,.6,2.66,3.1,4.73,8.29,7.61,13.39,10.04,.57,.27,1.14,.54,1.72,.8,4.21,1.95,8.51,3.7,12.87,5.28-20.42-1.66-40.32-5.44-60.19-4.81-14.23,.45-28.45,3.18-42.84,10.58-28.1,14.45-40.97,39.36-37.42,67.17,23.1-14.19,89.81-47.54,114.18-31.3,25.03,16.69-52.42,76.71-77.48,95.24,69.22,59.06,206.62,35.32,261.87-36.54-64.97-3.22-103.78-56.17-89.85-71.95Z"/><g><path class="l" d="M679.56,1224.64c2.33,3.65,3.43,8.17,2.57,12.42-.18,.91-.47,1.83-1.07,2.55-1,1.2-2.68,1.6-4.23,1.55-4.35-.12-8.4-3.49-9.33-7.74-.51-2.36-.5-5.41-2.72-6.36-.69-.3-1.48-.29-2.22-.16-3.46,.61-6.13,3.81-9.64,4.08-4.5,.34-7.94-4.2-12.38-5.03-1.3-.24-2.67-.16-3.89-.68-1.21-.52-2.2-1.98-1.58-3.14,.56-1.05,1.98-1.19,3.18-1.22,6.7-.15,13.38-.87,19.95-2.15,3.02-.59,5.97-1.42,8.97-2.07,2.08-.45,3.69-.09,5.47,1.08,2.73,1.78,5.16,4.13,6.91,6.88Z"/><path class="r" d="M658.4,1217.1c-3.04,.5-6.13,.66-9.18,1.04l-4.6,.32c-.75,.08-1.5,.13-2.25,.16-2.14-5.78-2.65-14.57-2.62-21.93,12.43-1.31,21.84-9.11,21.18-17.78-.67-8.91-11.7-15.34-24.64-14.36-12.94,.98-22.88,8.99-22.21,17.89,.59,7.81,9.15,13.72,19.98,14.39,0,7.11,.49,15.58,2.41,22.01-4.96,.16-9.94,.18-14.94,.03-6.2-.15-12.41-.5-18.77-.96,5.79,2.74,12.04,4.35,18.35,5.39,6.32,1.04,12.75,1.37,19.16,1.08,3.21-.08,6.4-.52,9.59-.89,1.58-.29,3.16-.57,4.74-.89,.79-.17,1.58-.29,2.35-.49l2.33-.64c6.22-1.57,12.17-4.17,17.65-7.39-6.33,1.01-12.37,2.33-18.53,3Z"/></g><path class="x" d="M552.68,1112.02c-3.3,.33-6.53,.9-9.65,1.76-3.17,.87-6.71,2.8-8.32,5.81-1.74,3.26-.46,6.16,3.49,6.23,15.69,.29,31.29-2.01,47-1.52,1.55,.05,3.14,.11,4.64-.28,9.46-2.46-2.57-8.64-6.21-9.47-9.75-2.24-20.64-3.57-30.95-2.54Z"/><path class="x" d="M692.29,1095.28c-3.3,.33-6.53,.9-9.65,1.76-3.17,.87-6.71,2.8-8.32,5.81-1.74,3.26-.46,6.16,3.49,6.23,15.69,.29,31.29-2.01,47-1.52,1.55,.05,3.14,.11,4.64-.28,9.46-2.46-2.57-8.64-6.21-9.47-9.75-2.24-20.64-3.57-30.95-2.54Z"/><path class="n" d="M606.9,953.08c-5.07-1.26-10.15-2.43-15.25-3.49-5.09-1.05-10.22-2.02-15.33-2.52-1.27-.13-2.55-.21-3.8-.22-1.24,0-2.5,.05-3.53,.33-.5,.12-.93,.37-.96,.48-.02,.05,0,.02,0,.08,.02,.06,0,.04,.03,.18l.08,.34c.26,.89,.85,1.63,1.73,2.23,1.75,1.22,4.22,1.81,6.64,2.13,2.44,.31,5.02,.38,7.45,.23,1.01-.06,1.88,.71,1.94,1.72,.06,.99-.67,1.83-1.65,1.93h-.05c-6.82,.67-13.67,1.38-20.47,2.3-6.79,.94-13.59,1.93-20.22,3.35-3.3,.72-6.61,1.54-9.59,2.71-.74,.29-1.45,.61-2.08,.96-.62,.34-1.17,.75-1.41,1.02-.11,.06-.2,.58-.19,.49-.04,0,.02-.03-.02-.02,0,0,.04,.02,.03,.06,.07,.04,.11,.09,.17,.15,.1,.06,.2,.12,.29,.19,1,.52,2.61,.85,4.17,1.03,1.59,.18,3.25,.24,4.91,.24,3.33,0,6.75-.23,10.05-.6h.05c1.19-.14,2.27,.72,2.4,1.91,.12,1.06-.55,2.04-1.55,2.33-7.18,2.11-14.37,4.4-21.46,6.86-7.08,2.45-14.18,4.99-20.84,8.22-1.65,.81-3.28,1.68-4.71,2.69-.7,.5-1.39,1.05-1.81,1.6-.22,.27-.31,.51-.33,.61-.01,.09-.03,.12,.12,.31,.18,.17,.46,.39,.81,.55,.35,.18,.82,.33,1.22,.5l1.26,.5c.43,.15,.87,.26,1.3,.39l1.31,.39,1.35,.28c.45,.09,.9,.19,1.35,.27l1.37,.18c7.34,.87,14.95,.08,22.27-1.72-3.56,1.27-7.24,2.22-11,2.84-3.75,.61-7.59,.91-11.44,.66l-1.45-.1c-.48-.05-.96-.13-1.44-.19l-1.44-.2-1.43-.32c-.48-.11-.96-.21-1.43-.34l-1.4-.47c-.48-.17-.91-.29-1.42-.51-.5-.22-1.03-.51-1.54-.98-.51-.47-.97-1.36-.9-2.22,.06-.84,.4-1.47,.74-1.96,.7-.98,1.49-1.64,2.28-2.28,1.6-1.24,3.27-2.23,4.96-3.17,3.38-1.86,6.86-3.42,10.36-4.92,3.5-1.49,7.03-2.9,10.58-4.24,7.12-2.64,14.26-5.09,21.51-7.39l.9,4.24c-3.55,.42-7.01,.68-10.59,.71-1.78,0-3.58-.04-5.42-.23-1.85-.23-3.71-.46-5.81-1.5l-.8-.5c-.27-.21-.55-.45-.81-.7-.26-.32-.52-.61-.72-.99-.18-.4-.4-.8-.45-1.23-.08-.43-.14-.87-.08-1.25,.03-.4,.08-.79,.2-1.1,.14-.6,.57-1.46,1.03-1.98,.9-1.03,1.82-1.58,2.7-2.07,.88-.48,1.75-.85,2.62-1.2,3.46-1.31,6.88-2.11,10.32-2.85,6.87-1.42,13.74-2.39,20.64-3.15,6.9-.75,13.78-1.41,20.71-1.8l.24,3.66c-2.79,.06-5.44-.1-8.16-.54-2.69-.49-5.47-1.14-7.99-2.99-1.23-.92-2.33-2.36-2.7-4.02-.07-.41-.18-.78-.14-1.41,.04-.6,.32-1.25,.72-1.7,.83-.89,1.71-1.1,2.46-1.29,1.52-.32,2.89-.27,4.26-.21,1.36,.08,2.68,.24,4,.43,5.24,.83,10.32,2.13,15.36,3.54,5.03,1.43,10.01,3.03,14.93,4.78Z"/></g><g><path class="w" d="M884.54,1335.83s26.04-254.46,48.32-282.03c22.29-27.57,372.8-87.53,508.12-100.71,560.8-54.62,1010.89,368.81,910.29,381.35-32.26,4.02-212.74,1.39-212.74,1.39H884.54Z"/><g class="aa"><path class="l" d="M1195.05,1092.83c4.37,0,8.96-1.9,12.06-4.99,2.96-2.96,5.18-7.81,4.99-12.06-.2-4.41-1.65-8.98-4.99-12.06-3.34-3.06-7.44-4.99-12.06-4.99-4.37,0-8.96,1.9-12.06,4.99s-5.18,7.81-4.99,12.06c.2,4.41,1.65,8.98,4.99,12.06,3.34,3.06,7.44,4.99,12.06,4.99h0Z"/><path class="l" d="M1285.34,1209.96c4.37,0,8.96-1.9,12.06-4.99,2.96-2.96,5.18-7.81,4.99-12.06-.2-4.41-1.65-8.98-4.99-12.06-3.34-3.06-7.44-4.99-12.06-4.99-4.37,0-8.96,1.9-12.06,4.99s-5.18,7.81-4.99,12.06c.2,4.41,1.65,8.98,4.99,12.06,3.34,3.06,7.44,4.99,12.06,4.99h0Z"/><path class="l" d="M1402.47,1022.06c4.37,0,8.96-1.9,12.06-4.99,2.96-2.96,5.18-7.81,4.99-12.06-.2-4.41-1.65-8.98-4.99-12.06-3.34-3.06-7.44-4.99-12.06-4.99-4.37,0-8.96,1.9-12.06,4.99s-5.18,7.81-4.99,12.06c.2,4.41,1.65,8.98,4.99,12.06,3.34,3.06,7.44,4.99,12.06,4.99h0Z"/><path class="l" d="M1331.7,1105.03c4.37,0,8.96-1.9,12.06-4.99s5.18-7.81,4.99-12.06c-.2-4.41-1.65-8.98-4.99-12.06-3.34-3.06-7.44-4.99-12.06-4.99-4.37,0-8.96,1.9-12.06,4.99-2.96,2.96-5.18,7.81-4.99,12.06,.2,4.41,1.65,8.98,4.99,12.06,3.34,3.06,7.44,4.99,12.06,4.99h0Z"/><path class="l" d="M1275.58,995.22c4.37,0,8.96-1.9,12.06-4.99s5.18-7.81,4.99-12.06c-.2-4.41-1.65-8.98-4.99-12.06-3.34-3.06-7.44-4.99-12.06-4.99-4.37,0-8.96,1.9-12.06,4.99-2.96,2.96-5.18,7.81-4.99,12.06,.2,4.41,1.65,8.98,4.99,12.06,3.34,3.06,7.44,4.99,12.06,4.99h0Z"/><path class="l" d="M1016.91,1100.15c4.37,0,8.96-1.9,12.06-4.99,2.96-2.96,5.18-7.81,4.99-12.06-.2-4.41-1.65-8.98-4.99-12.06-3.34-3.06-7.44-4.99-12.06-4.99-4.37,0-8.96,1.9-12.06,4.99-2.96,2.96-5.18,7.81-4.99,12.06,.2,4.41,1.65,8.98,4.99,12.06,3.34,3.06,7.44,4.99,12.06,4.99h0Z"/><path class="l" d="M1102.32,1244.13c4.37,0,8.96-1.9,12.06-4.99,2.96-2.96,5.18-7.81,4.99-12.06-.2-4.41-1.65-8.98-4.99-12.06-3.34-3.06-7.44-4.99-12.06-4.99-4.37,0-8.96,1.9-12.06,4.99s-5.18,7.81-4.99,12.06c.2,4.41,1.65,8.98,4.99,12.06,3.34,3.06,7.44,4.99,12.06,4.99h0Z"/><path class="l" d="M1095,1136.76c4.37,0,8.96-1.9,12.06-4.99s5.18-7.81,4.99-12.06c-.2-4.41-1.65-8.98-4.99-12.06-3.34-3.06-7.44-4.99-12.06-4.99-4.37,0-8.96,1.9-12.06,4.99s-5.18,7.81-4.99,12.06c.2,4.41,1.65,8.98,4.99,12.06,3.34,3.06,7.44,4.99,12.06,4.99h0Z"/><path class="l" d="M955.9,1209.96c4.37,0,8.96-1.9,12.06-4.99s5.18-7.81,4.99-12.06c-.2-4.41-1.65-8.98-4.99-12.06-3.34-3.06-7.44-4.99-12.06-4.99-4.37,0-8.96,1.9-12.06,4.99-2.96,2.96-5.18,7.81-4.99,12.06,.2,4.41,1.65,8.98,4.99,12.06,3.34,3.06,7.44,4.99,12.06,4.99h0Z"/><path class="l" d="M980.3,1305.13c4.37,0,8.96-1.9,12.06-4.99s5.18-7.81,4.99-12.06c-.2-4.41-1.65-8.98-4.99-12.06-3.34-3.06-7.44-4.99-12.06-4.99-4.37,0-8.96,1.9-12.06,4.99-2.96,2.96-5.18,7.81-4.99,12.06,.2,4.41,1.65,8.98,4.99,12.06,3.34,3.06,7.44,4.99,12.06,4.99h0Z"/><path class="l" d="M1222.11,1300.49c4.37,0,8.96-1.9,12.06-4.99s5.18-7.81,4.99-12.06c-.2-4.41-1.65-8.98-4.99-12.06-3.34-3.06-7.44-4.99-12.06-4.99-4.37,0-8.96,1.9-12.06,4.99-2.96,2.96-5.18,7.81-4.99,12.06,.2,4.41,1.65,8.98,4.99,12.06,3.34,3.06,7.44,4.99,12.06,4.99h0Z"/><path class="l" d="M1192.16,1180.69c4.37,0,8.96-1.9,12.06-4.99s5.18-7.81,4.99-12.06c-.2-4.41-1.65-8.98-4.99-12.06-3.34-3.06-7.44-4.99-12.06-4.99-4.37,0-8.96,1.9-12.06,4.99-2.96,2.96-5.18,7.81-4.99,12.06,.2,4.41,1.65,8.98,4.99,12.06,3.34,3.06,7.44,4.99,12.06,4.99h0Z"/><path class="l" d="M1471.7,1213.96c4.37,0,8.96-1.9,12.06-4.99s5.18-7.81,4.99-12.06c-.2-4.41-1.65-8.98-4.99-12.06-3.34-3.06-7.44-4.99-12.06-4.99-4.37,0-8.96,1.9-12.06,4.99-2.96,2.96-5.18,7.81-4.99,12.06,.2,4.41,1.65,8.98,4.99,12.06,3.34,3.06,7.44,4.99,12.06,4.99h0Z"/><path class="l" d="M1534.93,1064.21c4.37,0,8.96-1.9,12.06-4.99,2.96-2.96,5.18-7.81,4.99-12.06-.2-4.41-1.65-8.98-4.99-12.06-3.34-3.06-7.44-4.99-12.06-4.99-4.37,0-8.96,1.9-12.06,4.99-2.96,2.96-5.18,7.81-4.99,12.06,.2,4.41,1.65,8.98,4.99,12.06,3.34,3.06,7.44,4.99,12.06,4.99h0Z"/><path class="l" d="M1415.13,1117.46c4.37,0,8.96-1.9,12.06-4.99,2.96-2.96,5.18-7.81,4.99-12.06-.2-4.41-1.65-8.98-4.99-12.06-3.34-3.06-7.44-4.99-12.06-4.99-4.37,0-8.96,1.9-12.06,4.99-2.96,2.96-5.18,7.81-4.99,12.06,.2,4.41,1.65,8.98,4.99,12.06,3.34,3.06,7.44,4.99,12.06,4.99h0Z"/><path class="l" d="M1395.16,1303.82c4.37,0,8.96-1.9,12.06-4.99s5.18-7.81,4.99-12.06c-.2-4.41-1.65-8.98-4.99-12.06-3.34-3.06-7.44-4.99-12.06-4.99-4.37,0-8.96,1.9-12.06,4.99-2.96,2.96-5.18,7.81-4.99,12.06,.2,4.41,1.65,8.98,4.99,12.06,3.34,3.06,7.44,4.99,12.06,4.99h0Z"/><path class="l" d="M1641.42,1347.08c4.37,0,8.96-1.9,12.06-4.99s5.18-7.81,4.99-12.06c-.2-4.41-1.65-8.98-4.99-12.06-3.34-3.06-7.44-4.99-12.06-4.99-4.37,0-8.96,1.9-12.06,4.99-2.96,2.96-5.18,7.81-4.99,12.06,.2,4.41,1.65,8.98,4.99,12.06,3.34,3.06,7.44,4.99,12.06,4.99h0Z"/><path class="l" d="M1698,1167.37c4.37,0,8.96-1.9,12.06-4.99s5.18-7.81,4.99-12.06c-.2-4.41-1.65-8.98-4.99-12.06-3.34-3.06-7.44-4.99-12.06-4.99-4.37,0-8.96,1.9-12.06,4.99s-5.18,7.81-4.99,12.06c.2,4.41,1.65,8.98,4.99,12.06,3.34,3.06,7.44,4.99,12.06,4.99h0Z"/><path class="l" d="M1554.9,1270.54c4.37,0,8.96-1.9,12.06-4.99s5.18-7.81,4.99-12.06c-.2-4.41-1.65-8.98-4.99-12.06-3.34-3.06-7.44-4.99-12.06-4.99-4.37,0-8.96,1.9-12.06,4.99s-5.18,7.81-4.99,12.06c.2,4.41,1.65,8.98,4.99,12.06,3.34,3.06,7.44,4.99,12.06,4.99h0Z"/><path class="l" d="M1581.52,1160.72c4.37,0,8.96-1.9,12.06-4.99,2.96-2.96,5.18-7.81,4.99-12.06-.2-4.41-1.65-8.98-4.99-12.06-3.34-3.06-7.44-4.99-12.06-4.99-4.37,0-8.96,1.9-12.06,4.99-2.96,2.96-5.18,7.81-4.99,12.06,.2,4.41,1.65,8.98,4.99,12.06,3.34,3.06,7.44,4.99,12.06,4.99h0Z"/><path class="l" d="M1691.34,974.36c4.37,0,8.96-1.9,12.06-4.99,2.96-2.96,5.18-7.81,4.99-12.06-.2-4.41-1.65-8.98-4.99-12.06-3.34-3.06-7.44-4.99-12.06-4.99-4.37,0-8.96,1.9-12.06,4.99s-5.18,7.81-4.99,12.06c.2,4.41,1.65,8.98,4.99,12.06,3.34,3.06,7.44,4.99,12.06,4.99h0Z"/><path class="l" d="M1538.26,991c4.37,0,8.96-1.9,12.06-4.99s5.18-7.81,4.99-12.06c-.2-4.41-1.65-8.98-4.99-12.06-3.34-3.06-7.44-4.99-12.06-4.99-4.37,0-8.96,1.9-12.06,4.99-2.96,2.96-5.18,7.81-4.99,12.06,.2,4.41,1.65,8.98,4.99,12.06,3.34,3.06,7.44,4.99,12.06,4.99h0Z"/><path class="l" d="M1930.95,1184.01c4.37,0,8.96-1.9,12.06-4.99,2.96-2.96,5.18-7.81,4.99-12.06-.2-4.41-1.65-8.98-4.99-12.06-3.34-3.06-7.44-4.99-12.06-4.99-4.37,0-8.96,1.9-12.06,4.99-2.96,2.96-5.18,7.81-4.99,12.06,.2,4.41,1.65,8.98,4.99,12.06,3.34,3.06,7.44,4.99,12.06,4.99h0Z"/><path class="l" d="M1857.74,1057.55c4.37,0,8.96-1.9,12.06-4.99,2.96-2.96,5.18-7.81,4.99-12.06-.2-4.41-1.65-8.98-4.99-12.06-3.34-3.06-7.44-4.99-12.06-4.99-4.37,0-8.96,1.9-12.06,4.99-2.96,2.96-5.18,7.81-4.99,12.06,.2,4.41,1.65,8.98,4.99,12.06,3.34,3.06,7.44,4.99,12.06,4.99h0Z"/><path class="l" d="M1691.34,1067.54c4.37,0,8.96-1.9,12.06-4.99s5.18-7.81,4.99-12.06c-.2-4.41-1.65-8.98-4.99-12.06-3.34-3.06-7.44-4.99-12.06-4.99-4.37,0-8.96,1.9-12.06,4.99-2.96,2.96-5.18,7.81-4.99,12.06,.2,4.41,1.65,8.98,4.99,12.06,3.34,3.06,7.44,4.99,12.06,4.99h0Z"/><path class="l" d="M1807.82,1134.1c4.37,0,8.96-1.9,12.06-4.99,2.96-2.96,5.18-7.81,4.99-12.06-.2-4.41-1.65-8.98-4.99-12.06-3.34-3.06-7.44-4.99-12.06-4.99-4.37,0-8.96,1.9-12.06,4.99-2.96,2.96-5.18,7.81-4.99,12.06,.2,4.41,1.65,8.98,4.99,12.06,3.34,3.06,7.44,4.99,12.06,4.99h0Z"/><path class="l" d="M1824.46,1280.52c4.37,0,8.96-1.9,12.06-4.99,2.96-2.96,5.18-7.81,4.99-12.06-.2-4.41-1.65-8.98-4.99-12.06-3.34-3.06-7.44-4.99-12.06-4.99-4.37,0-8.96,1.9-12.06,4.99-2.96,2.96-5.18,7.81-4.99,12.06,.2,4.41,1.65,8.98,4.99,12.06,3.34,3.06,7.44,4.99,12.06,4.99h0Z"/><path class="l" d="M1714.64,1273.87c4.37,0,8.96-1.9,12.06-4.99,2.96-2.96,5.18-7.81,4.99-12.06-.2-4.41-1.65-8.98-4.99-12.06-3.34-3.06-7.44-4.99-12.06-4.99-4.37,0-8.96,1.9-12.06,4.99s-5.18,7.81-4.99,12.06c.2,4.41,1.65,8.98,4.99,12.06,3.34,3.06,7.44,4.99,12.06,4.99h0Z"/><path class="l" d="M1964.23,1317.13c4.37,0,8.96-1.9,12.06-4.99s5.18-7.81,4.99-12.06c-.2-4.41-1.65-8.98-4.99-12.06-3.34-3.06-7.44-4.99-12.06-4.99-4.37,0-8.96,1.9-12.06,4.99-2.96,2.96-5.18,7.81-4.99,12.06,.2,4.41,1.65,8.98,4.99,12.06,3.34,3.06,7.44,4.99,12.06,4.99h0Z"/><path class="l" d="M2037.44,1223.95c4.37,0,8.96-1.9,12.06-4.99s5.18-7.81,4.99-12.06c-.2-4.41-1.65-8.98-4.99-12.06-3.34-3.06-7.44-4.99-12.06-4.99-4.37,0-8.96,1.9-12.06,4.99s-5.18,7.81-4.99,12.06c.2,4.41,1.65,8.98,4.99,12.06,3.34,3.06,7.44,4.99,12.06,4.99h0Z"/><path class="l" d="M1977.54,1114.13c4.37,0,8.96-1.9,12.06-4.99s5.18-7.81,4.99-12.06c-.2-4.41-1.65-8.98-4.99-12.06-3.34-3.06-7.44-4.99-12.06-4.99-4.37,0-8.96,1.9-12.06,4.99-2.96,2.96-5.18,7.81-4.99,12.06,.2,4.41,1.65,8.98,4.99,12.06,3.34,3.06,7.44,4.99,12.06,4.99h0Z"/><path class="l" d="M2210.49,1247.24c4.37,0,8.96-1.9,12.06-4.99s5.18-7.81,4.99-12.06c-.2-4.41-1.65-8.98-4.99-12.06-3.34-3.06-7.44-4.99-12.06-4.99-4.37,0-8.96,1.9-12.06,4.99s-5.18,7.81-4.99,12.06c.2,4.41,1.65,8.98,4.99,12.06,3.34,3.06,7.44,4.99,12.06,4.99h0Z"/><path class="l" d="M2110.65,1150.74c4.37,0,8.96-1.9,12.06-4.99,2.96-2.96,5.18-7.81,4.99-12.06-.2-4.41-1.65-8.98-4.99-12.06-3.34-3.06-7.44-4.99-12.06-4.99-4.37,0-8.96,1.9-12.06,4.99-2.96,2.96-5.18,7.81-4.99,12.06,.2,4.41,1.65,8.98,4.99,12.06,3.34,3.06,7.44,4.99,12.06,4.99h0Z"/><path class="l" d="M2107.33,1320.46c4.37,0,8.96-1.9,12.06-4.99s5.18-7.81,4.99-12.06c-.2-4.41-1.65-8.98-4.99-12.06-3.34-3.06-7.44-4.99-12.06-4.99-4.37,0-8.96,1.9-12.06,4.99-2.96,2.96-5.18,7.81-4.99,12.06,.2,4.41,1.65,8.98,4.99,12.06,3.34,3.06,7.44,4.99,12.06,4.99h0Z"/><path class="l" d="M2237.11,1320.46c4.37,0,8.96-1.9,12.06-4.99,2.96-2.96,5.18-7.81,4.99-12.06-.2-4.41-1.65-8.98-4.99-12.06-3.34-3.06-7.44-4.99-12.06-4.99-4.37,0-8.96,1.9-12.06,4.99s-5.18,7.81-4.99,12.06c.2,4.41,1.65,8.98,4.99,12.06,3.34,3.06,7.44,4.99,12.06,4.99h0Z"/><path class="l" d="M1095.65,1327.11c4.37,0,8.96-1.9,12.06-4.99,2.96-2.96,5.18-7.81,4.99-12.06-.2-4.41-1.65-8.98-4.99-12.06-3.34-3.06-7.44-4.99-12.06-4.99-4.37,0-8.96,1.9-12.06,4.99s-5.18,7.81-4.99,12.06c.2,4.41,1.65,8.98,4.99,12.06,3.34,3.06,7.44,4.99,12.06,4.99h0Z"/><path class="l" d="M1105.63,1054.23c4.37,0,8.96-1.9,12.06-4.99s5.18-7.81,4.99-12.06c-.2-4.41-1.65-8.98-4.99-12.06-3.34-3.06-7.44-4.99-12.06-4.99-4.37,0-8.96,1.9-12.06,4.99-2.96,2.96-5.18,7.81-4.99,12.06,.2,4.41,1.65,8.98,4.99,12.06,3.34,3.06,7.44,4.99,12.06,4.99h0Z"/><path class="q" d="M1004.23,1027.87s80.28,225.33,312.15,239.03c231.87,13.7,1076.11,32.29,1076.11,32.29v58.11H825.88l75.1-317.49,103.25-11.94"/></g></g><g><path class="n" d="M686.33,1319.35c-3.67-11.18-14.1-18.75-25.85-19.42-27.95-1.58-89.33-2.38-127.9,17.08-51.21,25.84-99.85,69.36-76.81,62.96,23.04-6.4,88.33-53.07,117.78-48.65,29.44,4.42,105.24,7.68,112.15-1.28,2.16-2.8,1.94-6.68,.63-10.7Z"/><path class="n" d="M685.57,1326.12s-120.78-.2-132.39,9.86c-11.61,10.06-78.14,49.12-69.69,52.29,8.45,3.17,76.02-27.3,89.75-31.07,13.73-3.77,119.32,11.39,122.48,.12s-10.15-31.19-10.15-31.19Z"/><path class="s" d="M573.56,1331.32s59.03-7.36,78.99-4.86c0,0-40.19-12.71-78.99,4.86Z"/></g><g><path class="x" d="M670.35,1297.86l230.63-103.39-16.45,141.36s-173.93,31.47-207.61,29.92c-33.68-1.55-6.57-67.89-6.57-67.89Z"/><g class="o"><path class="k" d="M639.85,1336.72s186.19-14.29,294.08-83.57v104.16l-299.38,23.3,5.3-43.88Z"/></g></g><g><g><path class="w" d="M776.27,1041.45s-105.92-28.32-169.37-81.04c-63.73-52.94,155.93-148.19,226.7-138.31,70.77,9.88,104.74,220.57,24.39,352.22l-44.06-195.92s5.41,47.04-37.66,63.05Z"/><g class="a`"><path class="q" d="M711.37,1019.09s96.48-57.13,102.56-95.16c6.08-38.03,54.14,165.74,41.85,240.57-12.28,74.83,0,0,0,0l-41.85-126.95-45.36,16.24-57.2-34.7"/><path class="m" d="M619.21,900.9s120.98,89.99,189.42,128.6l-40.07,24.29s-168.87-61.78-184.61-100.95c-15.74-39.17,35.26-51.94,35.26-51.94"/></g></g><circle class="l" cx="856.41" cy="1190.47" r="26.02"/></g></g></g></g></g></svg>