<?xml version="1.0" encoding="UTF-8"?><svg xmlns="http://www.w3.org/2000/svg" xmlns:xlink="http://www.w3.org/1999/xlink" viewBox="0 0 3000 2025"><defs><style>.g,.h{fill:#22a1d4;}.i{fill:#fff;}.j{fill:#e7f5fa;}.k{opacity:.31;}.k,.l{fill:#2171a2;}.m{clip-path:url(#e);}.h{opacity:.14;}.n{clip-path:url(#d);}.o{fill:#f2f9fc;}.p{fill:none;}.l{opacity:.08;}.q{clip-path:url(#f);}</style><clipPath id="d"><rect class="p" width="3000" height="2025"/></clipPath><clipPath id="e"><path class="j" d="M1068.16,1177.44c1.64,3.85,6.09,5.65,9.94,4.01l22.66-9.63c3.85-1.64,5.65-6.09,4.01-9.94l-1.4-3.29,18.9-8.03c9.89-4.21,14.5-15.63,10.3-25.52l-55.56-130.67c-4.21-9.89-15.63-14.5-25.52-10.3l-18.9,8.03-1.4-3.29c-1.64-3.85-6.09-5.65-9.94-4.01l-22.66,9.63c-3.85,1.64-5.65,6.09-4.01,9.94l1.4,3.29-10.71,4.55-1.4-3.29c-1.64-3.85-6.09-5.65-9.94-4.01l-22.66,9.63c-3.85,1.64-5.65,6.09-4.01,9.94l1.4,3.29-133.18,56.62c-9.89,4.21-14.5,15.63-10.3,25.52l55.56,130.67c4.21,9.89,15.63,14.5,25.52,10.3l133.18-56.62,1.4,3.29c1.64,3.85,6.09,5.65,9.94,4.01l22.66-9.63c3.85-1.64,5.65-6.09,4.01-9.94l-1.4-3.29,10.71-4.55,1.4,3.29Z"/></clipPath><clipPath id="f"><path class="j" d="M2196.74,576.79l53.1,115.04c4.05,8.77,.22,19.16-8.55,23.21l-341.38,157.58c-8.77,4.05-19.16,.22-23.21-8.55l-53.1-115.04c-4.05-8.77-.22-19.16,8.55-23.21l341.38-157.58c8.77-4.05,19.16-.22,23.21,8.55Z"/></clipPath></defs><g id="a"/><g id="b"><g id="c"><g class="n"><circle class="l" cx="1520.03" cy="925.68" r="498.22"/><circle class="o" cx="1500" cy="908.39" r="498.22"/><g><path class="k" d="M1124.57,1155.89l98.31-41.8-50.59-119-98.31,41.8-2.48-5.84c-4.21-9.89-15.63-14.5-25.53-10.3l-18.9,8.03-1.4-3.29c-1.64-3.85-6.09-5.65-9.94-4.01l-22.66,9.63c-3.85,1.64-5.65,6.09-4.01,9.94l1.4,3.29-10.71,4.55-1.4-3.29c-1.64-3.85-6.09-5.65-9.94-4.01l-22.66,9.63c-3.85,1.64-5.65,6.09-4.01,9.94l1.4,3.29-133.18,56.62c-9.89,4.21-14.5,15.63-10.3,25.52l12.47,29.34-44.21,18.8,7.77,18.27c-110.47,47.55-234.72,99.8-355.23,103.24-51.59,1.47-151.7-17.62-242.51-162.1-24.81-39.46-44.93-81.69-61.34-117.79-2.85-6.27-5.61-12.97-8.53-20.06-14.06-34.13-30-72.81-67.21-91.58-53.16-26.81-100.63,3.33-138.77,27.54-4.64,2.95-9.21,5.85-13.72,8.61-12.17,7.44-24.69,15.5-36.81,23.31-63.79,41.09-129.76,83.58-201.34,76.5-64.57-6.39-122.21-49.08-154.18-114.23-63.96-130.34-53.34-262.17,32.46-403.03,75.63-124.16,195.5-234.11,301.27-331.12,16-14.68,31.11-28.54,45.92-42.31,30.1-27.98,64.02-61.33,85.7-103C-13.93,19.57-9.97-31.36-27.75-72.72c-15.2-35.39-47.11-65.58-94.81-89.73-77.14-39.05-159.31-55.52-244.23-48.93-73.64,5.71-151.52,29.02-231.48,69.28-142.96,71.98-270.67,184.42-387.38,295.2l-83.05,78.83,25.84,27.23,83.05-78.83c114.63-108.81,239.81-219.11,378.42-288.9,75.58-38.05,148.76-60.05,217.51-65.39,77.97-6.05,153.46,9.09,224.37,44.99,39.64,20.07,65.64,43.98,77.28,71.06,13.12,30.52,9.5,70.73-9.67,107.58-18.92,36.36-50.16,66.98-77.96,92.83-14.72,13.68-29.78,27.5-45.74,42.13-107.6,98.69-229.56,210.55-307.95,339.25-43.52,71.45-68.53,139.43-76.45,207.83-9.01,77.82,5.24,155.62,42.36,231.26,7.2,14.68,15.53,28.38,24.84,41.02,39.48,53.58,96.55,87.83,159.34,94.03,84.6,8.37,159.38-39.8,225.36-82.29,12.48-8.04,24.27-15.63,36.06-22.84,4.69-2.87,9.45-5.89,14.27-8.95,40.84-25.93,69.99-41.73,101.74-25.72,24.74,12.47,37.28,42.92,49.41,72.36,2.92,7.09,5.94,14.42,9.07,21.3,16.93,37.24,37.74,80.88,63.73,122.23,43.24,68.8,136.51,183.61,275.36,179.64,127.54-3.64,255.32-57.36,368.85-106.22l7.84,18.44,44.21-18.8,12.79,30.09c4.21,9.89,15.63,14.5,25.52,10.3l133.18-56.62,1.4,3.29c1.64,3.85,6.09,5.65,9.94,4.01l22.66-9.63c3.85-1.64,5.65-6.09,4.01-9.94l-1.4-3.29,10.71-4.55,1.4,3.29c1.64,3.85,6.09,5.65,9.94,4.01l22.66-9.63c3.85-1.64,5.65-6.09,4.01-9.94l-1.4-3.29,18.9-8.03c9.89-4.21,14.5-15.63,10.3-25.52l-2.48-5.84Z"/><g><g><g><g><g><path class="j" d="M1068.16,1177.44c1.64,3.85,6.09,5.65,9.94,4.01l22.66-9.63c3.85-1.64,5.65-6.09,4.01-9.94l-1.4-3.29,18.9-8.03c9.89-4.21,14.5-15.63,10.3-25.52l-55.56-130.67c-4.21-9.89-15.63-14.5-25.52-10.3l-18.9,8.03-1.4-3.29c-1.64-3.85-6.09-5.65-9.94-4.01l-22.66,9.63c-3.85,1.64-5.65,6.09-4.01,9.94l1.4,3.29-10.71,4.55-1.4-3.29c-1.64-3.85-6.09-5.65-9.94-4.01l-22.66,9.63c-3.85,1.64-5.65,6.09-4.01,9.94l1.4,3.29-133.18,56.62c-9.89,4.21-14.5,15.63-10.3,25.52l55.56,130.67c4.21,9.89,15.63,14.5,25.52,10.3l133.18-56.62,1.4,3.29c1.64,3.85,6.09,5.65,9.94,4.01l22.66-9.63c3.85-1.64,5.65-6.09,4.01-9.94l-1.4-3.29,10.71-4.55,1.4,3.29Z"/><g class="m"><polyline class="h" points="831.01 1174.57 1123.62 1051.21 1068.11 947.38 773.06 1076.91 799.67 1146.62 831.01 1174.57"/></g></g><rect class="g" x="1089.29" y="985.38" width="129.31" height="106.82" transform="translate(1658.43 -429.6) rotate(66.97)"/><g><rect class="i" x="1154.8" y="968.62" width="19.31" height="26.52" transform="translate(1612.46 -473.91) rotate(66.97)"/><rect class="i" x="1167.42" y="998.29" width="19.31" height="26.52" transform="translate(1647.45 -467.46) rotate(66.97)"/><rect class="i" x="1180.03" y="1027.97" width="19.31" height="26.52" transform="translate(1682.44 -461.01) rotate(66.97)"/><rect class="i" x="1192.65" y="1057.64" width="19.31" height="26.52" transform="translate(1717.4 -454.56) rotate(66.97)"/></g></g><rect class="g" x="935.56" y="1087.37" width="180.92" height="11.63" transform="translate(1630.61 -278.76) rotate(66.97)"/></g><rect class="g" x="769.06" y="1160.12" width="77.42" height="51.71" transform="translate(1583.14 -21.42) rotate(66.97)"/></g><path class="g" d="M-511.91,969.73c-9.31-12.64-17.64-26.34-24.84-41.02-37.12-75.64-51.37-153.44-42.36-231.26,7.92-68.4,32.93-136.38,76.45-207.83,78.39-128.7,200.35-240.56,307.95-339.25,15.95-14.63,31.02-28.45,45.74-42.13,27.8-25.85,59.04-56.47,77.96-92.83,19.17-36.85,22.79-77.06,9.67-107.58-11.63-27.08-37.64-50.99-77.28-71.06-70.91-35.9-146.4-51.04-224.37-44.99-68.75,5.33-141.93,27.33-217.51,65.39-138.61,69.79-263.79,180.1-378.42,288.9l-83.05,78.83-25.84-27.23,83.05-78.83c116.71-110.79,244.42-223.23,387.38-295.2,79.96-40.26,157.84-63.57,231.48-69.28,84.93-6.59,167.1,9.87,244.23,48.93,47.7,24.15,79.61,54.33,94.81,89.73C-9.07-65.64-13.02-14.71-37.7,32.72c-21.68,41.67-55.61,75.01-85.7,103-14.81,13.77-29.92,27.63-45.92,42.31-105.76,97.01-225.64,206.96-301.27,331.12-85.8,140.86-96.42,272.69-32.46,403.03,31.97,65.15,89.61,107.85,154.18,114.23,71.58,7.08,137.55-35.41,201.34-76.5,12.11-7.8,24.64-15.87,36.81-23.31,4.51-2.76,9.09-5.66,13.72-8.61,38.14-24.22,85.61-54.35,138.77-27.54,37.21,18.77,53.15,57.45,67.21,91.58,2.92,7.09,5.68,13.8,8.53,20.06,16.41,36.1,36.54,78.33,61.34,117.79,90.8,144.48,190.92,163.57,242.51,162.1,123.75-3.53,251.44-58.53,364.09-107.06l16.31-7.02,14.82,34.49-16.29,7.01c-115.75,49.86-246.95,106.37-377.87,110.11-138.84,3.97-232.12-110.84-275.36-179.64-25.99-41.35-46.8-84.99-63.73-122.23-3.13-6.88-6.15-14.21-9.07-21.3-12.13-29.44-24.67-59.89-49.41-72.36-31.75-16.02-60.9-.22-101.74,25.72-4.82,3.06-9.57,6.08-14.27,8.95-11.79,7.21-23.58,14.8-36.06,22.84-65.98,42.49-140.76,90.66-225.36,82.29-62.79-6.21-119.86-40.46-159.34-94.03Z"/></g></g><g><path class="k" d="M3873.88,1419.99c-60.23,.34-138.8-40.14-178.55-131.33-49.05-112.51-23.54-233.63,1.1-350.76,1.88-8.94,3.76-17.85,5.59-26.73l1.41-6.8c28.04-135.54,57.04-275.72,57.51-416.83,.28-86.09-16.87-173.97-48.31-247.44-37.6-87.86-94.7-152.65-165.15-187.36-66.07-32.55-140.26-35.72-198.47-8.47-51.85,24.27-86.99,69.08-101.62,129.57-24.17,99.97-4.44,204.42,14.65,305.44,2.45,12.97,4.88,25.83,7.19,38.56,1.25,6.9,2.53,13.85,3.81,20.87,26.7,145.6,56.95,310.63-40.19,432.12-29.73,37.18-63.02,56.54-101.77,59.2-101.31,6.95-216.98-102.8-309.92-190.99-36.23-34.38-67.51-64.06-94.08-83.34-167.68-121.64-317.73-161.03-458.02-120.09l-11.46-24.82-52.51,24.24-10.64-23.06c-4.05-8.77-14.44-12.6-23.21-8.55l-134.26,61.97-2.61-5.66c-2.1-4.54-7.48-6.52-12.02-4.43l-132.49,61.16c-4.54,2.1-6.52,7.48-4.43,12.02l2.61,5.66-58.19,26.86c-8.77,4.05-12.6,14.44-8.55,23.21l17.47,37.84-133.06,61.8c-10.7,4.94-15.36,17.61-10.43,28.31,4.94,10.7,17.61,15.36,28.31,10.43l133.13-61.65,17.69,38.32c4.05,8.77,14.44,12.6,23.21,8.55l58.19-26.86,2.61,5.66c2.1,4.54,7.48,6.52,12.02,4.43l132.49-61.16c4.54-2.1,6.52-7.48,4.43-12.02l-2.61-5.66,134.26-61.97c8.77-4.05,12.6-14.44,8.55-23.21l-7.95-17.23-2.69-5.84,52.51-24.24-12.81-27.76c133.98-38.03,278.18,.75,440.03,118.16,25.62,18.59,56.51,47.9,92.28,81.84,95.47,90.59,214.28,203.33,323.39,195.84,43.39-2.98,81.9-25.13,114.46-65.85,102.21-127.83,71.17-297.11,43.79-446.45-1.28-7-2.56-13.95-3.81-20.83-2.32-12.77-4.75-25.68-7.21-38.69-18.73-99.17-38.12-201.7-14.83-297.95,13.31-55.06,45.08-95.73,91.86-117.64,53.35-24.98,121.79-21.87,183.06,8.32,66.58,32.81,120.75,94.49,156.65,178.4,30.5,71.29,47.15,156.65,46.87,240.38-.46,139.32-29.28,278.6-57.14,413.28l-1.41,6.8c-1.83,8.85-3.7,17.74-5.58,26.66-25.24,119.88-51.33,243.81,0,361.54,17.09,39.2,44.69,74.75,77.72,100.1,36.03,27.65,76.57,42.14,117.24,41.91l-.1-17.8Z"/><g><g><g><g><path class="j" d="M2196.74,576.79l53.1,115.04c4.05,8.77,.22,19.16-8.55,23.21l-341.38,157.58c-8.77,4.05-19.16,.22-23.21-8.55l-53.1-115.04c-4.05-8.77-.22-19.16,8.55-23.21l341.38-157.58c8.77-4.05,19.16-.22,23.21,8.55Z"/><g class="q"><polygon class="h" points="2229.6 634.29 1825.85 816.01 1793.07 715.22 1936.36 608.35 2210.8 533.07 2229.6 634.29"/></g></g><path class="g" d="M2036.65,624.55l72.99,158.12c2.1,4.54,.11,9.92-4.43,12.02l-132.49,61.16c-4.54,2.1-9.92,.11-12.02-4.43l-72.99-158.12c-2.1-4.54-.11-9.92,4.43-12.02l132.49-61.16c4.54-2.1,9.92-.11,12.02,4.43Z"/><g><path class="j" d="M2093.31,775.92h0c1.51,3.26,.08,7.13-3.18,8.64l-115.14,53.15c-3.26,1.51-7.13,.08-8.64-3.18h0c-1.51-3.26-.08-7.13,3.18-8.64l115.14-53.15c3.26-1.51,7.13-.08,8.64,3.18Z"/><path class="j" d="M2080.89,749.01h0c1.51,3.26,.08,7.13-3.18,8.64l-115.14,53.15c-3.26,1.51-7.13,.08-8.64-3.18h0c-1.51-3.26-.08-7.13,3.18-8.64l115.14-53.15c3.26-1.51,7.13-.08,8.64,3.18Z"/><path class="j" d="M2068.46,722.1h0c1.51,3.26,.08,7.13-3.18,8.64l-115.14,53.15c-3.26,1.51-7.13,.08-8.64-3.18h0c-1.51-3.26-.08-7.13,3.18-8.64l115.14-53.15c3.26-1.51,7.13-.08,8.64,3.18Z"/><path class="j" d="M2056.04,695.19h0c1.51,3.26,.08,7.13-3.18,8.64l-115.14,53.15c-3.26,1.51-7.13,.08-8.64-3.18h0c-1.51-3.26-.08-7.13,3.18-8.64l115.14-53.15c3.26-1.51,7.13-.08,8.64,3.18Z"/><path class="j" d="M2043.62,668.28h0c1.51,3.26,.08,7.13-3.18,8.64l-115.14,53.15c-3.26,1.51-7.13,.08-8.64-3.18h0c-1.51-3.26-.08-7.13,3.18-8.64l115.14-53.15c3.26-1.51,7.13-.08,8.64,3.18Z"/><path class="j" d="M2031.2,641.36h0c1.51,3.26,.08,7.13-3.18,8.64l-115.14,53.15c-3.26,1.51-7.13,.08-8.64-3.18h0c-1.51-3.26-.08-7.13,3.18-8.64l115.14-53.15c3.26-1.51,7.13-.08,8.64,3.18Z"/></g><path class="g" d="M1841.2,787.19l17.88,38.73-133.2,61.49c-10.7,4.94-23.37,.27-28.31-10.43h0c-4.94-10.7-.27-23.37,10.43-28.31l133.2-61.49Z"/></g><rect class="g" x="2211.59" y="593.27" width="75.9" height="57.83" transform="translate(2627.42 2925.4) rotate(-114.78)"/></g><path class="g" d="M2253.52,606.07c145.39-49.79,301.04-12.36,475.84,114.45,26.57,19.28,57.85,48.96,94.08,83.34,92.94,88.19,208.61,197.95,309.92,190.99,38.75-2.66,72.04-22.03,101.77-59.2,97.14-121.5,66.88-286.52,40.19-432.12-1.29-7.01-2.56-13.97-3.81-20.87-2.31-12.73-4.74-25.59-7.19-38.56-19.08-101.02-38.82-205.47-14.65-305.44,14.63-60.49,49.77-105.3,101.62-129.57,58.2-27.25,132.4-24.08,198.47,8.47,70.45,34.71,127.55,99.5,165.15,187.36,31.44,73.47,48.59,161.34,48.31,247.44-.47,141.11-29.47,281.29-57.51,416.83l-1.41,6.8c-1.84,8.87-3.71,17.78-5.59,26.73-24.64,117.13-50.15,238.25-1.1,350.76,39.75,91.19,118.32,131.67,178.55,131.33l.1,17.8c-40.67,.23-81.22-14.26-117.24-41.91-33.03-25.35-60.64-60.9-77.72-100.1-51.32-117.73-25.24-241.66,0-361.54,1.88-8.92,3.75-17.81,5.58-26.66l1.41-6.8c27.87-134.68,56.68-273.96,57.14-413.28,.28-83.72-16.37-169.09-46.87-240.38-35.9-83.9-90.07-145.59-156.65-178.4-61.27-30.19-129.7-33.3-183.06-8.32-46.78,21.9-78.55,62.58-91.86,117.64-23.29,96.25-3.9,198.78,14.83,297.95,2.46,13.01,4.9,25.91,7.21,38.69,1.25,6.88,2.52,13.83,3.81,20.83,27.39,149.34,58.42,318.62-43.79,446.45-32.56,40.71-71.07,62.87-114.46,65.85-109.11,7.49-227.92-105.25-323.39-195.84-35.77-33.94-66.66-63.26-92.28-81.84-169.77-123.16-320.12-159.8-459.63-112.02l-5.77-16.84Z"/></g></g><path class="g" d="M1470.23,1120.91c1.68-3.92,3.98-7.34,6.91-10.27,2.92-2.92,6.35-5.23,10.27-6.91,3.92-1.68,8.12-2.52,12.6-2.52s8.68,.84,12.6,2.52c3.92,1.68,7.34,3.98,10.27,6.91,2.92,2.93,5.23,6.35,6.91,10.27,1.68,3.92,2.52,8.12,2.52,12.6s-.84,8.68-2.52,12.6c-1.68,3.92-3.98,7.34-6.91,10.27-2.92,2.93-6.35,5.23-10.27,6.91-3.92,1.68-8.12,2.52-12.6,2.52s-8.68-.84-12.6-2.52c-3.92-1.68-7.34-3.98-10.27-6.91-2.93-2.92-5.23-6.35-6.91-10.27-1.68-3.92-2.52-8.12-2.52-12.6s.84-8.68,2.52-12.6Zm76.83-507.45c0-18.39-3.52-32.18-10.55-41.38-7.03-9.19-19.2-13.79-36.51-13.79s-29.48,4.6-36.51,13.79c-7.03,9.2-10.55,22.99-10.55,41.38v165.83l24.34,246.96v-.65c1.08,8.23,3.9,13.85,8.44,16.88,4.54,3.03,9.3,4.54,14.28,4.54s9.68-1.46,14.12-4.38c4.43-2.92,7.19-8.38,8.27-16.39l24.66-246.96v-165.83Z"/></g></g></g></svg>