<?xml version="1.0" encoding="UTF-8"?><svg id="a" xmlns="http://www.w3.org/2000/svg" viewBox="0 0 477.11 474.31"><defs><style>.c{fill:#22a1d4;}.d{fill:#fff;}.e{fill:#1c628b;}.f{fill:#19608a;}.g{fill:#b2c9d8;}.h{fill:#4b82a4;}.i{fill:#fee3d0;}.j{fill:#125b86;}.k{fill:#fdb17d;}.l{fill:#41aeda;}.m{fill:#085481;}.n{fill:#e0f5fc;}.o{fill:#8acde8;}.p{fill:#ceeaf6;}.q{fill:#055280;}</style></defs><path class="n" d="M79.47,97.79C120.65,53.04,167.81-2.62,213.29,.1c45.13,2.59,89.06,63.35,140.84,108.09,52.01,45.21,112.58,74.64,121.62,115.73,9.52,40.88-32.72,92.94-65.69,136.06-33.44,43.32-57.6,77.69-91,96.74-32.92,18.83-75.06,22.35-109.98,11.53-34.79-11.16-62-36.51-86.5-60.49-24.38-24.32-45.69-47.14-70.77-79.43C26.52,295.56-2.89,253.2,.23,215.01c3.12-38.19,38.07-72.48,79.25-117.22Z"/><g><g><g><g><path class="j" d="M108.93,136.45c1.76-3.67-3.29-4.18-4.39-.91-.91,2.7-.08,5.67-.12,8.43,1.26-2.66,3.25-4.89,4.52-7.52Z"/><g><g><g><polygon class="h" points="118.82 316.99 118.66 325.68 125.94 325.27 126.31 315.16 118.82 316.99"/><path class="f" d="M118.32,324.67l-1.49,5.35c-.32,1.16-.27,3.57,.84,4.07,1.46,.65,3.63,.38,5.17,.38,2.2,0,4.39-.01,6.59-.02,2.06,0,4.35,.3,6.4,0,3.17-.44-.19-3.13-1.2-3.89-1.22-.92-2.44-1.84-3.66-2.76-1.61-1.21-3.23-2.43-4.84-3.64,0,0-2.72,1.82-7.8,.51Z"/><path class="m" d="M108.76,210.49s1.5,22.26,1.5,22.29c.29,4.38,.28,8.8,.42,13.18,.28,8.84,1.47,17.63,.94,26.49-.33,5.39,.69,10.71,1.13,16.06,.41,5-.39,9.71-.23,14.68,.2,6.13,.39,12.27,.59,18.41l3.1-.07,7.36-.19,3.43,.47c.2-4.09-.17-9.53,.08-13.62,.52-8.22-.19-16.29-.05-24.52,.08-4.38,1.27-8.75,1.64-13.12,.76-8.85,.39-17.98,.59-26.87,.16-6.88,1.49-15.16,.06-21.85-1.34-6.34-7.08-10.53-13.51-10.86-1.93-.11-4.45-.4-7.07-.47Z"/><polygon class="h" points="93.49 316.99 92.75 325.68 85.51 325.27 86.2 315.16 93.49 316.99"/><path class="f" d="M93.19,324.67l.93,5.35c.2,1.16-.11,3.57-1.26,4.07-1.53,.65-3.68,.38-5.22,.38-2.2,0-4.39-.01-6.58-.02-2.06,0-4.38,.3-6.4,0-3.12-.44,.52-3.13,1.61-3.89,1.31-.92,2.63-1.84,3.95-2.76,1.74-1.21,3.48-2.43,5.22-3.64,0,0,2.53,1.82,7.75,.51Z"/><path class="m" d="M114.72,210.49l-3.83,22.29c-1.73,10.04-3.25,20.06-4.24,30.14-1.18,12.03-4.06,23.61-5.19,35.61-.17,1.79-1.78,23.09-2.74,23.07l-3.09-.07-7.35-.19-3.48,.47c.38-6.67,.34-12.88,1.39-19.43,.46-2.85,.39-5.76,.4-8.72,.02-8.35,1.25-15.96,1.99-24.21,.05-.49,.09-1,.13-1.5,.75-8.08,1.34-16.18,2-24.26,.57-6.88,.1-15.16,2.24-21.85,2.01-6.34,8.18-10.53,14.64-10.86,1.94-.11,4.49-.4,7.13-.47Z"/><path class="k" d="M116.61,174.38c1.37-1.1,2.82-2.01,4.34-2.95,1.16-.72,2.38-1.34,3.56-2.03,1.25-.71,3.33-1.36,4.1-2.7,2.03-3.51-3.81-4.58-5.77-5.08-1.42-1.88-3.14-5.72-1.96-12.78l-12.64,3.93-.95,8.47c-2.33,.53-6.58,.69-8.1,2.93-1.87,2.75,3.91,6.78,5.52,8.39,1.46,1.44,2.99,3.4,4.75,4.49,2.24,1.38,5.04-.93,6.77-2.39,.12-.1,.24-.2,.37-.3Z"/><g><path class="k" d="M104.4,146.42c.03,1.99,.29,4.37,1.45,6.05,1.51,2.19,3.16,2.9,5.86,2.62,2.9-.3,5.58-1.98,7.66-4.1,1.98-2.02,3.51-4.48,4.42-7.12,.85-2.45,1.17-5.19,.16-7.48-1.52-3.47-6.3-5.8-9.82-6.41-4.02-.7-6.15,.99-7.55,4.51-1.1,2.77-1.91,5.84-2.1,8.9-.06,.92-.11,1.97-.09,3.05Z"/><path class="j" d="M110.71,155.39c-.94,0-1.73-.16-2.3-.33-.11-.03-.17-.15-.14-.25,.03-.11,.14-.17,.25-.14,1.54,.46,4.68,.81,8.41-2.02,.09-.07,.22-.05,.29,.04,.07,.09,.05,.22-.04,.28-2.5,1.89-4.76,2.41-6.48,2.41Z"/><g><path class="j" d="M112.95,142.25c.09,.03,.18,.05,.27,.04,.83-.06,1.49,.4,1.49,.41,.28,.2,.68,.13,.9-.16,.22-.29,.17-.69-.1-.9-.04-.03-1.01-.73-2.31-.64-.35,.02-.63,.33-.63,.69,0,.25,.16,.46,.38,.55Z"/><path class="j" d="M108.15,141.7c-.09,.01-.18,0-.27-.02-.79-.24-1.56,.06-1.57,.07-.34,.13-.7-.02-.82-.35-.11-.33,.06-.71,.39-.84,.05-.01,1.21-.48,2.44-.11,.33,.11,.5,.46,.39,.8-.09,.24-.31,.42-.55,.45Z"/><path class="j" d="M109.2,147.85c-1.31,0-1.65-.18-1.71-.21-.05-.03-.08-.08-.09-.14-.24-1.37,1.49-4.75,1.56-4.9,.05-.1,.17-.14,.27-.09,.1,.05,.14,.17,.09,.27-.47,.91-1.62,3.43-1.53,4.53,.15,.04,.54,.12,1.41,.12,.11,0,.2,.09,.2,.2s-.09,.2-.2,.2Z"/></g><path class="j" d="M119.18,145.38s-.07-.01-.11-.03c-.1-.06-.13-.18-.07-.28,.17-.27,1.02-1.62,1.68-1.65h0c.11,0,.2,.09,.2,.2,0,.11-.08,.21-.2,.21-.32,.01-.99,.87-1.34,1.45-.04,.06-.11,.1-.17,.1Z"/><path class="j" d="M119.9,144.79c-.1,0-.18-.07-.2-.17-.02-.11,.06-.22,.17-.23l.62-.1c.11-.02,.21,.06,.23,.17,.02,.11-.06,.22-.17,.23l-.62,.1s-.02,0-.03,0Z"/><path class="j" d="M118.35,134.64c-1.37,1.33-.68,3.01-.63,4.53,.04,1.58-.34,2.93-.71,4.47,.18-.44,.36-.55,.63-.92-.11,.27-.14,.53-.3,.8,1.23-1.18,4.65-3.62,4.52-.39-.09,2.14-2.64,3.92-2.14,5.91,.2-.42,.4-.75,.55-1.17-.13,.67-.26,1.33-.39,2-.04,.09,.21-.42,.27-.58-.24,1.22-.72,2.48-.07,3.55,.11-.59,.23-1.18,.34-1.77,.04,.53,.01,.97-.14,1.49,2.01-5.23,6.62-10.19,5.82-16.12-.34-2.47-2.4-4.11-4.7-4.37-3.55-.4-3.47,2.49-3.85,5l.8-2.43Z"/></g><path class="d" d="M126.74,229.69c-1.68,1.38-3.74,2.25-6.19,2.35-7.28,.29-21.03,1.42-26.64-3.99-3.25-3.14-3.06-8.23-2.61-12.58,.87-8.37,.13-17.11,.26-25.38,.07-4.85,.03-9.7,.61-14.55,.42-3.54,.35-8,3.42-10.64,2.76-2.38,6.94-2.74,10.29-3.58l7.83,3.02s9.85-3.19,9.89-3.24c.81-.88,6.14,2.32,6.97,2.72,3.97,1.91,4.18,6.74,4.11,10.7-.1,5.7,.08,11.33-.49,17.01-.28,2.75-.84,5.14-.8,7.88,.07,4.25-.5,8.53-.32,12.75,.24,5.84-1.6,13.66-6.32,17.52Z"/></g><path class="d" d="M91.45,200.01c-.08,0-.15-.06-.16-.14-.81-11.14,1.34-27.83,1.36-27.99,0-.09,.08-.14,.17-.14,.09,.01,.15,.09,.13,.18-.02,.17-2.17,16.82-1.36,27.93,0,.09-.06,.16-.14,.17h-.01Z"/></g><g id="b"><path class="m" d="M111.36,167.61c-.3-.32-.26-.84,.07-1.14l1.14-1.06c.34-.31,.85-.3,1.14,.01l1,1.09c.3,.32,.26,.83-.07,1.14l-1.14,1.06c-.33,.31-.85,.3-1.14-.01l-1-1.08Z"/><path class="m" d="M113.86,167.51h-1.95c-.32,2.2-.86,4.47-.97,6.69-.16,3.03-1.96,5.72-1.81,8.83,.11,2.4-.13,4.39-.48,6.75-.05,.36-.75,3.04-.48,3.3l3.27,3.21,3.5-3.22c-.1-2.31,.09-4.86-.39-7.08-.77-3.61-.67-6.73-.36-10.41,.04-.46-.32-8.07-.34-8.07Z"/></g><path class="m" d="M108.34,163.87c-.41-.5-.61-1.19-1.08-1.64-.42-.4-.95-.52-1.38-.91,0,0,1.13-1.48,1.24-1.64,.04-.07,2.41,3.27,2.68,3.63,.81,1.08,2.15,1.73,2.89,2.82-1.31,.33-3.55-1.31-4.34-2.27Z"/><path class="m" d="M113.8,166.12c1.57-1.64,3.85-2.27,5.44-3.91,.67-.7,1.37-2.85,2.48-2.78,.19,.46,.92,1.21,.91,1.7-.03,1.25-2.15,2.35-3.1,2.84-.53,.27-5.58,2.68-5.47,3.08-.03-.11-.31-.88-.25-.93Z"/><g><path class="p" d="M134.96,226.63c.09,3.74,.08,7.49-.12,11.38-.31,5.82-.17,10.93,.72,16.59,.81,5.13,.05,10.01,.52,15.15,.16,1.73,.92,2.86,.52,4.72-1.99,.16-3.82-.6-5.82-.43-1.88,.16-3.62,.66-5.58,.68-.59,0-9.13,.05-9.13,0,0,0,.82-59.41,.82-59.44l.55-39.62c.01-.68,.69-1.76,.94-2.39,.69-1.76,1.38-3.52,2.07-5.27,1.01-2.57,1.82-5.42,3.12-7.86,1.44,.75,3.47,1.17,5.08,1.57,1.24,.31,2.62,.48,3.79,.96,2.77,1.1,4.97,3.56,6.01,6.35,1.49,3.97,.87,8.47,.64,12.93-.37,7.03-1.37,14.11-2.65,21.07-.98,5.3-2,11.91-1.73,17.28,.1,2.13,.19,4.23,.25,6.34Z"/><path class="p" d="M121.45,175.96l3.75,3.13-8.32,36.18,.55-39.62,6.08-15.45s.06,.01,.09,.01l2.8,13.87-4.95,1.89Z"/></g><g><path class="p" d="M87.72,226.28c-.89,7.66-2.13,15.31-3.04,22.94-.67,5.58-1.51,11.14-2.37,16.71-.3,1.93-.09,7.6-1.63,9.12,1.07-1.06,19.36,1.05,19.49-.34,0,0,5.03-59.41,5.03-59.44l3.34-39.62c.06-.68-.4-1.76-.55-2.39-.41-1.76-.81-3.52-1.22-5.27-.59-2.57-1-5.42-1.84-7.86-1.26,.75-3,1.17-4.37,1.57-1.06,.31-2.22,.48-3.25,.96-2.41,1.1-4.48,3.56-5.61,6.35-1.62,3.97-1.54,8.47-1.77,12.93-.53,10.03-.81,20-1.08,30.02-.13,4.79-.56,9.56-1.11,14.33Z"/><path class="p" d="M105.17,175.96l-3.43,3.13,3.45,36.18,3.34-39.62-3.57-15.45s-.05,.01-.08,.01l-3.65,13.87,3.94,1.89Z"/></g></g><path class="j" d="M123.53,132.57c-.05-2.82-2.35-6.44-5.54-4.75-.47-3.34-8.43-2.68-7.32-.3-2.77-.3-5.71,1.58-5.87,4.57-.1,1.91,1.35,2.75,2.92,1.81,.13,1.29,3.43,.57,4.13-.1,.26,2.01,4.5,1.98,6.4,1.42,.51,.62,1.41,1.11,2.02,1.36,.37,.15,2.09,.58,2.47,.19,.29,.35,1.34,.22,1.79,.02,.76-.33,1.25-1.63,.26-1.27,2-.39,.46-4.61-1.27-2.96Z"/></g><path class="j" d="M113.19,143.53c.37,.26,.86,.19,1.28,.17,.14,0-.12,.58-.17,.63-.16,.15-.4,.19-.61,.17-.56-.05-.63-.55-.5-.97Z"/><path class="j" d="M106.34,143c.38,.24,.87,.14,1.29,.09,.14-.02-.08,.59-.13,.64-.15,.16-.39,.22-.6,.21-.56-.02-.66-.51-.56-.94Z"/><path class="j" d="M109.92,150.61c-1.51,0-2.51-.82-2.53-.83-.11-.09-.12-.25-.03-.36,.09-.11,.25-.12,.36-.03,.07,.06,1.82,1.47,4.2,.17,.12-.07,.28-.02,.35,.1,.07,.12,.02,.28-.1,.35-.82,.45-1.58,.61-2.24,.61Z"/></g><g><path class="k" d="M148.33,234.94c-.17-1.17-.53-5.58-1.48-6.23-.59-.4-4.78,.11-4.8,.33-.1,1.43-.15,2.43-.68,3.77-.46,1.17-.95,2.37-1.03,3.64-.15,2.12,.47,4.72-.71,6.63,1.16,0,1.46-1,1.84-1.89,1.32-3.15,1.56,.24,1.39,1.81-.15,1.47-.89,4.6,.34,5.81,.39-.57,1.01-1.3,1.29-1.99-.05,.47,.05,.96,.02,1.41,1.11-.14,1.56-1.16,2.02-2.19,0,.37,.09,.84,.05,1.18,2.52-2.64,2.27-8.82,1.76-12.28Z"/><path class="p" d="M147.17,212c-.54-11-.47-21.69-3.65-32.3-1.31-4.35-2.48-14.72-8.23-15.57-4.37-.64-7.57,5.1-7.3,8.81,.89,12.27,7.2,23.68,8.41,35.98,.37,3.82,.35,7.77,.73,11.6,.37,3.78,.24,8.92,1.38,12.45,1.88,.3,4.1,.52,6.11,.3,1.18-.13,2.36-.55,3.55-.56-.35-6.85-.65-13.8-.98-20.72Z"/></g><path class="p" d="M98.99,162.37s-8.03,.51-14.18,11.62c0,0-10.59,24.43-10.25,30.75,0,0,8.54,.17,11.62-1.88l10.76-31.26,2.74-9.74-.69,.51Z"/><g><path class="d" d="M117.09,213.66s-.04,0-.07,0c-.15-.04-.25-.19-.21-.35l8.07-34.09-3.78-2.56c-.09-.06-.13-.16-.13-.26,0-.1,.07-.19,.17-.24l4.93-2.25-2.22-11.09c-.03-.16,.07-.31,.23-.34,.15-.03,.31,.07,.34,.23l2.26,11.32c.03,.13-.04,.26-.16,.32l-4.67,2.13,3.52,2.38c.1,.07,.15,.19,.12,.3l-8.11,34.28c-.03,.13-.15,.22-.28,.22Z"/><path class="d" d="M104.87,212.23c-.15,0-.27-.11-.29-.26l-3.13-32.85c0-.09,.03-.18,.09-.24l3.11-2.84-3.55-1.7c-.12-.06-.19-.2-.15-.33l3.21-12.47c.04-.15,.2-.25,.35-.21,.15,.04,.25,.2,.21,.35l-3.15,12.24,3.73,1.79c.09,.04,.15,.12,.16,.22,.01,.09-.02,.19-.09,.25l-3.32,3.03,3.12,32.7c.01,.16-.1,.3-.26,.31h-.03Z"/></g><polygon class="m" points="92.93 174.59 100.11 205.34 122.65 205.08 115.74 174.08 92.93 174.59"/><path class="k" d="M101.17,185.96c-.32,.42-.7,.71-.81,1.3,.16-1.53,.4-2.98,.31-4.54-.59,.15-1.04,.71-1.35,1.28,.35-.84,1.1-2.36,.36-3.03-1.44,1.34-2.33,6.19-4.93,5.97-.06-1.25,.51-3.78-.85-4.4,.08,1.61-.83,3.53-1.19,5.1-.23,1.01-.91,2.12-1.34,3.23-.48,.84-.99,1.63-1.88,2.44,.59,.92,1.52,1.44,2.2,2.26,.57,.7,.78,1.49,1.6,2.05,.32,.23,2.98-2.32,4.95-4.3,.38-.23,.74-.47,1.06-.75,1.62-1.41,2.77-4.57,1.88-6.61Z"/><path class="p" d="M74.56,204.74s9.74-6.49,15.89-13.67c0,0,.51,3.25,4.95,6.49,0,0-15.03,21.01-20.84,7.18Z"/><path class="d" d="M87.89,206.31c-.08,0-.16-.03-.22-.1-.1-.12-.09-.3,.02-.41,.65-.58,1.33-1.14,2.01-1.71,1.8-1.5,3.65-3.06,5.13-4.91,.1-.12,.28-.14,.4-.05,.12,.1,.14,.28,.05,.4-1.51,1.9-3.39,3.48-5.21,5-.67,.56-1.35,1.13-2,1.7-.05,.05-.12,.07-.19,.07Z"/></g><path class="d" d="M77.69,201.87s-.09-.01-.14-.04c-.14-.08-.19-.25-.11-.39,2.6-4.76,12.35-10.24,12.77-10.47,.13-.08,.32-.03,.39,.11,.08,.14,.03,.31-.11,.39-.1,.06-10.02,5.62-12.54,10.24-.05,.1-.15,.15-.25,.15Z"/><path class="d" d="M136.12,206.14c-.21,0-.38-.16-.38-.37,0-.17-.59-16.69-2.28-21.94-.07-.2,.04-.42,.25-.48,.21-.06,.42,.05,.48,.25,1.72,5.36,2.3,21.47,2.32,22.15,0,.21-.16,.39-.37,.4h-.01Z"/><path class="d" d="M88.62,192.24s-.07,0-.1-.02c-.15-.06-.22-.22-.17-.37l3.89-10.35c.05-.15,.22-.23,.37-.17,.15,.06,.22,.22,.17,.37l-3.89,10.35c-.04,.12-.15,.19-.27,.19Z"/></g><g><g><g><polygon class="o" points="244.35 302.96 223.53 302.96 227.8 254.13 248.63 254.13 244.35 302.96"/><path class="l" d="M239.39,277.55l4-45.73c.36-4.11,3.98-7.44,8.09-7.44h29.74c4.11,0,7.15,3.33,6.79,7.44l-4,45.73h-44.62Z"/><path class="l" d="M285.49,277.55l4-45.73c.36-4.11,4.68-7.44,9.64-7.44h35.94c4.96,0,8.69,3.33,8.33,7.44l-4,45.73h-53.91Z"/><polygon class="c" points="336.46 306.93 282.93 306.93 285.69 275.32 339.23 275.32 336.46 306.93"/><path class="c" d="M223.43,306.93l1.8-20.57c.54-6.16,5.97-11.16,12.13-11.16h46.85l-2.78,31.73h-58.01Z"/><path class="m" d="M218.42,333.45l6.91-78.95c.07-.82,.74-1.49,1.48-1.49s1.29,.67,1.22,1.49l-6.91,78.95h-2.7Z"/><polygon class="o" points="375.73 302.96 396.55 302.96 400.82 254.13 380 254.13 375.73 302.96"/><path class="l" d="M385.14,277.55l4-45.73c.36-4.11-2.68-7.44-6.79-7.44h-29.74c-4.11,0-7.73,3.33-8.09,7.44l-4,45.73h44.62Z"/><path class="c" d="M395.95,306.93l1.8-20.57c.54-6.16-4.02-11.16-10.18-11.16h-46.85l-2.78,31.73h58Z"/><path class="m" d="M396.33,333.45l6.91-78.95c.07-.82-.47-1.49-1.22-1.49s-1.41,.67-1.48,1.49l-6.91,78.95h2.7Z"/><path class="m" d="M278.4,333.45l6.91-78.95c.07-.82,.73-1.49,1.48-1.49s1.29,.67,1.22,1.49l-6.91,78.95h-2.7Z"/><path class="m" d="M333.8,333.45l6.91-78.95c.07-.82,.73-1.49,1.48-1.49s1.29,.67,1.22,1.49l-6.91,78.95h-2.69Z"/></g><g><g><g><g><path class="h" d="M234.21,321.14c-2.22,.65-4.49,1.38-6.75,1.16-2.11-.21-2.49,.49-3.98,1.94-2.22,2.15-5.14,2.59-7.78,3.89-3.18,1.57-2.13,5.18,.72,5.76,3.63,.74,7.45-.79,11.12-1.21,4.42-.5,11.77-1.77,10.34-8.21-.21-.95-.75-1.85-1.33-2.55-.81-.97-1.17-1.11-2.33-.78Z"/><path class="g" d="M226.2,318.45s-.01,3.12-.75,5.64c0,0,7.36,2.17,10.47-1.65l.54-8.16-10.25,4.17Z"/></g><g><path class="h" d="M260.46,323.22c-2.13,.95-4.3,1.98-6.6,2.08-2.14,.09-2.42,.82-3.72,2.45-1.92,2.41-4.79,3.25-7.25,4.89-2.96,1.98-1.4,5.37,1.54,5.53,3.74,.21,7.35-1.82,10.97-2.74,4.36-1.11,11.56-3.39,9.2-9.48-.35-.89-1.02-1.71-1.7-2.3-.95-.84-1.33-.92-2.44-.43Z"/><path class="g" d="M252.06,321.71s.43,3.06,.04,5.62c0,0,7.68,1.09,10.26-3.08l-.61-8.05-9.69,5.51Z"/></g><path class="h" d="M251.92,265.52c-2.84-.79-6.75-.43-9.78-.33-4.01,.13-8.15,.53-12.09,1.76-3.13,.98-6.61,2.61-8.22,5.72-1.9,3.65-1.61,8.8-1.35,12.59,.18,2.64,.7,5.23,.88,7.83,.25,3.48,.47,6.88,.95,10.33,.28,2.03,.53,3.65,.53,5.77,0,2.15,1.02,3.99,1.05,6.15,.02,1.96,.34,3.87,.29,5.74,1.88-.61,2.98,.43,4.81,.38,1.59-.04,3.28-.07,4.86-.53,1.43-.42,2.63-1.54,4.07-.76,.2-3.86,0-7.74-.15-11.57-.12-2.82,.24-5.6-.12-8.45-.42-3.35-1.09-6.69-.55-10.16,.16-1.02,1.75-7.44,.39-7.88,.02,0,16.33,5.23,24.22,1.63,7.9-3.61-5.9-17.15-9.77-18.23Z"/><path class="h" d="M253.94,272.02l2-17.32,21.06-1.44,3.94,20.93s-18.84,6.26-27-2.16Z"/><path class="g" d="M243.46,226.78c.4,4.74,.79,9.49,1.19,14.23,.5,5.98,2.82,14.44-.69,20.18-1.14,1.87-6.59,2.97-4.59,4.75,1.25,1.11,4.14-.07,5.53-.47,4.63-1.36,4.91,2.8,9.15,2.7,1.85-.04,3.58-1.31,5.42-1.45,2.4-.18,3.16,.98,4.85,2.22,1.77,1.31,2.88,1.85,5.15,1.87,2.35,.03,5.25-.93,7.08,.77,1.36,1.25,1.63,4.42,4.3,4.19,2.99-.26,2.12-5.69,2.25-7.44,.22-2.93,1.51-5.78,1.83-8.77,.95-8.94,2.39-17.91,2.61-26.85,.14-5.96,.4-13.22-4.33-17.31-3.04-2.62-8.32-3.75-12.06-5.23-.41-.16-1.85,1.18-2.22,1.45-.68,.51-1.47,.84-2.26,1.07-1.63,.48-3.22,.53-4.77,.07-1.32-.38-1.91-1.48-3.11-1.94-1.11-.44-2.82,.08-3.99,.3-7.83,1.48-11.6,8.26-11.34,15.66Z"/><path class="h" d="M278.27,268.89c-5.39-1.68-12.74-1.25-18.43-.98-4.38,.2-9.07,.66-13.26,2.46-8.95,3.84-6.29,12.08-4.92,19.09,.91,4.69,1.76,9.45,2.93,14.07,.43,1.68,.4,3.37,.83,5.04,.94,3.67,2.74,7.11,3.63,10.73,.38,1.58,.39,3.11,.85,4.67,2.41-.96,3.87,.19,6.29-.15,1.09-.15,2.12-.94,3.16-1.1,1.36-.2,3.47,.54,4.54-.73,1.05-1.25,.1-3.74-.14-5.03-.63-3.43-1.56-7.14-1.48-10.68,.07-2.86-1.2-5.12-1.37-7.93-.18-3-1.52-5.64-1.8-8.56-.18-1.92-.36-3.84-.7-5.76,.18,1.03,8.2,1.37,9.06,1.41,5.01,.21,12.36-.56,14.87-6.17,1.87-4.17,0-9.13-4.08-10.4Z"/><path class="d" d="M244.03,302.33c-.16,0-.3-.1-.35-.26-5.73-20.65-3.63-25.33-3.54-25.52,1.7-6.94,11.93-8.44,12.37-8.5,.19-.03,.38,.11,.41,.31,.03,.2-.11,.38-.31,.41-.1,.01-10.19,1.49-11.79,8.03-.04,.11-2.05,4.87,3.56,25.08,.05,.19-.06,.39-.25,.44-.03,0-.06,.01-.1,.01Z"/><g><path class="e" d="M251.91,198c-.17,.79,.18,1.35,.42,2.04,.25,.73,.2,1.36,.2,2.14,.08-.11,.31-.3,.41-.45-.06,.35,.05,.68,.35,.86,.03,.39,.09,.76,.19,1.14,.06-.07,.27-.21,.33-.27,.28,.65,.84,.58,1.4,.94,.39,.25,1.1,1.34,1.68,1.37,1.55,.08,.87-3.95,.78-4.75-.17-1.63-.73-2.75-2.46-3.58-1.33-.65-3.46-1.22-3.32,.75l.02-.19Z"/><g><path class="e" d="M273.01,196.73c-.07,1.02-.98,2-1.36,2.96-.41,1.04-.47,2.12-.64,3.21-.23-.29-.25-.76-.3-1.16-.17,.4-.27,.83-.38,1.24-.05-.21-.13-.44-.09-.73,.04,.35-.18,.97-.6,.76-.27-.14-.19-1.06-.22-1.31-.11-1.19-.15-2.82,.47-3.96,.46-.85,1.36-1.61,2.33-1.69,1.62-.14,.4,.78,.29,1.52l.5-.85Z"/><path class="e" d="M254.3,185.14c-2.61,1.19-2.57,3.26-2.54,5.76,.03,2.64-.82,4.98-1.01,7.56,.19-.51,.52-.95,.78-1.42-.02,.77,0,1.56,.14,2.27,.07-.4,.23-.71,.34-1.09,.15,.71,.11,1.62,.58,2.13,.16-.23,.31-.53,.4-.78,.05,.06,.16,.4,.18,.41,.69-1.59,.49-3.8,.65-5.5,.16-1.67,.66-3.06,1.25-4.64,.35-.93,1.24-2.73,1-3.69-.21-.86-1.47-1.81-2.14-.67l.37-.34Z"/><path class="k" d="M252.42,195.27c0,2.77,.6,5.49,1.57,8,1.45,3.81,4.78,6.36,9.03,4.25,3.84-1.9,7.02-5.93,8.47-9.85,2.48-6.67,3.32-16.03-4.56-17.9-3.77-.9-8.25-.29-11.22,2.85-2.8,2.95-2.64,6.61-3.12,10.2-.11,.81-.16,1.63-.16,2.44Z"/><path class="k" d="M259.35,204.89c-.35,2.11-.96,4.11-1.6,6.17-.74,2.37,2.86,2.77,4.63,2.92,2.2,.19,6.27-.18,7.95-2.03,.82-.89,.57-2.12,.35-3.1-.23-1.02-.32-2.02-.33-3.1,0-2.35,.24-4.71,.37-7.06,.1-1.91-1.5-1.09-2.49-.27-.54,.44-.95,.98-1.45,1.47-.8,.79-1.87,1.48-2.83,2.09-1.54,.97-3.07,1.95-4.61,2.92Z"/><path class="e" d="M275.48,188.36c-.04-2.84-1.28-4.37-4.29-3.97-2.71,.36-3.8,3.53-3.6,5.88,.19,2.21,1.37,4.37,.91,6.66,.12-.06,.13-.2,.2-.27-.02,.12,.01,.17,.12,.15,.75-1.11,1.09-2.64,2.75-2.16,.5,2.63-1.15,4.98,.04,7.7,.03-.52,.13-1.06,.12-1.58,.03,.48,.27,.82,.4,1.25,.29-.76,.19-1.55,.59-2.27,.05,.4,.2,.83,.18,1.28,.02-2.33,1-3.89,1.7-6.06,.66-2.06,.92-4.45,.89-6.6Z"/><path class="e" d="M273.58,185.31c1.57-1.9,.44-5.85-1.06-7.25-1.71-1.59-5.11-2.43-7.54-2.25,.41,.28,.73,.63,1.18,.87-1.01,.07-1.99-.11-2.91-.36,.37,.17,.7,.31,1.08,.45-3.38-2.02-8.28,1.92-11.77,.06,.35,.91,1.15,1.58,1.7,2.36-.77,.13-1.6,.03-2.23-.33,.69,.37,1.3,.83,2.05,1.07-1.1,.31-2.22,.01-3.16-.36,1.14,2.96,4.79,5.51,8.23,3.69-1.23,.37-2.5,.49-3.69,.86,1.3,.54,2.66,.5,4.1,.51-.83,0-1.71,.11-2.47,.34,1.62,.88,4.38,.34,6.27,.34-.65-.06-1.32,0-1.96,.2,1.2,.97,3.64-.07,5.2,.16,.09,.78,.82,1.08,1.61,.95,.07-.06,.06-.07-.01-.02-.72,1.19-.47,3.4,.5,4.3,1.71,1.55,1.64-1.22,2.44-2.72,.08,.44,.19,1.18,.4,1.69,.44-.63,.62-.65,1.17-.68,.37-1.84,1.74-3.49,1.69-5.4l-.81,1.52Z"/><path class="e" d="M251.15,190.17c-.17-1.94,.3-3.79,1.01-5.66-.15,1.11-.55,2.64-1.01,3.62,.52-1.11,.33-2.48,.95-3.65,.52-.98,1.25-1.74,2.24-2.25,2.18-1.12,6.17-1.51,7.82,.25,2.52,2.68-4.68,2.82-5.82,3.03-2.59,.47-5.14,1.7-5.19,4.67Z"/><path class="e" d="M268.49,185.48c-1.13,1.63-5.34,.83-7.14,1.68,.65-.4,1.37-.77,1.98-1.17-1.71,.26-3.42,1.15-5.15,1.2,.74-.48,1.48-.95,2.25-1.37-.86,.39-2.69,1.08-3.36,.5,1.6-3.21,6.73-3.44,9.75-3.04l1.67,2.2Z"/><path class="k" d="M272.17,196.59c-.26,1.77-1.27,3.16-2.24,3.1-.98-.06-1.55-1.55-1.29-3.32,.27-1.77,1.27-3.16,2.24-3.1,.97,.06,1.55,1.55,1.28,3.32Z"/><path class="e" d="M261.96,192.7c-.11,0-.22-.05-.29-.14-.12-.16-.09-.38,.06-.5,.08-.06,1.94-1.46,5.76-.15,.19,.06,.29,.27,.22,.46-.06,.19-.26,.29-.46,.22-3.42-1.17-5.07,.02-5.09,.03-.06,.05-.14,.07-.22,.07Z"/><path class="e" d="M252.75,192.82c-.11,0-.22-.05-.29-.14-.12-.16-.09-.38,.06-.5,.08-.06,1.94-1.46,5.76-.15,.19,.06,.29,.27,.22,.46-.06,.19-.26,.29-.46,.22-3.42-1.17-5.07,.02-5.08,.04-.06,.05-.14,.07-.22,.07Z"/><path class="e" d="M259.14,200.84c-.46,0-.81-.14-1.05-.41-.6-.69-.28-1.99,.07-3.37,.27-1.09,.58-2.32,.25-2.81-.11-.17-.06-.39,.1-.5,.16-.11,.39-.07,.5,.1,.5,.76,.19,2.03-.15,3.38-.27,1.09-.58,2.32-.23,2.72,.13,.14,.37,.19,.74,.15,.2-.03,.38,.12,.4,.32,.02,.2-.12,.38-.32,.4-.11,.01-.21,.02-.31,.02Z"/><path class="e" d="M260.36,203.58c-1.22,0-2.01-.52-2.06-.56-.16-.11-.21-.33-.1-.5,.11-.16,.33-.21,.5-.1,.08,.05,1.96,1.26,4.42-.62,.16-.12,.39-.09,.51,.07,.12,.16,.09,.38-.07,.51-1.21,.93-2.31,1.2-3.19,1.2Z"/><path class="e" d="M264.98,195.38c.02-.09,.04-.19,.05-.29,.1-.75-.11-1.37-.48-1.39-.36-.02-.74,.58-.84,1.33-.01,.1-.02,.19-.02,.28,.32-.04,.76-.04,1.29,.07Z"/><path class="e" d="M256.33,195.38c0-.09,0-.19-.02-.29-.09-.74-.46-1.27-.82-1.2-.37,.08-.59,.73-.5,1.47,.01,.09,.03,.19,.05,.28,.31-.12,.74-.22,1.29-.26Z"/></g><path class="p" d="M252.55,197.49s5.11-1.72,6.63-1.54l9.52-.57s-2.09,4.94,2,4.57l.02,1.14s-7.06,11.55-14.23,5.86c0,0-2.85-1.44-3.96-9.47Z"/><g><path class="e" d="M269.91,197.61h-.02c-.1-.01-.17-.1-.16-.2v-.08c.05-.52,.16-1.89,.76-2.34,.18-.14,.39-.19,.62-.14,.1,.02,.16,.11,.14,.21-.02,.1-.12,.16-.21,.14-.12-.02-.23,0-.34,.07-.47,.36-.58,1.66-.61,2.09v.09c-.02,.09-.09,.17-.19,.17Z"/><path class="e" d="M270.03,196.82c-.07,0-.14-.04-.17-.12-.04-.09,.01-.2,.1-.23l.93-.36c.09-.03,.2,.01,.23,.1,.04,.09-.01,.2-.1,.23l-.93,.36s-.04,.01-.06,.01Z"/></g><path class="e" d="M253.72,182.06c-1.74,.21-2.98,2.65-3.16,4.13-.23,1.91-.29,3.7-.84,5.54,.12-.18,.51-.77,.8-1.07-.02,.87-.18,1.67-.66,2.47,.19-.33,.39-.65,.69-.77,0,.47-.08,.96-.18,1.4,.28-.25,.51-.57,.78-.78,.13,.44-.01,1.01-.02,1.5,.08-.08,.19-.17,.25-.23-.05,.41-.05,.85,.02,1.25,.99-1.15,.89-4.21,1.02-5.68,.1-1.16,.08-2.42,.49-3.52,.39-1.07,1.06-2.09,1.44-3.14-.11,0-.23-.03-.33-.03-.02-.36,.03-.75,.22-1.07-.18-.09-.44-.12-.67-.07-.03,.09-.01,.17-.04,.26l.2-.18Z"/></g></g><g><g><path class="e" d="M252.44,260.4s-1.33,5.26,4.24,8.56l6.13-5.37-10.32-3.17-.05-.02Z"/><g><path class="k" d="M257.98,264.2c-.32-1.27-1.2-3.04-2.64-3.23-1.74-.23-3.79,.97-5.4,1.61-1.86,.74-3.76,1.64-5.34,2.94-.75,.62-1.43,1.3-2.01,2.08-.89,1.18-1.19,2.73-1.69,4.06-.08,.21-.15,.42-.23,.62-.13,.35-.23,.71-.24,1.05-.05,.32-.09,.64-.07,.97,.03,.62,.47,.76,1.02,.44,.12-.07,.21-.15,.29-.25-.12,.28-.24,.56-.35,.85-.24,.66-.81,1.86,.31,1.78,.83-.06,1.52-.98,1.97-1.81-.43,.91-.95,2.23-.17,2.4,1.03,.22,2.23-2.52,2.61-3.18-.12,.2-.08,1.19-.16,1.51-.16,.61-.08,1.17,.69,.78,.51-.26,.86-.94,1.09-1.42,.54-1.12,.7-2.35,1.23-3.46,2.8-.61,5.76-1.86,7.66-4.28,1.01-1.28,1.77-2.07,1.42-3.45Z"/><path class="e" d="M241.94,274.09s-.02,0-.03,0c-.1-.01-.17-.11-.15-.2,.04-.24,.92-5.8,4.93-7.53,.09-.04,.2,0,.24,.09,.04,.09,0,.2-.09,.24-3.83,1.65-4.7,7.2-4.71,7.25-.01,.09-.09,.15-.18,.15Z"/><path class="e" d="M243.76,274.77s-.03,0-.04,0c-.1-.02-.16-.12-.14-.21,.04-.2,1.14-4.97,4.09-6.53,.09-.05,.2-.01,.24,.08,.05,.09,.01,.2-.07,.24-2.81,1.48-3.9,6.24-3.91,6.29-.02,.08-.09,.14-.18,.14Z"/><path class="e" d="M246.05,274.7s-.04,0-.06-.01c-.09-.03-.14-.14-.11-.23,.1-.28,.2-.55,.3-.83,.21-.59,.42-1.2,.67-1.78,.5-1.22,1.16-1.68,2.17-2.38l.14-.09c.08-.06,.19-.04,.25,.04,.06,.08,.04,.2-.04,.25l-.13,.09c-.99,.69-1.58,1.1-2.04,2.22-.24,.58-.45,1.18-.66,1.77-.1,.28-.2,.56-.3,.84-.03,.07-.1,.12-.17,.12Z"/></g><path class="g" d="M273.86,230.32c-.23,4.59,.41,9.46-.02,13.05-.39,3.12,.04,8.73-2.58,10.49-1.77,1.19-4.77,1.66-6.75,2.35-4.02,1.4-8.04,2.8-12.06,4.2,0,0,6.25,1.46,4.24,8.56,0,0,22.47-2.63,26.4-8.19,2.99-4.24,3.18-12.4,3.91-17.31,.57-3.86,.82-7.84,.84-11.68,.03-5.59-.75-16-9.06-12.57-3.87,1.59-4.75,7.81-4.92,11.11Z"/></g><path class="d" d="M252.81,260.56c-.11,0-.22-.07-.26-.18-.05-.14,.03-.3,.17-.34l16.17-5.43s3.64-1.15,3.75-3.11l1.24-18.12c.01-.15,.13-.28,.29-.25,.15,0,.26,.14,.25,.29l-1.24,18.12c-.13,2.32-3.96,3.54-4.13,3.59l-16.17,5.42s-.06,.01-.09,.01Z"/><path class="d" d="M256.68,269.23c-.13,0-.25-.1-.27-.24-.02-.15,.09-.28,.24-.3,7.68-.94,13.79-2.25,19.22-4.14l.61-.21c2.21-.76,4.72-1.61,6.24-3.52,1.96-2.45,2.49-6.37,2.84-8.95,.18-1.3,.38-2.59,.59-3.88,.34-2.12,.68-4.31,.9-6.47,.15-1.44,.16-2.93,.18-4.36,.02-1.56,.04-3.18,.22-4.76,.02-.15,.15-.26,.3-.24,.15,.02,.25,.15,.24,.3-.18,1.55-.2,3.15-.22,4.7-.02,1.44-.04,2.94-.18,4.41-.22,2.17-.57,4.37-.9,6.5-.2,1.29-.41,2.58-.59,3.87-.36,2.65-.91,6.65-2.96,9.22-1.62,2.03-4.21,2.91-6.49,3.69l-.6,.21c-5.46,1.9-11.61,3.22-19.33,4.16h-.03Z"/></g></g><g><path class="k" d="M236.64,271.02c-.08,.77-.49,2.45,.24,2.96,1.35,.94,1.83-1.8,2.41-2.4-.37,.37,.64,2.22,1.5,.92,.86-1.31,1.09-3.29,1.55-4.74,.64-1.95-.75-2.41-1.64-3.7-1.16-1.69-2.06-3.91-4.21-3.51-2.62,.49-5.61,2.08-5.75,4.97-.06,1.34,.1,2.34,.75,3.49,.81,1.42,1.08,1.19,.81,3.14-.11,.77-.67,3.34,.84,2.97,.97-.24,1.12-2.77,1.22-3.52,.01,.61-.3,3.05,.85,2.91,.86-.1,1.32-2.85,1.41-3.51Z"/><path class="g" d="M249.19,213.55c-4.65,4.12-9.13,8.47-13.43,12.95-5.59,5.84-14.36,12.89-12.75,21.48,1.2,6.39,4.87,12.58,7.35,18.51l10.71-4.09-5.84-18.53,18.7-18.53s4.23-9.87-4.74-11.79Z"/><path class="e" d="M239.53,270.29s-.04,0-.07-.01c-.09-.04-.14-.14-.1-.23,1.21-3.05-.31-3.78-.38-3.81-.09-.04-.13-.15-.09-.24,.04-.09,.15-.13,.24-.09,.08,.03,1.91,.88,.57,4.27-.03,.07-.1,.11-.17,.11Z"/><path class="e" d="M236.54,272.38s-.05,0-.08-.02c-.09-.04-.13-.15-.09-.24,1.23-2.62,1.16-4,.88-4.7-.22-.56-.58-.71-.6-.71-.09-.04-.14-.14-.1-.23,.04-.09,.14-.14,.23-.1,.02,0,.51,.2,.79,.89,.31,.76,.41,2.25-.89,5.01-.03,.07-.09,.1-.16,.1Z"/><path class="e" d="M234.33,272.86s-.05,0-.08-.02c-.09-.04-.13-.15-.08-.24,.01-.03,1.34-2.77,.37-4.78-.04-.09,0-.2,.08-.24,.08-.04,.2,0,.24,.08,1.05,2.16-.31,4.97-.37,5.09-.03,.06-.1,.1-.16,.1Z"/></g><path class="d" d="M245.16,248.11c-.14,0-.25-.1-.27-.24-.01-.12-1.32-11.67,.12-17.96,.03-.15,.17-.24,.33-.2,.14,.03,.24,.18,.2,.32-1.43,6.2-.13,17.66-.11,17.77,.02,.15-.09,.28-.24,.3-.01,0-.02,0-.03,0Z"/></g><g><path class="o" d="M335.37,277.61c.08,9.67-9.74,9.48-20.72,9.48s-19.83-.74-19.06-9.48c.46-5.24,9.74-9.48,20.72-9.48s19.02,4.27,19.06,9.48Z"/><g><path class="i" d="M308.89,220.48s-5-.19-9.78,5.58c0,0-18.38,21.01-15.64,27.88,0,0,2.63,8.18,8.19,12.64l6.38-7.06-2.72-9.29,11.82-13.94,1.75-15.8Z"/><path class="i" d="M332.69,220.48s5.04-.19,8.81,5.58c0,0,14.71,21.01,10.76,27.88,0,0-4.06,8.18-10.4,12.64l-5.14-7.06,4.34-9.29-9.37-13.94,1.01-15.8Z"/><path class="i" d="M334.48,267.31c0-1.83-.24-3.61-.25-5.48-.02-2.76,.76-5.65,.49-8.36-.33-3.31-.64-5.27,.11-8.7,.65-2.93,.77-5.76,.89-8.68,.08-2.08,.51-4.17,.32-6.19-.15-1.54-.58-2.92-.69-4.46-.2-2.94-.62-4.18-3.64-4.87-2.06-.47-4.33-.24-6.46,.13-4.24,.75-8.37-.4-12.6,.43-2.8,.55-5.29-1.26-7.87,.95-1.88,1.61-2.33,4.38-2.43,6.63-.11,2.69-1.47,5.25-1.93,7.9-.46,2.67,.46,4.95,.62,7.52,.13,2.13-1.12,4.27-.75,6.41,.57,3.26,.09,6.05-.09,9.33-.1,1.73-.64,3.53-.47,5.25,.14,1.4,.48,2.35,.39,3.8-.16,2.55-.42,5.27,2.93,5.23,3.12-.03,5.78-2.02,8.76-2.42,2.85-.39,3.58,.81,5.77,1.64,2.22,.85,3.68-1.44,5.91-1.64,1.68-.15,2.79,.95,4.36,1.12,4.16,.46,6.61-1.05,6.62-5.54Z"/><g><polygon class="e" points="313.52 221.78 308.93 215.74 313.93 210.63 332.56 210.25 333.89 217.32 328.02 221.78 313.52 221.78"/><path class="k" d="M315.08,215.58s.29,4.46-2.15,7.56c0,0,4.83,14.25,16.11,0,0,0-2.92-1.36-2.75-6.76l-11.21-.81Z"/><g><path class="k" d="M329.84,198.32c-2.96-4.91-10.64-5.24-14.62-.44-2.05,2.47-2.16,3.61-2.62,6.68-.62,4.09-.61,8.25,.92,11.97,1.24,2.99,4.64,6.67,8.49,5.35,8.6-2.95,10.65-13.51,8.9-20.75-.24-.98-.56-1.95-1.08-2.8Z"/><path class="e" d="M331.27,191.37c-.17,1.96-3.9,3.55-8.33,3.55s-7.88-1.59-7.71-3.55c.17-1.96,3.9-3.55,8.33-3.55s7.88,1.59,7.71,3.55Z"/><path class="e" d="M322.37,190.34c-1.76-.26-3.15-1.42-5.19-.99-2.11,.43-4.21,2.24-5.54,3.91-1.12,1.4-1.24,3.26-2.42,4.51-1.12,1.21-2.83,1.7-3.91,3.05-1.25,1.57-1.64,4.1-1.43,5.97,.18,1.58,1.09,2.74,.52,4.33-.6,1.69-1.88,2.87-1.59,4.86,.31,2.12,2.57,2.77,2.81,4.77,.18,1.45-.51,2.06,1.18,2.72,1.52,.58,4.28,.45,5.89-.03,1.92-.58,2.23-2.13,1.76-3.7-.61-2.03-1.26-4.18-1.25-6.38,0-1.49,.56-2.38,.32-3.94-.23-1.53-.07-1.97,.73-3.44,.79-1.44,.72-1.82,.86-3.43,.44-5.06,6.51-3.02,7.36-7.38,.29-1.49,.45-3.79-.45-4.82h.34Z"/><path class="e" d="M323.74,190.34c1.81-.26,3.4-1.42,5.37-.99,2.03,.43,3.81,2.24,4.85,3.91,.87,1.4,.67,3.26,1.63,4.51,.91,1.21,2.53,1.7,3.38,3.05,.98,1.57,.93,4.1,.39,5.97-.46,1.58-1.57,2.74-1.28,4.33,.3,1.69,1.38,2.87,.74,4.86-.68,2.12-3.06,2.77-3.65,4.77-.43,1.45,.16,2.06-1.66,2.72-1.57,.57-6.17,.95-7.02-.78-.4-.81,.34-2.31,.59-3.14,.44-1.49,1.05-2.96,1.41-4.47,.44-1.87,.16-3.86,.75-5.67,.5-1.53,.42-1.97-.12-3.44-.53-1.44-.4-1.82-.26-3.43,.45-5.06-5.97-3.02-6.06-7.38-.03-1.49,.21-3.79,1.29-4.82h-.34Z"/></g><path class="e" d="M320.49,222.26c-.3,0-.6-.02-.9-.07-2.86-.42-4.44-2.67-4.5-2.77-.09-.13-.06-.3,.07-.39,.12-.09,.3-.06,.39,.07,.01,.02,1.52,2.16,4.13,2.53,1.93,.28,3.96-.44,6.07-2.14,.12-.1,.3-.08,.39,.04,.1,.12,.08,.3-.04,.39-1.92,1.55-3.8,2.32-5.61,2.32Z"/></g><g><path class="d" d="M316.57,264.44s4.17-16.92,22.18-19.8l-1.06,12.08-21.12,7.71Z"/><path class="i" d="M316.71,263.55s7.21-12.95,22.98-17.97l-16.56,20.36-6.59-.09,.17-2.29Z"/><path class="d" d="M297.67,245.67s19.81,4.09,19.44,18.96l-14.38-5.67-4.71-2.42-.35-10.88Z"/><path class="d" d="M316.02,264.35s5.68-11.8,25.87-19.52l-8.31,29.19-18.37,2.79,.81-12.46Z"/><path class="i" d="M297.01,246.88s18.16,2.79,20.06,17.2l-14.79-5.21-5.27-11.99Z"/><path class="d" d="M295.15,250.72l-.24-4.34s19.12,3.78,21.8,17.17l-1.99,5.08-12.39-5.7-7.17-12.21Z"/><path class="i" d="M316.8,263.3s10.89-12.52,23.86-14.87l-14.13,14.94-9.38,2.35-.35-2.42Z"/><path class="i" d="M296.33,249.29s17.13,3.9,20.11,14.5l-.82,10.41-10.66-7.71-8.63-17.2Z"/><path class="d" d="M316.44,263.79s12.83-12.83,26.5-15.99l-8.41,24.91-18.94,.84,.86-9.76Z"/><path class="d" d="M294.44,256.08l-.81-7.72s20.83,6.23,23.26,16.73l-3.32,11.34-13.63-4.55-5.5-15.8Z"/><g><path class="e" d="M315.97,262.87s-12.05-10.97-23.89-11.71l2.96,25.66s11.46,.74,19.74,5.95l1.18-19.89Z"/><path class="e" d="M317.83,262.87s13.97-10.97,25.93-11.71l-7.45,25.66s-11.59,.74-20.78,5.95l2.3-19.89Z"/><path class="e" d="M315.97,262.87s.86,.81,1.86,0l-1.4,19.46s-1.41,1.92-2.71-.19l2.25-19.27Z"/></g><path class="k" d="M335.34,266.29c-.91,.09-2.15,.36-1.32-.91,1.06-1.62,3.24-1.8,4.91-2-.82-.24-5.4,1.25-5.16-.05,.12-.7,2.02-1.42,2.57-1.61,.95-.32,1.93-.49,2.94-.61-1.26-.53-2.9,.75-4.26,.52-1.75-.3,.66-1.72,1.48-2.09,1.26-.56,3.23-.96,4.64-1.02,1.21-.05,3.14,.72,1.73,2.16,.92,.31,.36,2.62-.3,3.14,.62,.64,.42,2.36-.61,2.68,.04,1.42-.52,1.39-1.81,1.44-1.06,.04-2.09,.11-3.18,.26-.76,.11-3.13,.41-2.01-.99,.63-.79,2.33-1,3.17-1.28-.92,.06-1.86,.28-2.79,.37Z"/><path class="k" d="M296.64,266.29c.9,.09,2.09,.36,1.48-.91-.77-1.62-2.93-1.8-4.56-2,.86-.24,5.18,1.25,5.17-.05,0-.7-1.77-1.42-2.29-1.61-.89-.32-1.85-.49-2.83-.61,1.35-.53,2.76,.75,4.16,.52,1.8-.3-.36-1.72-1.12-2.09-1.17-.56-3.06-.96-4.46-1.02-1.2-.05-3.26,.72-2.11,2.16-.98,.31-.82,2.62-.25,3.14-.74,.64-.84,2.36,.14,2.68-.29,1.42,.27,1.39,1.56,1.44,1.06,.04,2.07,.11,3.13,.26,.74,.11,3.05,.41,2.18-.99-.49-.79-2.15-1-2.94-1.28,.91,.06,1.81,.28,2.72,.37Z"/></g><path class="d" d="M301.08,245.61s-.07,0-.1-.02c-.59-.22-.54-1.45-.37-3.45,.04-.48,.07-.9,.07-1.14-.01-.85,.04-1.74,.09-2.6,.08-1.36,.16-2.77,0-4.07-.02-.15,.09-.29,.24-.31,.14-.02,.29,.09,.31,.24,.17,1.35,.09,2.79,0,4.17-.05,.85-.1,1.73-.09,2.56,0,.27-.03,.7-.07,1.19-.06,.79-.22,2.65,.03,2.89,.14,.05,.21,.21,.15,.35-.04,.11-.15,.18-.27,.18Z"/><path class="d" d="M334.9,244.37s-.03,0-.05,0c-.15-.03-.25-.17-.23-.32,.17-.98,.21-2.08,.25-3.23,.08-2.01,.15-4.08,.92-5.76,.06-.14,.22-.2,.37-.14,.14,.06,.2,.23,.14,.37-.72,1.58-.8,3.6-.87,5.55-.04,1.18-.09,2.29-.26,3.31-.02,.14-.14,.23-.28,.23Z"/></g><g><g><path class="k" d="M303.35,331.61c-.41,2.99-.36,5.87-2.06,8.62-1.26,2.01-4.73,2.83-6.3,1.14-1.32-1.44-1.11-4.05-.49-5.88,.36-1.06,.74-2.13,1.11-3.19,.5-1.47,.97-2.95,1.33-4.46,.6-2.53,.15-4.81,.5-7.35,.18-1.28,2.06-2.18,3.17-2.28,1.45-.13,4.33,.39,4.67,1.93,.37,1.67-1.1,3.87-1.41,5.54-.36,1.95-.24,3.97-.5,5.93Z"/><path class="e" d="M303.35,331.61c-.41,2.99-.36,5.87-2.06,8.62-1.26,2.01-4.73,2.83-6.3,1.14-1.32-1.44-1.11-4.05-.49-5.88,.36-1.06,.74-2.13,1.11-3.19,.37,1,1.57,3.97,3.01,4.99,0,0,2.88-2.56,4.74-5.67Z"/></g><g><path class="k" d="M317.79,331.61c-.11,2.99-.67,5.87,.56,8.62,.9,2.01,4.23,2.83,6.1,1.14,1.57-1.44,1.82-4.05,1.52-5.88-.18-1.06-.37-2.13-.55-3.19-.24-1.47-.45-2.95-.54-4.46-.16-2.53,.69-4.81,.79-7.35,.05-1.28-1.68-2.18-2.77-2.28-1.42-.13-4.39,.39-5,1.93-.67,1.67,.42,3.87,.43,5.54,.02,1.95-.46,3.97-.53,5.93Z"/><path class="e" d="M317.79,331.61c-.11,2.99-.67,5.87,.56,8.62,.9,2.01,4.23,2.83,6.1,1.14,1.57-1.44,1.82-4.05,1.52-5.88-.18-1.06-.37-2.13-.55-3.19-.55,1-2.27,3.97-3.89,4.99,0,0-2.43-2.56-3.74-5.67Z"/></g></g><g><path class="o" d="M323.25,322.9c1.09-.25,1.89-.86,3.16-.86,1.41,0,2.6,.51,4.02,.53-.16,0,.41-5.38,.44-5.79,.17-1.98,.4-3.96,.66-5.94,.67-5.13,.98-10.37,.79-15.54-.2-5.48,.98-15.87-5.18-18.17-2.76-1.03-7.21,.12-9.02,2.81-1.37,2.04-2.09,4.79-2.2,7.13-.23,4.58,.3,9.18-.21,13.73-.45,4.03-.73,7.28-.32,11.2,.17,1.63,.11,3.13-.04,4.83-.22,2.58,.41,4.5,.35,7.04,1.02-.48,1.8-1.33,3.07-1.47,1.5-.16,2.58,.73,4.04,.57,.16-.02,.31-.04,.46-.08Z"/><path class="d" d="M317.13,281.64s-.05,0-.08-.02c-.09-.04-.13-.15-.09-.25,.07-.14,1.67-3.46,5.14-4.51,2.31-.7,4.89-.21,7.65,1.45,.09,.05,.12,.17,.06,.25-.05,.09-.17,.12-.26,.06-2.67-1.6-5.14-2.08-7.35-1.41-3.31,1-4.9,4.28-4.91,4.31-.03,.07-.1,.11-.17,.11Z"/></g><g><path class="o" d="M299.92,322.9c-1.05-.25-1.74-.86-3.01-.86-1.41,0-2.69,.51-4.11,.53,.16,0,.53-5.38,.57-5.79,.18-1.98,.3-3.96,.39-5.94,.23-5.13,.83-10.37,1.93-15.54,1.16-5.48,1.79-15.87,8.36-18.17,2.95-1.03,7.19,.12,8.52,2.81,1.01,2.04,1.25,4.79,.96,7.13-.58,4.58-1.91,9.18-2.2,13.73-.25,4.03-.55,7.28-1.63,11.2-.45,1.63-.66,3.13-.8,4.83-.23,2.58-1.2,4.5-1.58,7.04-.93-.48-1.57-1.33-2.81-1.47-1.47-.16-2.71,.73-4.14,.57-.16-.02-.3-.04-.44-.08Z"/><path class="d" d="M313.29,281.64c-.09,0-.16-.06-.18-.15,0-.03-.64-2.76-3.15-3.96-2.17-1.03-5.06-.66-8.6,1.11-.09,.05-.2,.01-.25-.08-.05-.09,0-.2,.08-.25,3.65-1.82,6.65-2.2,8.93-1.11,2.68,1.28,3.32,4.09,3.34,4.21,.02,.1-.04,.2-.14,.22-.01,0-.03,0-.04,0Z"/></g><g><path class="e" d="M320.96,216.74c-1.68,0-2.77-.74-2.84-.78-.17-.12-.21-.35-.09-.52,.11-.17,.34-.21,.52-.1,.09,.06,2.27,1.51,5.2-.11,.17-.1,.4-.03,.5,.15,.1,.18,.03,.41-.15,.5-1.17,.65-2.24,.86-3.14,.86Z"/><path class="e" d="M321.92,214.16c-1.18,0-1.82-.18-2.14-.61-.4-.54-.17-1.32,.14-2.4l.15-.5c.48-1.69,.04-3.36-.42-4.47-.06-.14,0-.31,.15-.36,.14-.06,.3,0,.36,.15,.49,1.19,.97,2.99,.44,4.83l-.15,.51c-.26,.89-.47,1.59-.23,1.91,.19,.26,.75,.38,1.69,.38,.15,0,.28,.12,.28,.28s-.12,.28-.28,.28Z"/><path class="e" d="M311.66,206.09c-.15,0-.29-.09-.35-.24-.07-.19,.03-.41,.22-.48,.29-.11,.58-.22,.87-.34,1.95-.78,4.16-1.67,7.02-.12,.18,.1,.25,.32,.15,.5-.1,.18-.32,.25-.5,.15-2.55-1.38-4.42-.63-6.39,.16-.3,.12-.59,.24-.89,.35-.04,.02-.09,.02-.13,.02Z"/><path class="e" d="M330.83,206.09s-.09,0-.14-.03c-.28-.11-.56-.23-.83-.35-1.84-.79-3.56-1.53-6.37-.15-.18,.09-.41,.01-.5-.17-.09-.18-.01-.41,.17-.5,3.11-1.53,5.17-.65,6.99,.13,.27,.12,.54,.23,.81,.34,.19,.08,.29,.29,.21,.48-.06,.15-.2,.23-.35,.23Z"/><path class="e" d="M318.37,208.53c-.07,.38-.67,.64-1.35,.58-.68-.07-1.17-.43-1.11-.81,.01-.07,.03-.13,.08-.18,.55,.18,1.43,.37,2.38,.28,0,.04,.02,.09,0,.13Z"/><path class="e" d="M324.31,208.53c0,.38,.56,.64,1.25,.58,.69-.07,1.25-.43,1.25-.81,0-.07-.01-.13-.05-.18-.58,.18-1.5,.37-2.42,.28-.02,.04-.03,.09-.03,.13Z"/></g></g></g><g><g><g><g><path class="h" d="M358.4,330.28c-1.74-1.74-7.64-2.24-9.2-.01-1.52,2.17-2.32,7.2-.4,9.07,1.91,1.87,7.61,2.46,9.85,.25,1.87-1.84,1.34-7.72-.25-9.31Z"/><path class="h" d="M385.39,329.88c-.62-.58-1.4-.83-2.71-.94-1.62-.13-3.3,.12-4.94,.37-2.15,.33-2.54,2.63-2.93,4.56-.36,1.83,.34,2.69,2.16,2.98,1.71,.28,2.6,.26,4.18,.93,1.43,.6,3.03,.89,4.56,1.11,2.14,.3,7.96,1.2,6.36-2.59-1.05-2.5-4.46-2.73-5.69-5.02-.33-.6-.64-1.06-1-1.4Z"/><g><path class="q" d="M393.24,278.48c-.53,6.06-10.36,10.97-21.97,10.97s-20.58-4.91-20.05-10.97c.53-6.06,10.36-10.97,21.97-10.97s20.58,4.91,20.05,10.97Z"/><path class="h" d="M391.21,215.83l.44-2.8c.19-1.23-.34-2.83-1.33-3.33-3.79-1.91-9.04-1.5-9.04-1.5l-.76,4.84h5.13c.02,3.51-8.85,12.82-9.84,13.84-.81-1.03-8.05-10.33-7.42-13.84h5.13l.08-4.84s-5.17-.41-9.3,1.5c-1.08,.5-1.96,2.11-2.07,3.34l-.26,2.97s-8.66,4.52-11.73,14.19c0,0,10.51,6.97,24.73,6.26,14.09,.71,26.19-6.01,26.19-6.01-1.38-9.67-9.94-14.62-9.94-14.62Z"/><path class="k" d="M383.84,211.91l.02-.22c.29-2.75,.36-5.51,.08-8.22-.25-2.58-3.46-3.37-5.69-3.38-2.69,0-5,.88-6.25,3.47-1.36,2.82-.68,5.58-.82,8.4-.18,3.69,.04,6.65,3.84,7.97,2.48,.86,4.39-.07,6.57-1.62,1.96-1.4,2.05-4.3,2.25-6.4Z"/><path class="k" d="M384.21,207.85c.26-.24,.51-.5,.75-.76,3.93-4.32,5.49-13.05,5.28-18.42-.08-2.07-.79-4.37-2.31-5.64-1.89-1.58-4.67-2.11-7.13-2.24-4.11-.21-7.56,.02-10.41,3.54-4,4.94-4,13.58-2.58,19.01,1.88,7.18,10.08,10.47,16.41,4.51Z"/><path class="e" d="M385.69,178.32c.58,.5,1.01,1.12,1.22,1.83,.86,2.9-2.35,4.54-3.77,6.67-.63,.95-.44,1.22-1.97,1.01-1.12-.15-1.94-.46-3.18,.03-1.5,.59-1.44,1.66-2.42,2.55-1.93,1.75-4.03-.45-6.04,.01-1.22,.28-1.91,1.35-3.06,1.87-1.1,.5-2.01,.3-2.67,1.48,.32-1.08,.79-2.69,1.62-3.53,.95-.96,1.11-.98,1.94-1.77-1.06,.55-.4-.5-1.63,.11-1.42,.71-1.74,2.53-3.16,3.02,.49-1.18-.51-2.16-.3-3.43,.29-1.68,1.76-4.07,3.42-4.82-3.79-.97,1.63-3.77,2.72-4.63,3.47-2.71,7.9-5.59,11.23-1.48,1.89-.79,4.48-.29,6.05,1.07Z"/><path class="e" d="M370.82,188.2c.68,1.27-1.99,3.08-2.34,4.53-.41,1.69,.51,2.96-.39,4.76,0,.11,0,.11,.01,0-.31-1.51-1.39-3-1.53-4.46-.1-1.13,.61-2.28,.59-3.36-.01-.92-.54-1.36-.7-2.2-.35-1.87,1.13-4.29,3.19-3.98,2.75,.4,2.36,3.3,1.42,5.31l-.25-.59Z"/><path class="k" d="M389.85,216.57s.37,6.94-7.86,11.18c-.06,.04-.12,.07-.19,.09-7.06,3.12-11.19-.01-11.19-.01,0,0-.05,.02-.15,.07-7.75-4.23-7.65-10.95-7.65-10.95l8.1-4.65,.32-.19,5.99,2.75,6.4-2.72,.06-.03,6.15,4.46Z"/><path class="h" d="M369.27,210.25s.42,7.93,4.41,11.9c0,0,3.26,4.46,2.78,9.92l-8.48-2.11-7.93-8.43,2.12-4.71,1.74-4.21,5.36-2.36Z"/><path class="h" d="M385.74,210.75s-2.47,7.44-7.15,11.4c0,0-4.04,4.46-4.52,9.92l8.85-2.11,9.4-8.43-1.3-4.71-1-4.21-4.28-1.86Z"/><path class="h" d="M372.8,226.92c-1.72-1.36-3.09-3.16-4.9-4.4-1.96-1.34-3.97-1.41-6.32-1.69-9.17-1.06-12.99,10.6-12.05,17.49,.55,3.99-.44,7.37-1.37,11.33-.4,1.7-.68,3.6-.31,5.26,.39,1.74,1.02,2.91,.93,4.79-.22,4.66-2.33,11.29,2.15,14.5,2,1.43,4.84,.23,7.07-.45,2.95-.9,4.66-.88,7.24,.5,2.54,1.35,5.45,1.68,8.35,1.11,2.79-.55,5.41-3.13,8.23-2.91,2.33,.18,4.42,1.32,6.96,1.24,3.27-.1,6.03-1.18,7.64-4.54,2.68-5.57,2.23-11.69,2.73-17.58,.63-7.45,5.48-21.71-.84-26.27-1.65-1.19-3.61-3.23-5.68-3.42-2.39-.22-5.44,1.49-7.58,2.71-3.84,2.2-8.42,5.35-12.25,2.31Z"/><path class="e" d="M365.61,292.42c1.39-5.84,3.75-15.66,1.85-21.18-1.51-4.38-7.24-6.49-12.14-5.61-4.86,.87-7.06,5.03-7.95,9.62-.89,2.35-1.33,4.84-1.28,6.39,.19,5.72,.53,10.2-.56,16.07-2.05,11.09,.87,21.57-.27,32.57,2.39,.57,5.4,2.01,7.64,2.21,1.55,.14,2.73-.63,4.19-1.07,.91-.27,2.87-.14,3.61-.62,2.19-1.43,.82-6.85,.9-8.83,.06-1.7,.8-3.09,1.1-4.75,.47-2.53,.46-5.41,.68-7.84,.5-5.66,.89-11.35,2.23-16.96Z"/><path class="e" d="M375.67,292.42c-.37-5.84-1.01-15.66,1.85-21.18,2.27-4.38,8.37-6.49,13.12-5.61,4.71,.87,6.18,5.03,6.26,9.62,.48,2.35,.49,4.84,.16,6.39-1.19,5.72-2.31,10.2-2.25,16.07,.11,11.09-4.64,21.57-5.43,32.57-2.49,.57-5.75,2.01-8.03,2.21-1.92,.17-2.53-.6-4.2-1.13-.35-.11-3.72-.99-3.72-.99-2.46-2.64,.87-14.17,1.22-18.15,.58-6.68,1.4-13.43,1-19.8Z"/></g></g><path class="i" d="M366,213.72c-.71,0-1.31,.67-1.34,1.49l-.61,19.84c-.03,.82,.53,1.51,1.24,1.54l9.45,.39c.71,.03,1.31-.62,1.35-1.43l.84-20.33c.03-.82-.52-1.49-1.23-1.49h-9.7Z"/><g><path class="h" d="M361.9,251.14c-.05-.4-.06-.82,.03-1.27,.21-1.04,.28-2.05,.4-3.1,.1-.96,.53-2.23,.43-3.17-.21-2.17-2.72-2.09-4.28-2.18-1.42-.08-4.07-1.72-5.34-.08-.67,.87-.82,2.29-1.04,3.32-.54,2.52-1.24,4.69-2.42,6.95-1.41,2.71-3.1,6.13-1.82,8.93,1.72,3.8,8.19,5.13,11.37,2.03,1.93-1.88,2.38-4.51,2.83-6.96,.16-.87,.07-1.83,.06-2.69,0-.63-.15-1.19-.22-1.77Z"/><path class="k" d="M359.04,244.75c-.91,.47-3.37-.37-3.84-1.22-.48-.86,.31-2.12,.5-3.01,.22-1.03,.14-2.09,.23-3.12,.13-1.5,.39-2.89,.86-4.36,.72-2.23,2.02-4,3.65-5.77,1.04-1.13,2.34-1.9,3.8-2.25,.66-.16,4.15-.82,3.13,.53-.45,.61-2.11,.46-2.75,.71-1.12,.43-1.92,1.7-2.81,2.71,1.53-2.26,4.98-2.25,7.28-2.13,.3,1.62-1.94,1.43-2.96,1.58-1.5,.22-2.05,1.17-3.03,2.34,1.42-1.94,4.21-2.54,6.39-1.89,.79,.23,.83,.67,.08,1.03-.62,.3-1.46,.01-2.11,.08-1.39,.15-2.38,1.15-3.11,2.29,.93-.39,1.48-.82,2.52-.78,.43,.02,2.55,.29,2.43,.91-.13,.62-2.13,.68-2.58,.79-1.17,.29-1.18,.58-1.83,1.73-.94,1.68-2.83,2.99-3.51,4.74-.43,1.12-1.19,4.51-2.37,5.11Z"/><path class="i" d="M347.31,260.39c-.02-.8-.03-1.53,.04-2.32,.3-3.42,1.61-6.29,3.05-9.17l.03-.05c.6-1.22,1.13-2.27,1.37-3.56,.06-.3,.1-.64,.14-.99,.13-1.08,.28-2.31,1.02-3.1,.06-.07,.17-.07,.24,0,.07,.06,.07,.17,0,.24-.66,.71-.8,1.88-.93,2.91-.04,.36-.08,.7-.14,1.01-.25,1.33-.78,2.41-1.4,3.65l-.02,.05c-1.42,2.85-2.72,5.69-3.01,9.04-.07,.77-.05,1.49-.03,2.25l-.17,.04h-.17Z"/><path class="i" d="M360.34,261.49s-.04,0-.06-.01c-.09-.03-.13-.13-.1-.22,1.91-5.23,1.93-5.7,1.58-10.31-.09-1.23,.15-2.5,.38-3.73l.1-.54c.21-1.12,.48-2.52,.34-3.55-.01-.09,.05-.18,.15-.19,.09-.02,.18,.05,.19,.14,.15,1.09-.12,2.51-.34,3.66l-.1,.54c-.23,1.21-.46,2.46-.37,3.64,.37,4.75,.28,5.34-1.6,10.46-.02,.07-.09,.11-.16,.11Z"/></g></g><path class="k" d="M382.83,267.84c.76-.88,2-1.56,2.25-2.75,.26-1.24-.46-2.38-1.34-3.06-.94-.72-1.79-1.68-3.13-1.18-1.21,.45-2.19,1.58-3.32,2.14-1.75,.89-1.95,2.27-2.74,3.77-1.78,3.36-1.38,5.99-.79,9.45,1.22,.02,1.4-1.55,1.49-2.51-.08,.83-.32,1.73-.1,2.54,.1,.38,.32,1.31,.75,1.44,.72,.22,1.24-1.03,1.39-1.56-.14,.5,.23,1.4,.85,1.06,.69-.37,.89-1.98,1.13-2.63-.02,.48,.03,1.29,.71,1.14,.39-.09,.44-.39,.56-.75,.43-1.21,.38-2.46,.76-3.67,.38-1.21,.68-2.42,1.55-3.43Z"/><path class="h" d="M401.2,227.22c-2.39-4.88-9-3.72-10.7,1.81-1.6,5.2-1.25,10.48-1.77,15.74-.27,2.7-.27,7.17-2.25,9.42-2.29,2.61-7.45,2.64-8.05,6.81-.18,1.25,.82,.5,1.46,.33,1.01-.27,2.12,.35,2.74,1.15,.84,1.09,.5,2.92,1.64,3.94,2.5,2.25,7.26,.52,10-1.14,6.16-3.75,5.22-14.88,6.26-20.63,.55-3.05,.68-6.21,.92-9.31,.21-2.65,.93-5.75-.24-8.12Z"/><path class="i" d="M378.31,260.88s-.06,0-.09-.02c-.09-.05-.12-.16-.07-.25,.11-.2,.21-.39,.3-.58,.28-.57,.55-1.1,1.13-1.61,1.04-.9,2.47-1.61,3.74-2.24,.31-.16,.62-.31,.9-.45,1.54-.8,2.4-1.78,3.09-3.52,.64-1.63,.81-3.64,.96-5.41l.05-.61c.05-.52,.14-1.12,.24-1.74,.23-1.47,.49-3.14,.18-4.26-.03-.1,.03-.2,.13-.23,.1-.03,.2,.03,.23,.13,.33,1.2,.06,2.91-.17,4.42-.1,.62-.19,1.21-.23,1.72l-.05,.61c-.15,1.8-.32,3.84-.98,5.52-.72,1.83-1.63,2.87-3.26,3.71-.29,.15-.59,.3-.91,.46-1.25,.62-2.66,1.32-3.66,2.19-.53,.46-.76,.94-1.04,1.5-.09,.19-.19,.39-.31,.59-.03,.06-.1,.1-.16,.1Z"/><path class="i" d="M387.64,267.69c-.75,0-1.47-.1-2.15-.31-.1-.03-.15-.13-.12-.23,.03-.1,.14-.15,.23-.12,2.76,.85,6.38-.18,9.23-2.63,2.65-2.27,4.24-6.04,4.71-11.21,0-.1,.1-.18,.2-.17,.1,0,.18,.1,.17,.2-.48,5.27-2.11,9.13-4.84,11.46-2.25,1.94-4.99,3.01-7.43,3.01Z"/></g><g><path class="p" d="M388.5,196.62l-10.27-1.61-10.2,1.86s.59,3.12-.76,4.41c0,0,.53,9.47,9.45,9.6,0,0,7.74,.76,11.9-9.23,0,0-.45-2.64-.12-5.03Z"/><path class="p" d="M388.52,196.56h-.01s0,.04,0,.06h0s0-.02,.02-.06Z"/></g><path class="k" d="M365.31,197.5c.16,2.23,1.04,3.92,1.96,3.78,.92-.15,1.53-2.07,1.37-4.3-.16-2.23-1.04-3.92-1.96-3.77-.92,.15-1.53,2.07-1.36,4.3Z"/><path class="k" d="M391.24,197.88c-.55,2.23-1.73,3.92-2.62,3.77-.89-.14-1.17-2.07-.61-4.3,.56-2.23,1.73-3.92,2.62-3.78,.89,.15,1.17,2.07,.61,4.3Z"/><path class="e" d="M374.89,274.86h-.02c-.1,0-.18-.1-.17-.2,.03-.36,.07-.72,.1-1.07,.07-.69,.13-1.39,.18-2.09,.08-1.35,.62-2.42,1.18-3.55,.14-.29,.29-.58,.43-.88,.04-.09,.16-.13,.25-.09,.09,.04,.13,.15,.09,.25-.14,.31-.29,.6-.43,.89-.57,1.15-1.06,2.14-1.14,3.41-.04,.7-.11,1.41-.18,2.1-.03,.36-.07,.71-.1,1.07,0,.1-.09,.17-.19,.17Z"/><path class="e" d="M377.28,276.31c-.09,0-.17-.07-.18-.16-.02-.13-.46-3.32,1.35-8.05,.04-.1,.14-.15,.24-.11,.1,.04,.14,.14,.11,.24-1.77,4.63-1.33,7.83-1.33,7.87,.01,.1-.06,.2-.16,.21h-.03Z"/><path class="e" d="M379.27,274.74c-.09,0-.18-.07-.19-.17,0-.11-.22-2.66,1.21-6.29,.04-.1,.15-.14,.24-.1,.1,.04,.14,.15,.1,.24-1.4,3.54-1.18,6.09-1.18,6.12,0,.1-.07,.19-.17,.2h-.02Z"/><path class="e" d="M386.8,193.77c-.06,0-.12-.01-.18-.05-2.54-1.39-5.21-.48-5.23-.47-.19,.06-.4-.03-.47-.23-.07-.19,.03-.41,.23-.47,.12-.04,3-1.03,5.84,.52,.18,.1,.25,.32,.15,.5-.07,.12-.2,.19-.33,.19Z"/><path class="e" d="M370.37,193.83c-.14,0-.27-.08-.33-.21-.09-.18-.02-.41,.17-.5,3.09-1.54,5.8-.55,5.92-.51,.19,.07,.29,.29,.22,.48-.07,.19-.3,.29-.48,.22-.03-.01-2.53-.91-5.33,.48-.05,.03-.11,.04-.17,.04Z"/><g><path class="e" d="M388.95,199.1c-.09,0-.17-.06-.18-.15,0-.04-.18-1.12,1.23-3.29,.06-.09,.17-.11,.26-.05,.09,.06,.11,.17,.05,.26-1.32,2.03-1.18,3.02-1.18,3.03,.02,.1-.05,.2-.15,.21-.01,0-.02,0-.03,0Z"/><path class="e" d="M389.36,197.61c-.07,0-.13-.04-.16-.1-.05-.09-.01-.2,.08-.25l1.12-.6c.09-.05,.2-.01,.25,.08,.05,.09,.01,.2-.08,.25l-1.12,.6s-.06,.02-.09,.02Z"/></g><g><path class="e" d="M367.39,199.1s-.04,0-.06-.01c-.1-.03-.15-.14-.11-.24h0s.32-1-.65-3.02c-.04-.09,0-.2,.09-.25,.09-.04,.2,0,.25,.09,1.04,2.18,.68,3.26,.66,3.3-.03,.08-.1,.12-.17,.12Z"/><path class="e" d="M367.24,197.61s-.06,0-.09-.03l-1.02-.6c-.09-.05-.12-.17-.06-.25,.05-.09,.17-.12,.25-.06l1.02,.6c.09,.05,.12,.17,.06,.25-.03,.06-.1,.09-.16,.09Z"/></g><path class="e" d="M373.73,195.07c-.02,.27-.39,.49-.82,.49s-.76-.22-.73-.49c.02-.27,.39-.5,.82-.5s.76,.22,.73,.5Z"/><path class="e" d="M384.52,195.07c-.03,.27-.39,.49-.82,.49s-.76-.22-.73-.49c.02-.27,.39-.5,.82-.5s.76,.22,.73,.5Z"/><path class="p" d="M370.15,196.54s-1.66-1.16-1.93-2.88l.27,1.72,.34,2.46,1.76-.42-.39-.88h-.05Z"/><path class="p" d="M386.69,196.54s1.87-1.16,2.44-2.88l-.57,1.72-.77,2.46-1.68-.42,.64-.88h-.05Z"/><path class="e" d="M391.4,186.83c.08-1.77,.84-3.97-.24-5.58-1.23-1.81-4.15-2.38-6.15-1-1.29,.89-1.92,2.33-1.22,3.7,.62,1.23,2.32,1.43,2.96,2.62,.39,.73-.01,1.49,.03,2.28,.08,1.62,1.3,2.52,.92,4.17-.18,.78-.33,.99-.18,1.74,.13,.68,.57,.91,.4,1.7,.29-.65,1.98-2.6,1.8-3.26,.06,.21,.13,.41,.18,.63,.47-.71,.8-1.53,.94-2.35,.15,0,.13,.16,.28,.15,.73-1.69,.21-3.24,.28-4.82Z"/></g></g></svg>