<?xml version="1.0" encoding="UTF-8"?><svg id="a" xmlns="http://www.w3.org/2000/svg" viewBox="0 0 472.23 405.6"><defs><style>.b{fill:#22a1d4;}.c{fill:#fff;}.d{fill:#feb07d;}.e{fill:#3a769b;}.f{fill:#fff0e6;}.g{fill:#e0f5fc;}.h{fill:#a7d9ee;}.i{fill:#ffe3d0;}.j{fill:#055280;}</style></defs><path class="g" d="M336.55,1.21c50.33,7.01,99.07,45.55,121.37,97.16,21.98,51.29,17.52,115.32-5.73,168.52-23.57,53.52-65.94,96.52-114.04,116.27-48.1,19.75-101.94,16.57-157.69,19.11-55.75,2.55-113.09,10.83-144.31-14.65C5.25,362.45,.79,303.2,.16,254.14c-.96-49.38,2.23-88.56,17.2-120.73,14.97-31.86,42.05-56.7,71.68-70.4,29.31-13.7,61.48-16.25,103.21-29.94C234.3,19.37,286.22-5.8,336.55,1.21Z"/><g><g><g><g><polygon class="e" points="285.83 189.41 282.33 189.41 281.08 184.52 287.93 184.52 285.83 189.41"/><polygon class="e" points="330.3 189.41 326.8 189.41 325.55 184.52 332.4 184.52 330.3 189.41"/><polygon class="e" points="373.65 189.41 370.16 189.41 368.9 184.52 375.75 184.52 373.65 189.41"/></g><path class="e" d="M378.64,183.59c-.16,1.85-1.81,3.36-3.65,3.36h-51.09c-1.84,0-3.22-1.51-3.06-3.36l1.84-21.07c.16-1.85,1.8-3.36,3.65-3.36h51.09c1.85,0,3.23,1.51,3.06,3.36l-1.84,21.07Z"/><path class="i" d="M335.01,183.59c-.16,1.85-1.8,3.36-3.65,3.36h-51.09c-1.84,0-3.22-1.51-3.06-3.36l1.84-21.07c.16-1.85,1.8-3.36,3.65-3.36h51.09c1.84,0,3.22,1.51,3.06,3.36l-1.84,21.07Z"/><g><path class="b" d="M341.52,178.35s-.03,0-.04,0c-.28-.02-.49-.27-.46-.55l.7-8.04c.02-.28,.25-.52,.55-.46,.28,.02,.49,.27,.46,.55l-.7,8.04c-.02,.27-.25,.47-.51,.47Z"/><path class="b" d="M346.11,178.35s-.03,0-.04,0c-.28-.02-.49-.27-.46-.55l.7-8.04c.02-.28,.24-.52,.55-.46,.28,.02,.49,.27,.46,.55l-.7,8.04c-.02,.27-.25,.47-.51,.47Z"/><path class="b" d="M350.71,178.35s-.03,0-.04,0c-.28-.02-.49-.27-.46-.55l.7-8.04c.02-.28,.25-.52,.55-.46,.28,.02,.49,.27,.46,.55l-.7,8.04c-.02,.27-.25,.47-.51,.47Z"/><path class="b" d="M355.3,178.35s-.03,0-.04,0c-.28-.02-.49-.27-.46-.55l.7-8.04c.02-.28,.25-.52,.55-.46,.28,.02,.49,.27,.46,.55l-.7,8.04c-.02,.27-.25,.47-.51,.47Z"/><path class="b" d="M359.9,178.35s-.03,0-.04,0c-.28-.02-.49-.27-.46-.55l.7-8.04c.02-.28,.24-.52,.55-.46,.28,.02,.49,.27,.46,.55l-.7,8.04c-.02,.27-.25,.47-.51,.47Z"/><path class="b" d="M364.49,178.35s-.03,0-.04,0c-.28-.02-.49-.27-.46-.55l.7-8.04c.02-.28,.25-.52,.55-.46,.28,.02,.49,.27,.46,.55l-.7,8.04c-.02,.27-.25,.47-.51,.47Z"/><path class="b" d="M369.09,178.35s-.03,0-.04,0c-.28-.02-.49-.27-.46-.55l.7-8.04c.02-.28,.25-.52,.55-.46,.28,.02,.49,.27,.46,.55l-.7,8.04c-.02,.27-.25,.47-.51,.47Z"/><path class="b" d="M373.68,178.35s-.03,0-.04,0c-.28-.02-.49-.27-.46-.55l.7-8.04c.02-.28,.24-.52,.55-.46,.28,.02,.49,.27,.46,.55l-.7,8.04c-.02,.27-.25,.47-.51,.47Z"/></g><g><path class="e" d="M322.51,173.47c.24-2.7,2.62-4.89,5.32-4.89s4.7,2.19,4.47,4.89c-.24,2.7-2.62,4.9-5.32,4.9s-4.7-2.2-4.47-4.9Z"/><path class="f" d="M324.72,173.47c.13-1.47,1.42-2.66,2.89-2.66s2.55,1.19,2.42,2.66c-.13,1.47-1.42,2.66-2.89,2.66s-2.56-1.19-2.43-2.66Z"/><polygon class="e" points="317.86 165.92 310.24 165.92 310.34 164.73 317.96 164.73 317.86 165.92"/><polygon class="e" points="317.58 169.14 309.96 169.14 310.06 167.95 317.68 167.95 317.58 169.14"/><polygon class="e" points="317.3 172.35 309.67 172.35 309.78 171.16 317.4 171.16 317.3 172.35"/><polygon class="e" points="317.01 175.57 309.39 175.57 309.5 174.38 317.12 174.38 317.01 175.57"/><polygon class="e" points="316.73 178.78 309.11 178.78 309.22 177.6 316.84 177.6 316.73 178.78"/><path class="e" d="M307.44,166.15l-.94,10.73c-.05,.62-.6,1.12-1.22,1.12h-21.06c-.48,0-.88-.31-.99-.75-.03-.11-.04-.24-.03-.37l.94-10.73c.05-.62,.6-1.12,1.22-1.12h21.06c.13,0,.26,.03,.37,.08,.41,.15,.69,.56,.65,1.04Z"/><path class="f" d="M306.84,165.49l-.94,10.72c-.05,.62-.6,1.12-1.22,1.12h-21.06c-.13,0-.27-.02-.38-.08-.03-.11-.04-.24-.03-.37l.94-10.73c.05-.62,.6-1.12,1.22-1.12h21.06c.13,0,.26,.03,.37,.08,.05,.12,.06,.25,.05,.38Z"/><path class="e" d="M284.46,180.81c.04-.46,.45-.84,.91-.84s.8,.38,.76,.84c-.04,.46-.45,.84-.91,.84s-.81-.38-.77-.84Z"/><path class="e" d="M289,180.81c.04-.46,.45-.84,.91-.84s.8,.38,.76,.84c-.04,.46-.45,.84-.91,.84s-.81-.38-.77-.84Z"/><path class="e" d="M293.55,180.81c.04-.46,.45-.84,.91-.84s.81,.38,.77,.84c-.04,.46-.45,.84-.91,.84s-.8-.38-.76-.84Z"/><path class="e" d="M298.1,180.81c.04-.46,.45-.84,.91-.84s.81,.38,.77,.84c-.04,.46-.45,.84-.91,.84s-.8-.38-.76-.84Z"/><path class="e" d="M302.64,180.81c.04-.46,.45-.84,.91-.84s.81,.38,.77,.84c-.04,.46-.45,.84-.91,.84s-.8-.38-.76-.84Z"/></g></g><g><g><g><path class="e" d="M386.1,310.91c-.27,3.06-3.01,5.57-6.08,5.57h-109.64c-3.08,0-5.37-2.51-5.1-5.57l10.13-115.84c.27-3.06,3-5.57,6.08-5.57h109.64c3.08,0,5.38,2.51,5.11,5.57l-10.13,115.84Z"/><path class="i" d="M304.94,311.45c-.27,3.08-2.01,5.59-3.88,5.59h-66.49c-1.87,0-3.17-2.52-2.91-5.59l10.18-116.35c.27-3.08,2.02-5.59,3.88-5.59h66.49c1.87,0,3.17,2.52,2.91,5.59l-10.18,116.35Z"/><g><g><path class="b" d="M320.44,291.73s-.05,0-.07,0c-.46-.04-.8-.45-.76-.91l1.09-12.45c.04-.46,.44-.81,.91-.76,.46,.04,.8,.45,.76,.91l-1.09,12.45c-.04,.44-.4,.77-.83,.77Z"/><path class="b" d="M327.58,291.73s-.05,0-.07,0c-.46-.04-.8-.45-.76-.91l1.09-12.45c.04-.46,.45-.81,.91-.76,.46,.04,.8,.45,.76,.91l-1.09,12.45c-.04,.44-.4,.77-.83,.77Z"/><path class="b" d="M334.71,291.73s-.05,0-.07,0c-.46-.04-.8-.45-.76-.91l1.09-12.45c.04-.46,.44-.81,.91-.76,.46,.04,.8,.45,.76,.91l-1.09,12.45c-.04,.44-.4,.77-.83,.77Z"/><path class="b" d="M341.84,291.73s-.05,0-.07,0c-.46-.04-.8-.45-.76-.91l1.09-12.45c.04-.46,.45-.81,.91-.76,.46,.04,.8,.45,.76,.91l-1.09,12.45c-.04,.44-.4,.77-.83,.77Z"/><path class="b" d="M348.97,291.73s-.05,0-.07,0c-.46-.04-.8-.45-.76-.91l1.09-12.45c.04-.46,.44-.81,.91-.76,.46,.04,.8,.45,.76,.91l-1.09,12.45c-.04,.44-.4,.77-.83,.77Z"/><path class="b" d="M356.1,291.73s-.05,0-.07,0c-.46-.04-.8-.45-.76-.91l1.09-12.45c.04-.46,.45-.81,.91-.76,.46,.04,.8,.45,.76,.91l-1.09,12.45c-.04,.44-.4,.77-.83,.77Z"/><path class="b" d="M363.24,291.73s-.05,0-.07,0c-.46-.04-.8-.45-.76-.91l1.09-12.45c.04-.46,.44-.81,.91-.76,.46,.04,.8,.45,.76,.91l-1.09,12.45c-.04,.44-.4,.77-.83,.77Z"/><path class="b" d="M370.37,291.73s-.05,0-.07,0c-.46-.04-.8-.45-.76-.91l1.09-12.45c.04-.46,.45-.81,.91-.76,.46,.04,.8,.45,.76,.91l-1.09,12.45c-.04,.44-.4,.77-.83,.77Z"/><path class="b" d="M377.5,291.73s-.05,0-.07,0c-.46-.04-.8-.45-.76-.91l1.09-12.45c.04-.46,.44-.81,.91-.76,.46,.04,.8,.45,.76,.91l-1.09,12.45c-.04,.44-.4,.77-.83,.77Z"/></g><g><path class="b" d="M318.88,309.63s-.05,0-.07,0c-.46-.04-.8-.45-.76-.91l1.09-12.45c.04-.46,.45-.79,.91-.76,.46,.04,.8,.45,.76,.91l-1.09,12.45c-.04,.44-.4,.77-.83,.77Z"/><path class="b" d="M326.01,309.63s-.05,0-.07,0c-.46-.04-.8-.45-.76-.91l1.09-12.45c.04-.46,.44-.79,.91-.76,.46,.04,.8,.45,.76,.91l-1.09,12.45c-.04,.44-.4,.77-.83,.77Z"/><path class="b" d="M333.14,309.63s-.05,0-.07,0c-.46-.04-.8-.45-.76-.91l1.09-12.45c.04-.46,.45-.79,.91-.76,.46,.04,.8,.45,.76,.91l-1.09,12.45c-.04,.44-.4,.77-.83,.77Z"/><path class="b" d="M340.28,309.63s-.05,0-.07,0c-.46-.04-.8-.45-.76-.91l1.09-12.45c.04-.46,.43-.79,.91-.76,.46,.04,.8,.45,.76,.91l-1.09,12.45c-.04,.44-.4,.77-.83,.77Z"/><path class="b" d="M347.41,309.63s-.05,0-.07,0c-.46-.04-.8-.45-.76-.91l1.09-12.45c.04-.46,.45-.79,.91-.76,.46,.04,.8,.45,.76,.91l-1.09,12.45c-.04,.44-.4,.77-.83,.77Z"/><path class="b" d="M354.54,309.63s-.05,0-.07,0c-.46-.04-.8-.45-.76-.91l1.09-12.45c.04-.46,.44-.79,.91-.76,.46,.04,.8,.45,.76,.91l-1.09,12.45c-.04,.44-.4,.77-.83,.77Z"/><path class="b" d="M361.67,309.63s-.05,0-.07,0c-.46-.04-.8-.45-.76-.91l1.09-12.45c.04-.46,.45-.79,.91-.76,.46,.04,.8,.45,.76,.91l-1.09,12.45c-.04,.44-.4,.77-.83,.77Z"/><path class="b" d="M368.8,309.63s-.05,0-.07,0c-.46-.04-.8-.45-.76-.91l1.09-12.45c.04-.46,.43-.79,.91-.76,.46,.04,.8,.45,.76,.91l-1.09,12.45c-.04,.44-.4,.77-.83,.77Z"/><path class="b" d="M375.93,309.63s-.05,0-.07,0c-.46-.04-.8-.45-.76-.91l1.09-12.45c.04-.46,.44-.79,.91-.76,.46,.04,.8,.45,.76,.91l-1.09,12.45c-.04,.44-.4,.77-.83,.77Z"/></g></g></g><path class="e" d="M296.5,259.23h-47.73c-1.64,0-3.14-.64-4.21-1.82-1.08-1.18-1.59-2.73-1.45-4.38l4.47-51.09c.29-3.36,3.27-6.1,6.64-6.1h47.73c1.64,0,3.13,.64,4.21,1.81,1.08,1.18,1.59,2.73,1.45,4.38l-4.47,51.09c-.29,3.36-3.27,6.1-6.63,6.1Zm-42.29-62.28c-2.8,0-5.28,2.28-5.53,5.09l-4.47,51.09c-.12,1.34,.3,2.59,1.16,3.53,.86,.94,2.06,1.45,3.39,1.45h47.73c2.8,0,5.28-2.28,5.53-5.09l4.47-51.09c.12-1.34-.3-2.59-1.16-3.53-.86-.94-2.06-1.45-3.39-1.45h-47.73Z"/></g><g><path class="e" d="M296.82,286.55h-53.14c-.75,0-1.43-.3-1.92-.83-.5-.54-.73-1.25-.67-2l1.57-17.9c.13-1.51,1.47-2.74,2.98-2.74h53.14c.75,0,1.43,.3,1.92,.83,.49,.54,.73,1.25,.66,2l-1.57,17.9c-.13,1.51-1.47,2.74-2.98,2.74Zm-51.18-22.38c-.94,0-1.8,.8-1.89,1.74l-1.57,17.9c-.04,.44,.1,.86,.38,1.17,.28,.31,.68,.48,1.11,.48h53.14c.94,0,1.8-.8,1.89-1.74l1.57-17.9c.04-.44-.1-.86-.38-1.17-.28-.31-.68-.48-1.12-.48h-53.14Z"/><path class="e" d="M294.59,312h-53.14c-.75,0-1.43-.3-1.92-.83-.49-.54-.73-1.25-.66-2l1.57-17.9c.13-1.51,1.47-2.74,2.98-2.74h53.14c.75,0,1.43,.3,1.93,.83,.49,.54,.73,1.25,.66,2l-1.57,17.9c-.13,1.51-1.47,2.74-2.98,2.74Zm-51.18-22.37c-.94,0-1.81,.79-1.89,1.74l-1.57,17.9c-.04,.44,.1,.86,.38,1.17,.28,.31,.68,.48,1.12,.48h53.14c.94,0,1.8-.79,1.89-1.74l1.57-17.9c.04-.44-.1-.86-.38-1.16-.28-.31-.68-.48-1.12-.48h-53.14Z"/></g></g></g><polygon class="i" points="249.81 195.66 184.55 195.66 185.11 189.32 250.36 189.32 249.81 195.66"/></g><g><path class="e" d="M137.26,309.63c-3.89-.62-4.89-4.32-5.15-6.19l4.94-56.51h-7.08l-4.88,55.78c-.32,1.34-1.8,6.2-6.43,6.92,0,0-11.64,.42-12.45,6.44h42.37c.25-6.01-11.32-6.44-11.32-6.44Z"/><path class="j" d="M176.64,231.74l-39.26-.96c.07-.36,.09-.74,.03-1.14l-13.66-91.08c-.28-1.82-1.22-4.32-2.91-4.36l-37.96,.08c-4.13,.97-5.11,4.47-4.48,8.05l12.65,87.31s-2.23,28.95,78.32,22.52c88.63-7.08,7.27-20.42,7.27-20.42Z"/><path class="e" d="M92.58,134.2c-1.69-.04-2.85,1.42-2.59,3.24l13.36,92.19c.27,1.82,1.86,3.31,3.55,3.31h40.24c1.69,0,2.85-1.49,2.57-3.31l-13.67-91.08c-.27-1.82-1.88-3.34-3.57-3.38l-39.9-.97Z"/><g><path class="e" d="M170.63,164.61h24.19c.62,0,1.12,.5,1.12,1.12v2.24c0,.62-.5,1.12-1.12,1.12h-24.19c-.62,0-1.12-.5-1.12-1.12v-2.24c0-.62,.5-1.12,1.12-1.12Z"/><path class="e" d="M187.44,134.54c-.71,1.01-2.17,1.33-3.24,.72l-14.84-8.42c-1.07-.61-1.34-1.91-.6-2.9l2.77-3.69c.74-.99,2.21-1.28,3.27-.66l14.46,8.5c1.06,.62,1.35,1.96,.64,2.96l-2.45,3.48Z"/><path class="e" d="M185.45,139.86h2.24c.62,0,1.12,.5,1.12,1.12v7.97c0,.62-.5,1.12-1.12,1.12h-2.24c-.62,0-1.12-.5-1.12-1.12v-7.97c0-.62,.5-1.12,1.12-1.12Z"/><g><polygon class="b" points="193.7 133.01 193.7 182.79 223.63 182.79 215.24 132.73 193.7 133.01"/><path class="b" d="M189.51,189.51s.2-1.58,0-3.5c-.28-2.66,2.5-3.5,5.59-3.5h32.44c3.09,0,5.74,.84,5.6,3.5v3.5h-43.63Z"/></g><path class="b" d="M202.93,139.3c0,1.23-1,2.24-2.24,2.24h-18.32c-1.23,0-2.24-1.01-2.24-2.24v-9.51c0-1.23,1.01-2.24,2.24-2.24h18.32c1.23,0,2.24,1.01,2.24,2.24v9.51Z"/></g><g><path class="d" d="M185.64,167.01c.67,.32,1.9,1,2.65,.61,1.19-.63-.58-1.65-1.12-2.04,.71,.5,2.66,1.15,3.52,.96,.76-.17,.68-.61,.1-1.06-.79-.62-1.89-.89-2.39-1.83,.14,.27,1.93,.83,2.28,.96,.67,.25,1.12,.22,1.25,0,.12-.21-.04-.58-.56-1.07-.96-.9-2.34-1.88-3.69-2.01-2.22-.22-5.57-.44-7.7,.11-1.82,.47-3.19,2.86-4.26,4.6l-.07-.03s-5.8,6.5-6.57,6.71c0,0,.25,4.89,2.66,5.1,.99-.85,2.92-3.25,4.02-3.95,1.39-.88,2.72-1.58,3.95-2.77,.63-.61,1.33-1.17,1.96-1.78,.31-.3,1.05-1.56,1.42-1.68,1.07-.36,1.58,.55,2.42,.95,.34,.17,.99,.47,1.27,.13,.55-.68-.64-1.69-1.16-1.93Z"/><g><g><path class="d" d="M233.23,315.31l-24.42-.62c-1.24-.04-2.23-1.07-2.09-2.3,.09-.84,.21-1.69,.31-2.39,.15-1,.28-1.71,.28-1.71,1.5-7.83-5.21-24.62-5.21-24.62-10.45-22-6.71-35.43-6.71-35.43,0,0,18.64-11.94,18.27,4.48-.31,13.91,3.39,40.98,4.52,48.88,.18,1.22,1.25,2.61,2.38,3.1l8.41,3.64,3.88,1.68c1.14,.48,2.18,1.88,2.34,3.15,.16,1.22-.73,2.19-1.96,2.16Z"/><path class="j" d="M233.23,315.31l-24.42-.62c-1.24-.04-2.23-1.07-2.09-2.3,.09-.84,.21-1.69,.31-2.39,4.62,.87,16.2,2.51,21.94-1.67l3.88,1.68c1.14,.48,2.18,1.88,2.34,3.15,.16,1.22-.73,2.19-1.96,2.16Z"/></g><g><path class="d" d="M211.6,315.31l-24.42-.62c-1.24-.04-2.23-1.07-2.09-2.3,.09-.84,.21-1.69,.31-2.39,.14-1,.28-1.71,.28-1.71,1.5-7.83-5.22-24.62-5.22-24.62-10.45-22-6.71-35.43-6.71-35.43,0,0,18.64-11.94,18.27,4.48-.31,13.91,3.39,40.98,4.52,48.88,.18,1.22,1.25,2.61,2.38,3.1l8.41,3.64,3.88,1.68c1.14,.48,2.18,1.88,2.34,3.15,.15,1.22-.73,2.19-1.96,2.16Z"/><path class="j" d="M211.6,315.31l-24.42-.62c-1.24-.04-2.23-1.07-2.09-2.3,.09-.84,.21-1.69,.31-2.39,4.62,.87,16.2,2.51,21.94-1.67l3.88,1.68c1.14,.48,2.18,1.88,2.34,3.15,.15,1.22-.73,2.19-1.96,2.16Z"/></g><g><path class="d" d="M164.41,102.47c-2.06-3.24-6.27-5.23-9.92-5.89-6.14-1.11-13.31,1.82-17.44,6.42-3.78,4.21-4.61,9.21-3.54,13.98-2.33,6.5-8.89,9.04-8.89,9.04l12.59,13.7c.84-1.46,1.69-2.91,2.53-4.37,.78-1.33,1.54-3.97,3.28-4.02,3.17-.09,5.92,4.91,9.19,3.95,1.61-.47,3.51-3.29,4.83-4.37,.67-.54,1.78-1.8,2.5-2.13,.58-.27,1.31,.3,1.86-.1,1.22-.87,.34-5.42,.53-6.84,.03-.21,.07-.43,.11-.65,.36-1.68,1.17-3.38,1.75-4.96,1.72-4.75,3.62-9.03,.62-13.76Z"/><path class="j" d="M167.83,102.99c-1.35-3.29-4.47-3.66-7.5-4.66-3.21,.01-5.84,.8-4.71,4.52,.77,2.54-.69,3.27-.88,5.92-.1,1.35-.13,5.86,2.02,5.56,.38-1.47,.88-2.35,1.9-3.33,.74-.72,1.69-.44,1.51-2.02,1.58,.35,.28,3.52,.34,4.68,.12,2.09,.76,2.28,2.58,2.79-.04,.97-.07,3.36,.63,4.07,1.7,1.74,1.72-.88,2.15-1.91,.58-1.39,1.88-2.14,2.11-3.69,.24-1.58-.9-2.34-.94-3.73-.03-1.29,1.12-2.61,1.32-3.91,.21-1.45,.02-2.97-.52-4.29Z"/><path class="j" d="M161.54,119.02c-.19,0-.37-.1-.48-.27-1.34-2.2-4.01-2.13-4.11-2.11-.29,.02-.57-.23-.58-.53-.01-.31,.22-.57,.53-.58,.15-.01,3.43-.12,5.12,2.65,.16,.26,.08,.61-.19,.77-.09,.05-.19,.08-.29,.08Z"/><path class="j" d="M155.95,131.05c-.05,0-.1,0-.16-.03-.06-.03-1.58-.65-2.33-2.62-.08-.22,.02-.46,.24-.54,.21-.08,.46,.03,.54,.24,.63,1.63,1.85,2.13,1.86,2.14,.21,.09,.32,.33,.23,.55-.07,.16-.22,.26-.39,.26Z"/><path class="j" d="M159.86,120.8h-.02c-.08,0-1.92-.12-3.01-1.7-.09-.13-.05-.3,.07-.39,.12-.08,.3-.06,.39,.07,.93,1.35,2.56,1.46,2.58,1.46,.15,0,.27,.14,.26,.29,0,.15-.13,.26-.28,.26Z"/></g><path class="h" d="M223.77,250.73c-1.04-6.56-2.15-13.35-4.02-19.5-3.22-10.63-11.92-13.45-21.43-16.87-8.09-2.91-16.16-4.77-24.62-6.38-5.61-1.07-11.23-2.38-16.87-3.24-3.61-.55-7.96-1.23-9.84-4.88-.83-1.61-.82-2.97-.84-4.75-.04-3.47,.56-6.68,.56-10.14,0-3.42-.41-6.4,1.6-9.23,2.78-3.92,5.35-5.26,4.04-10.5-1.11-4.48-4.37-8.76-6.76-12.67-2.41-3.95-4.69-7.98-6.82-12.08-3.66-7.04-8.13-16.98-17.15-9.33-4.6,3.9-6.74,9.31-8.22,14.91-1.31,4.95-2.06,9.96-2.05,15.07,0,7.72,3.67,14.78,4.04,22.51,.18,3.75,.11,5.94-1.33,9.49-6.44,15.93-11.29,40.94,13.26,40.94,4.61,0,8.93,.34,13.52,.74,4.3,.37,8.7,.59,12.95,1.41,4.48,.87,12.74,2.4,13.93,7.83,.73,3.36-.54,7.43-.58,10.83-.03,3.35,.03,6.28,.79,9.51,.58,2.53,1.3,7.08,4.23,7.91,3.55,1,6.88-3.81,10.42-4.2,5.55-.63,11.19,2.78,17,2.26,5.41-.48,8.98-4.92,14.26-3.57,2.3,.59,4.58,1.28,6.93,1.62,2.89,.42,3.19,.55,4.04-2.17,.93-2.99,.45-6.34-.05-9.37-.33-2-.66-4.05-.98-6.12Z"/><path class="j" d="M160.81,97.47c-.63-.94-1.4-1.78-2.14-2.42-3.61-3.1-8.68-6.24-13.71-5.69-4.59,.51-6.54,3.1-8.5,5.9-2.64-.49-5.56-1.34-7.93,1.1-2.21,2.27-1.75,4.09-5.03,4.76-2.88,.59-3.54,.23-4.75,3.08-.15,.36-.2,.71-.24,1.06-2.29,.65-3.49,.49-5.16,2.56-1.4,1.73-2.02,3.93-3.63,5.54-3.07,3.07-4.07,4.6-2.42,8.59,1.28,3.12-.26,5.51,.59,8.42,1.89,6.51,14.9,6.44,19.61,4.03,2.77-1.42,4.33-4.34,6.99-5.88,2.3-1.34,4.54-1.17,6.22-3.63,.69-1.01,2.58-1.65,2.95-2.8,.46-1.43-.94-2.3-1.34-3.46-.87-2.5,.6-5.83,3.64-4.39,.69,.33,.67,1.66,1.25,1.8,1.57,.35,1.46-1.77,1.82-2.42,1.1-1.99,2.61-4.11,4.59-5.31,1.48-.9,4.07-2.59,5.41-3.01,4.44-1.38,3.69-5.03,1.79-7.85Z"/></g><path class="h" d="M169.09,170.67c-3.15,3.67-20.54,9.31-22.71,10-.02-.06-.05-.11-.07-.16-2.85-7.43-5.4-15.16-7.3-22.89-.98-4-2.09-8.53-3.83-12.31-1.59-3.45-4.35-5.92-8.35-4.84-5.94,1.61-5.71,9.18-5.63,14.06,.13,7.63,3.25,15.43,5.51,22.66,1.65,5.26,3.99,10.75,7.38,15.19,1.52,1.99,3.77,3.63,6.24,4.28,.72,.19,1.66,.25,2.67,.19,.04,.03,.07,.05,.07,.05,16.78-.37,31.05-18.23,31.05-18.23-3.54-2.43-5.03-8.02-5.03-8.02Z"/><path class="c" d="M146.31,180.79c-.12,0-.23-.07-.27-.19l-7.99-24.38c-.05-.15,.03-.31,.18-.35,.15-.04,.31,.03,.35,.18l7.9,24.12c2.22-.69,17.94-5.69,22.41-9.7,.11-.1,.29-.09,.39,.02,.1,.12,.09,.29-.02,.39-4.88,4.37-22.15,9.67-22.88,9.9-.03,0-.05,.01-.08,.01Z"/><path class="c" d="M143.98,197.07c-5.92,0-8.81-2.91-8.93-3.03-.1-.12-8.58-10.75-12.1-27.03-.03-.15,.06-.3,.21-.33,.15-.02,.3,.06,.33,.21,3.48,16.15,11.89,26.68,11.97,26.78,.01,0,2.84,2.84,8.51,2.84h.13c5.89-.05,15.85-3.21,29.81-18.01,.11-.11,.28-.12,.4-.01,.11,.11,.12,.28,.01,.39-14.11,14.96-24.23,18.15-30.24,18.19h-.11Z"/></g></g></svg>