<?xml version="1.0" encoding="UTF-8"?><svg id="a" xmlns="http://www.w3.org/2000/svg" viewBox="0 0 421.43 499.13"><defs><style>.c{fill:#fff;}.d{fill:#a6d9ed;}.e{fill:#feb07d;}.f{fill:#6494b0;}.g{fill:#3a769b;}.h{fill:#327197;}.i{fill:#e0f5fc;}.j{fill:#bcd0dd;}.k{fill:#266891;}.l{fill:#219fd2;}.m{fill:#286a92;}.n{fill:#055280;}.o{fill:#a2d7ec;}</style></defs><path class="i" d="M420.94,272.8c-6.66,97.81-77.28,216.1-157.16,225.64-80.1,9.95-170.09-88.64-220.37-196.62C-6.68,194.48-17.9,77.32,33.57,28.18,84.81-20.55,198.51-.85,284.12,47.45c85.39,48.72,143.29,126.9,136.82,225.34Z"/><g><g><g><path class="k" d="M214.06,302.85v1.74c-4.84-.46-10.27-.72-16.05-.72-8.41,0-16.19,.55-22.51,1.46l-14.75-2.19-.7,8.01c-.35,4.02,16.07,7.29,36.68,7.29s37.6-3.26,37.95-7.29l.7-8.01-21.33-.29Z"/><path class="f" d="M235.38,303.14c-.35,4.02-17.34,7.29-37.95,7.29s-37.03-3.26-36.68-7.29c.35-4.03,17.34-7.29,37.95-7.29s37.02,3.26,36.67,7.29Z"/></g><path class="k" d="M197.49,389.69c-2.3-3.15-2.74-7.36-2.77-9.89l4.91-56.11c1.62-3.5,7.72-8.31,7.72-8.31l-11.98,.33-11.92-.33s5.26,4.81,6.27,8.31l-4.83,55.25c-.54,3.41-1.44,6.02-2.01,7.43-1.6,2.67-4.49,6.04-9.33,7.28h30.02c-2.79-.75-4.72-2.28-6.08-3.96Z"/><path class="n" d="M203.09,395.45c-3.98-.49-9.12-.78-14.77-.78-4.6,0-8.88,.2-12.51,.53l-10.68-.31-.27,3.14c-.16,1.85,10.08,3.35,22.88,3.35s23.31-1.5,23.47-3.35l.27-3.14-8.38,.56Z"/></g><path class="k" d="M215.52,394.67c0,1.85-10.37,3.35-23.17,3.35s-23.17-1.5-23.17-3.35,10.38-3.35,23.17-3.35,23.17,1.5,23.17,3.35Z"/><g><path class="e" d="M183.03,206.22c.2-3.93,.14-8.24-3.41-10.69-3.2-2.21-7.26-.32-9.45,2.64-2.23,3.02-2.97,7.03-3.32,10.68-.76,7.71-1.58,15.22-3.06,22.74-2.7,13.69-7.65,27.55-11.36,41.09-.69,2.51-1.64,5.17-3.03,7.36,8.21,.82,10.69-2.28,14.06-8.98,2.83-5.65,5.56-11.3,7.3-17.18,4.75-16.02,11.43-30.43,12.28-47.64Z"/><path class="e" d="M182.14,390.3c-1.99,2.17-5.37,3.29-7.54,5.58-4.37,4.58-7.14,14.08-14.83,8.43,.03-.3,.21-.49,.51-.56,.02-.87,1.45-2.76,2.83-4.55,1-1.33,1.98-2.57,2.31-3.32,1.35-2.99,2.54-6.33,3.17-9.5,1.47-7.42-.68-14.04-2.94-20.99-2.41-7.45-6.42-14.2-9.2-21.44-1.63-4.23-3.08-8.66-3.73-13.15-.61-4.23-2.55-8.15-3.06-12.19,6.19-3.88,13.45-4.93,17.72,1.65,4.08,6.3,6.1,13.26,6.89,20.64,1.36,12.63-2.01,30.76,5.63,41.47,.1,.18,.24,.35,.37,.53,2.33,3.04,5.18,3.81,1.87,7.42Z"/><path class="e" d="M148.28,383.46c1.63,2.75,3.39,4.08-.16,6.66-2.36,1.73-5.89,2.19-8.46,4.01-5.18,3.65-9.72,12.43-16.18,5.38,.09-.28,.28-.44,.59-.45,.21-.89,2.19-2.61,3.95-4.16,1.14-1.01,2.2-1.96,2.62-2.55,1.91-2.66,3.72-5.72,4.95-8.69,2.87-7,2.04-13.92,1.19-21.18-.93-7.76-3.53-15.16-4.86-22.81-.77-4.46-1.35-9.1-1.1-13.62,.21-4.27-.93-8.5-.65-12.54,6.84-2.62,14.17-2.24,17.07,5.04,2.78,6.98,3.41,14.19,2.75,21.58-1.14,12.87-8.17,30.36-2.26,42.36,.18,.35,.35,.67,.54,.98Z"/><g><path class="g" d="M159.19,163.59c-2.17,3.35-2.87,6.26-1.36,10.11,.68,1.73,1.75,3.73,1.58,5.63-.14,1.49-1.12,2.77-1.32,4.15-.45,3.18,1.76,5.91,1.75,9.19,0,2.78-.23,1.55,1.92,1.26,1.55-.21,2.77,1.11,4.39,.89-1.01-1.32-.73-2.47-1.31-4.04,1.49,1.45,3.4,2.43,3.74,4.66,1.36-1.24,3.1,.1,4.37-.3,1.15-.36,3.15-2.58,3.77-3.56,1.55-2.41,1.43-6.42,1.65-9.21,.42-5.27-.25-10.53-.61-15.76-.41-5.99-2.8-13.22-10.23-9.73-1.86,.87-9.08,5.02-8.36,7.38v-.66Z"/><path class="g" d="M217.98,260.87c-11.06-9.64-31.11-1.99-40.47,6.26-11.22,9.88-29.65,7.04-39.25,18.08-4.87,5.61-7.32,12.57-10.34,19.27-2.29,5.1-7.21,11.1-8.23,16.18,5.18,1.6,7.98,1.23,12.3,4.65,3.67,2.9,6.66,6.1,11.53,6.56,5.26,.49,9.39-2.99,14.57-2.93,4.26,.05,9.26,3.8,13.41,2.33,7.4-2.62-1.28-18.32,8.03-23.48,4.77-2.64,13.21-2.65,18.79-4.07,6.31-1.61,13.33-2.72,19.24-5.52,13.32-6.33,9.88-29.08,.42-37.32Z"/><path class="j" d="M191.76,277.05c3.46,.22,6.53,2.23,9.81,2.4,3.35,.17,6.23-1.87,9.64-1.62,2.82,.2,5.96,.68,8.66,1.52,2.13,.66,3.9,2.1,6.12,2.23,1.79-6.23-1.52-19.01-4.02-25.21-4.46-11.05-5.41-21.75-7.36-33.4-.78-4.66,.31-25.34-4.72-27.93-5.59-2.88-11.67-5.41-18.04-5.65-6.61-.25-19.18,3.69-21.63,10.76-1.94,5.58-2.54,11.51-4.19,17.15-1.56,5.34-4.58,14.55-.06,19.19,2.68,2.75,7.65,2.52,10.57,5.21,2.25,2.08,2.7,7.48,2.83,10.28,.17,3.41,.86,8.78-.23,11.97-1.17,3.44-4.86,4.29-7.93,5.28-2.16,.7-7.23,1.23-7.48,3.96,.16-1.71,6.85,2.19,7.21,2.46,2.1,1.54,4.6,3.77,7.34,4.44,4.9,1.19,8.7-3.33,13.47-3.02Z"/><path class="e" d="M186.53,159.35c-3.58-8.05-15.24-10.71-22.43-6.44-5.11,3.04-6.56,8.75-6.16,14.36,.4,5.56,1.85,11.7,4.96,16.3,.5,.75,1.04,1.48,1.61,2.18,1.75,2.15,4.06,6.13,7.17,6.18,3.65,.05,6.56-2.83,8.57-5.58,5.31-7.27,10.2-18.22,6.29-27Z"/><path class="e" d="M180.21,198.78c-1.46-.61-2.47-1.9-2.58-4.22-.09-1.78,.05-3.66-.23-5.31-.63-3.74-1.52-4.52,.43-7.98,1.49-2.65,3-5.19,3.68-8.2,.44-1.95,1.45-6.46,4.23-4.9,2.09,1.18,1.31,6.48,1.54,8.43,.47,3.85,1.58,8.02,4.05,11.1,2.07,2.57,4.93,5.22,1.39,7.93-2.58,1.98-8.92,4.65-12.51,3.16Z"/><path class="e" d="M202.99,194.85c-1.98,1.13-1.69,4.97-1.63,6.79,.16,4.75,1.32,9.51,2.52,14.08,1.91,7.27,5.8,13.99,6.79,21.5,.61,4.66-2.76,7.9-5.28,11.64-.89,1.32-12.73,17.88-12.31,18.28l5.54,5.25c.86,.81,14.98-13.45,15.92-14.48,3.57-3.92,7.95-8.7,9.64-13.83,1.74-5.26-.08-10.55-1.01-15.76-1.03-5.75-2.28-11.49-4.01-17.07-1.88-6.04-6.98-21.65-16.16-16.4Z"/><path class="e" d="M194.23,276.69c2.22-.79,6.38-4.3,6.94-6.64,1.49-6.22-9.97-3.86-12.69-3.5-3.77,.51-7.37,.78-10.48,2.91-.82,.56-1.56,1.27-2.31,1.92-.73,.64-1.55,1.15-2.2,1.88-.2,.23-1.32,1.18-1.22,1.37,.28,.53,2.47-.21,2.86-.37,.95-.41,1.79-1.03,2.68-1.56-.45,.26-.86,.87-1.26,1.22-.5,.43-1.02,.83-1.53,1.24-.51,.43-2.45,1.57-1.66,2.45,1.02,1.15,3.55-.97,4.41-1.45-.54,.3-2,1.91-1.22,2.56,.84,.7,3.34-1.33,4.01-1.74-.5,.31-.88,.92-.72,1.52,.22,.89,.94,.82,1.65,.6,1.7-.52,3.14-1.69,4.87-2.09,2.57-.59,5.32,.57,7.88-.34Z"/><path class="g" d="M177.92,189.75c-.14,0-.27-.06-.36-.18-.14-.2-.09-.47,.1-.61,.01-.01,1.47-1.07,4.56-5.3,.14-.19,.42-.24,.61-.09,.19,.14,.24,.42,.09,.61-3.21,4.38-4.7,5.45-4.76,5.49-.08,.05-.16,.08-.25,.08Z"/><path class="c" d="M175.02,239.71c-1.25,0-2.54-.15-3.9-.56-.23-.07-.36-.32-.29-.55,.07-.23,.31-.36,.55-.29,2.98,.91,5.6,.47,8.37,0,1.87-.31,3.8-.64,5.81-.5l1.51,.11c5.77,.43,9.94,.75,15.01-3.35,.19-.15,.46-.12,.61,.06,.15,.19,.12,.46-.06,.61-5.34,4.33-9.87,3.98-15.62,3.54l-1.5-.11c-1.92-.14-3.71,.17-5.61,.49-1.58,.27-3.18,.54-4.87,.54Z"/><path class="g" d="M166.55,148.79c-5.87,.14-8.52,5.63-10.48,9.92-1.21,2.66-4.37,3.86-5.34,6.69-.83,2.42,.64,5.62-.69,7.82,1.56,.09,3.39,.29,4.82-.31-3.06-3.7,1.85-8.69,3.25-12.07-.38,1.89-1.48,3.72-1.76,5.73-.29,2.09,.38,4.43-.26,6.36,3.74,.34,1.8-5.81,3.7-8.31-.54,2.37-.51,4.84-.55,7.39,.56-.21,1.46-.57,2.01-.82,.09-1.67-.31-3.87,.56-5.18,.44,2.03,1.67,3.11,2.45,4.89,1.22,.06,2.48,.06,3.7,0,.04-2.48-1.29-5.07,.06-7.43-.3,2.79,2.29,3.42,2.64,6.13,1.25-.29,2.56-.53,3.94-.55-.09-1.67-.18-2.35-.18-4.14-.27,2.43,3.35,4.31,4.58,6.1,1.58,2.31,.84,5.35,2.18,7.76,.56,1.01,1.58,1.74,2.2,2.71,.73,1.12,1,2.38,1.66,3.55,1.05,1.86,3.03,2.05,3.04,4.55,0-.62,4.24,.33,4.53,.44,.04-.91,.03-1.83,.02-2.75,.48,.72,.81,1.51,.92,2.3,2.45,.31,5.13-.77,7.36-1.53-.03-.43,.15-.99,.04-1.43,.08,2.46,4.91,.16,6.32-.33-1.25-2.16-1.56-4.68-2.77-6.94-1.4-2.63-2.38-5.48-3.04-8.38-.94-4.15-1.46-8.11-3.64-11.9-1.75-3.04-4.91-5.82-7.15-8.51-2.23-2.68-2.7-1.65-5.75-2.55-2.75-.82-3.94-1.82-7.06-1.82-3.97,0-11.56,.05-13.63,4.08l2.33-1.46Z"/></g><path class="g" d="M182.14,390.3c-1.99,2.17-5.37,3.29-7.54,5.58-1.68,1.77-2.91,3.89-4.35,5.85-1.31,1.79-2.95,3.84-5.26,4.25-1.21,.22-2.43-.09-3.52-.62-.46-.22-1.78-.63-1.79-1.23-.01-.66,1.08-1.66,1.43-2.19,.61-.95,1.32-1.84,2.01-2.74,6.96,1.12,14.71-11.96,16.79-16.84,.1,.18,.24,.35,.37,.53,2.33,3.04,5.18,3.81,1.87,7.42Z"/><path class="g" d="M148.13,390.12c-2.36,1.73-5.89,2.19-8.46,4.01-5.18,3.65-9.72,12.43-16.18,5.38,.14-.44,.54-.81,.87-1.11,.37-.34,.67-.73,1.02-1.08,.23-.23,2.58-2.49,2.66-2.43,2.03,1.8,8.2-1.8,9.95-2.92,2.08-1.33,3.95-3.03,5.95-4.48,1.61-1.17,2.92-2.68,4.36-4.04,1.63,2.75,3.39,4.08-.16,6.66Z"/><path class="g" d="M177.3,273.63s-.08-.01-.12-.04c-.1-.07-.13-.2-.06-.3,.09-.13,2.21-3.26,7.68-4.31,.11-.02,.23,.06,.26,.17s-.06,.23-.17,.26c-5.28,1.01-7.38,4.09-7.4,4.12-.04,.06-.11,.1-.18,.1Z"/><path class="g" d="M177.81,276.17s-.1-.02-.14-.05c-.09-.08-.11-.21-.03-.31,.1-.12,2.42-2.92,8.76-4.34,.13-.03,.24,.05,.26,.17,.03,.12-.05,.23-.17,.26-6.18,1.38-8.49,4.16-8.51,4.19-.04,.05-.11,.08-.17,.08Z"/><path class="g" d="M180.25,277.34s-.1-.02-.14-.05c-.09-.08-.11-.21-.03-.31,.08-.1,2.01-2.41,7.79-3.43,.11,0,.23,.06,.25,.18,.02,.12-.06,.23-.18,.25-5.59,.99-7.5,3.25-7.52,3.27-.04,.05-.11,.08-.17,.08Z"/></g><g><path class="g" d="M170.05,172.04c-.23,0-.45-.12-.57-.33-.18-.31-.07-.71,.24-.9,.12-.07,3.05-1.72,7.34-.65,.35,.09,.57,.44,.48,.79-.09,.35-.44,.57-.79,.48-3.77-.94-6.34,.5-6.36,.52-.1,.06-.22,.09-.33,.09Z"/><path class="g" d="M158.19,175.02c-.2,0-.39-.09-.52-.26-.22-.29-.17-.7,.12-.92,3.57-2.75,6.51-1.85,6.63-1.81,.34,.11,.54,.48,.43,.82-.11,.34-.48,.54-.82,.43h0c-.1-.03-2.44-.7-5.44,1.6-.12,.09-.26,.14-.4,.14Z"/><path class="g" d="M169.03,182.69c-.28,0-.53-.07-.76-.2-.96-.58-1.02-2.17-1.09-4.02-.07-1.93-.15-4.12-1.39-4.65-.22-.09-.33-.35-.23-.57,.09-.22,.35-.33,.57-.23,1.76,.75,1.85,3.23,1.93,5.42,.05,1.39,.11,2.96,.66,3.3,.3,.18,.82,0,1.2-.19,.22-.11,.48-.01,.58,.2,.1,.22,.01,.48-.2,.58-.48,.23-.91,.35-1.28,.35Z"/><path class="g" d="M174.74,173.56c.22,.94,.04,1.79-.4,1.89-.44,.1-.98-.58-1.2-1.52-.22-.94-.04-1.79,.4-1.89,.44-.1,.98,.58,1.2,1.52Z"/><path class="g" d="M163.27,175.64c.22,.94,.04,1.79-.4,1.89-.44,.1-.98-.57-1.2-1.51-.22-.94-.04-1.79,.4-1.89,.44-.1,.98,.57,1.2,1.52Z"/></g><path class="f" d="M151.1,320.34c-.22,0-.41-.16-.43-.38-.32-2.61-.92-5.22-1.5-7.74-.82-3.58-1.67-7.28-1.77-11.07-.25-9.27,5.68-11.85,13.2-15.1l.82-.36c.22-.09,.48,0,.58,.23,.1,.22,0,.48-.23,.58l-.82,.36c-7.5,3.25-12.91,5.6-12.67,14.28,.1,3.7,.94,7.36,1.75,10.89,.58,2.55,1.18,5.18,1.52,7.83,.03,.24-.14,.46-.38,.49-.02,0-.04,0-.05,0Z"/><path class="g" d="M169.69,185.83c-1.23,0-2.11-.33-2.13-.34-.22-.09-.33-.34-.25-.57,.09-.22,.34-.34,.57-.25,.16,.06,3.8,1.42,6.33-2.17,.14-.2,.42-.24,.61-.11,.2,.14,.25,.41,.11,.61-1.63,2.31-3.7,2.83-5.23,2.83Z"/><g><g><g><g><path class="l" d="M247.32,205.84l-6.63-1c-5.67,1.68-9.13,.04-10.7-1.22-.47,.02-.91,.02-1.31,.02-1.85-.02-2.8,1.28-4.5,1.96-.84,.35-4.67,1.54-4.48-.44,.07-.72,1.54-1.22,2.08-1.64,.35-.24,.66-.58,.96-.89-2.01,1.34-4.88,4.09-6.7,2.29-1.63-1.62,2.27-2.67,3.22-3.27,.84-.52,1.64-1.14,2.43-1.73-1.11,.84-3.04,1.23-4.33,1.75-1.09,.44-2.78,1.45-4,1.08-1.51-.46-.91-2.22,.07-2.9,.9-.63,1.97-.93,2.95-1.41,1.17-.58,2.35-1.16,3.52-1.74l.35-.17,.47-.21c-.58,.19-1.14,.45-1.61,.63-1.4,.49-2.82,1.01-4.27,1.36-1.01,.23-2.96,.84-3.41-.66-.52-1.77,2.19-2.26,3.25-2.81,1.82-.95,3.73-1.49,5.72-2.11,.37-.12,.96-.46,1.36-.44,0,0,2.61,.05,5.18,.1-1.66-.7-3.81-1.49-3.81-2.96-.02-2.94,5.46-.56,6.77-.37,3.27,.46,7.12,1.26,9.5,3.76l9.23,.96c.31,2.55,.72,8.29-1.33,12.07Z"/><g><path class="d" d="M226.98,191.24c-.39-.28-.98-.23-1.31,.12l-8.63,9.01c-.33,.35-.31,.89,.05,1.21l.55,.48c.36,.32,.93,.3,1.27-.05l8.91-9.1c.34-.34,.29-.86-.1-1.14l-.74-.54Z"/><polygon class="d" points="226.82 191.42 228.71 189.35 229.33 189.93 227.4 192.01 226.82 191.42"/><path class="d" d="M230.67,190.52c-.23,.28-1.06,0-1.84-.63-.78-.64-1.22-1.39-.98-1.68,.23-.29,1.06,0,1.84,.63,.78,.63,1.22,1.39,.98,1.68Z"/><polygon class="d" points="217.27 201.62 211.51 208.29 217.6 201.81 217.27 201.62"/></g><path class="c" d="M236.33,199.58s-.03,0-.05,0c-3.27-.74-5.3-4.06-5.58-4.54l-2.68-1.61c-.1-.06-.14-.2-.08-.3,.06-.1,.2-.13,.3-.08l2.73,1.64s.06,.05,.08,.08c.02,.04,2.07,3.64,5.32,4.38,.12,.03,.19,.14,.17,.26-.02,.1-.11,.17-.21,.17Z"/></g><path class="d" d="M275.86,148.21s-7.58,15.74-11.88,42.19l-17.49,2.62,.22,18.36,27.98-2.84,2.62-41.76-1.46-18.58Z"/></g><g><path class="f" d="M349.08,395.34c-1.81-1.83-3.91-3.12-5.5-3.13-1.31,0-6.26,.26-6.73,1.8,0,0-.04,.07-.09,.14l-.27-.2c0,3.62-2.65,11.08,.94,12.76,2.65,1.24,11.19,.98,13.63-.52,3.72-2.28,1.36-7.47-1.98-10.84Z"/><path class="f" d="M306.23,391.31c-.93-1.4-4.17-.84-5.49-.68-2.4,.3-4.26,.56-5.49,2.37-2.79,4.11-5.08,6.93-10.36,8.03-2.1,.43-6.09,.01-7.98,1.01-2.22,1.17-2.5,4.11-.21,5.32,4.03,2.13,10.92-.48,15.19-.57,3.45-.07,11.93,1.33,14.58-1.24,1.86-1.8,.68-4.36,.33-6.62-.22-1.41,.11-6.61-.56-7.61Z"/><g><path class="d" d="M286.19,163.47c-.47,4.77,.61,9.5,.89,14.2,.51,8.52,.44,17.04,.44,25.59,0,14.06,1.75,27.79,1.75,42,0,6.45-.05,12.71-.79,19.1-.77,6.84-2.73,14.13-2.17,21.01,1.17,14.76,7.15,29.12,6.38,44.09-6.73,.35-13.12,1.24-19.89,1.42,1.26-5.23,.4-10.77-.14-16.19-.8-8.33-.19-16.54,.51-24.84,1.47-17.26-3.55-34.19-1.82-51.36,1.26-12.47,.84-25.03,.16-37.52-.38-7.07-.38-14.15-.31-21.23,.05-5,.18-9.93,.57-14.91,.37-4.67,1.31-8.61,2.8-13.07,1.34-4.01,4.17-8.3,8.05-10.25,2.91-1.46,3.38,.54,3.98,2.83,.65,1.64,1.3,3.6,1.53,5.36,.17,1.3-.7,3.26,1.44,2.73-.95,3.74-2.99,7.09-3.38,11.07Z"/><path class="h" d="M279.05,110.68c1.55-5.97-6.1-5.25-6.79-.08-.57,4.27,1.52,8.45,2.26,12.56,1.09-4.31,3.42-8.21,4.53-12.49Z"/><path class="e" d="M301.46,164.8c1.72-2.04,3.62-3.8,5.59-5.64,1.51-1.41,3.15-2.68,4.7-4.04,1.65-1.42,4.55-2.99,5.31-5.2,1.99-5.79-6.99-5.7-10.04-5.86-2.65-2.38-6.32-7.58-6.61-18.42-3.09,1.66-6.02,3.55-9.39,4.56-2.11,.63-6.54,1.36-7.22,3.88-.69,2.54,.42,7.14,1.15,9.62,.69,2.33,1.14,3.27,.55,5.64-.99,3.97-1.14,7.14-.6,11.19,.46,3.48,3.14,8.32,6.33,10.1,3.87,2.16,7.67-2.65,9.78-5.27,.16-.19,.3-.37,.46-.55Z"/><g><path class="e" d="M275.21,126.81c.63,2.95,1.7,6.4,3.91,8.56,2.89,2.82,5.54,3.38,9.47,2.18,4.22-1.29,7.72-4.56,10.19-8.32,2.35-3.58,3.91-7.67,4.51-11.86,.56-3.88,.23-8.04-1.93-11.16-3.26-4.71-11.05-6.79-16.45-6.68-6.18,.13-8.86,3.25-9.91,8.89-.83,4.43-1.14,9.23-.54,13.82,.18,1.39,.41,2.96,.75,4.56Z"/><path class="h" d="M284.78,138.53c-.41,0-.78-.02-1.11-.05-.17-.02-.29-.17-.28-.34,.02-.17,.17-.29,.34-.28,2.42,.23,7.19-.16,11.91-5.44,.11-.12,.31-.13,.44-.02,.13,.11,.14,.31,.02,.44-4.26,4.77-8.59,5.69-11.32,5.69Z"/><g><path class="h" d="M286.7,118.13c.13,.02,.27,.02,.42-.02,1.22-.33,2.32,.17,2.33,.18,.47,.22,1.05,0,1.29-.49,.23-.49,.05-1.08-.42-1.3-.07-.03-1.71-.79-3.61-.28-.51,.14-.85,.67-.74,1.21,.09,.37,.38,.64,.73,.71Z"/><path class="h" d="M279.42,118.71c-.13,.04-.26,.06-.41,.05-1.24-.13-2.3,.55-2.31,.56-.46,.3-1.04,.17-1.32-.28-.26-.46-.11-1.07,.34-1.36,.07-.04,1.66-1.06,3.59-.86,.53,.06,.88,.53,.81,1.08-.07,.39-.34,.7-.69,.83Z"/><path class="h" d="M280.75,127.79c-.39,0-.55-.05-.59-.07-.08-.03-.14-.09-.17-.17-.75-1.97,.83-7.49,.89-7.72,.05-.16,.21-.26,.38-.21,.16,.05,.26,.22,.21,.38-.43,1.49-1.41,5.57-.96,7.18,.23,.02,.83,.02,2.13-.23,.17-.03,.33,.08,.36,.24,.03,.17-.08,.33-.24,.36-.99,.2-1.62,.25-2.01,.25Z"/></g><path class="h" d="M296.81,120.98s-.07,0-.11-.02c-.16-.06-.24-.24-.18-.4,.17-.45,1.05-2.71,2.01-2.93,.17-.03,.33,.07,.37,.23,.04,.17-.07,.33-.23,.37-.47,.11-1.22,1.58-1.57,2.54-.05,.12-.16,.2-.29,.2Z"/><path class="h" d="M297.7,119.89c-.13,0-.24-.08-.29-.2-.06-.16,.02-.34,.18-.39l.88-.32c.16-.06,.34,.02,.39,.18,.06,.16-.02,.34-.18,.39l-.88,.32s-.07,.02-.1,.02Z"/><path class="h" d="M292.51,105.25c-1.65,2.36-.13,4.67,.38,6.9,.52,2.33,.34,4.45,.25,6.84,.14-.71,.38-.93,.66-1.55-.09,.44-.06,.82-.21,1.28,1.48-2.11,5.86-6.73,6.6-1.89,.49,3.21-2.78,6.59-1.46,9.4,.18-.68,.37-1.22,.48-1.89,0,1.03,0,2.05-.01,3.08-.03,.14,.19-.69,.24-.94,0,1.89-.35,3.9,.93,5.3,0-.91,0-1.82-.01-2.72,.21,.77,.3,1.43,.23,2.24,1.47-8.36,6.88-17.05,3.97-25.64-1.22-3.57-4.75-5.41-8.25-5.13-5.38,.44-4.42,4.7-4.27,8.54l.49-3.84Z"/></g><path class="h" d="M299.6,100.68c-.89-4.18-5.36-8.89-9.61-5.45-1.67-4.83-13.31-1.53-10.96,1.68-4.21,.36-8.02,4-7.39,8.5,.4,2.87,2.81,3.69,4.87,1.84,.57,1.87,5.26-.14,6.11-1.34,.97,2.91,7.26,1.63,9.92,.25,.93,.77,2.41,1.23,3.39,1.43,.59,.12,3.26,.25,3.73-.43,.53,.43,2.06-.07,2.66-.48,1.04-.72,1.38-2.78,.03-1.97,2.85-1.16-.66-6.98-2.75-4.03Z"/><path class="h" d="M287.43,119.97c.62,.28,1.33,.04,1.95-.13,.21-.05,0,.9-.07,.99-.19,.26-.54,.4-.85,.44-.85,.08-1.1-.64-1.03-1.3Z"/><path class="h" d="M277.1,121.16c.63,.25,1.33-.04,1.94-.24,.2-.07,.05,.89-.01,.99-.18,.27-.51,.43-.83,.48-.84,.13-1.13-.58-1.1-1.24Z"/><path class="h" d="M283.4,131.54c-1.61,0-2.74-.6-2.76-.61-.19-.1-.26-.34-.15-.53,.1-.18,.34-.25,.53-.16,.13,.07,3.14,1.65,6.28-.98,.16-.14,.41-.12,.55,.05,.14,.16,.11,.41-.05,.55-1.56,1.31-3.12,1.67-4.39,1.67Z"/><path class="m" d="M317.68,255.94c-.31-7.73,2.63-21.57-6.54-24.82-5.38-1.9-14.65-4.7-20.47-3.93-6.49,.85-4.95,9.19-5.04,13.72-.25,12.92-2.51,25.91-.47,38.79,1.86,11.77,.3,23.57,1.62,35.28,.38,3.39,1.77,6.51,2.1,9.92,.59,6.19-.23,12.49,.05,18.71,.32,7,1.39,14.48,1.21,21.44-.11,4.39-1,8.53-.78,13.01,.18,3.61,.36,7.31,0,10.93-.42,4.2-1.43,6.73,3.83,6.56,3.57-.12,4.98-.89,8.72,.01,4.51,1.08,7.16,1.94,7.92-3.07,.57-3.79-.62-7.63-.46-11.48,.25-5.99,1.73-11.89,2.29-17.91,1.51-16.09,3.03-32.24,4.36-48.44,1.62-19.74,2.45-38.9,1.64-58.71Z"/><path class="m" d="M346.76,254.97c-1.12-7.66,.37-21.73-9.09-24-5.55-1.33-15.06-3.15-20.77-1.78-6.37,1.52-3.97,9.65-3.58,14.17,1.1,12.87,.21,26.03,3.58,38.62,3.08,11.51,2.76,23.41,5.28,34.92,.73,3.33,2.43,6.29,3.12,9.64,1.24,6.09,1.07,12.45,2,18.6,1.05,6.93,2.89,14.25,3.44,21.19,.35,4.38-.11,8.58,.58,13.02,.55,3.57,1.12,7.23,1.14,10.87,.02,4.22-.72,6.84,4.5,6.12,3.54-.49,4.86-1.4,8.68-.89,4.59,.61,7.32,1.18,7.55-3.88,.17-3.82-1.41-7.53-1.65-11.37-.38-5.99,.48-12.01,.42-18.06-.18-16.16-.35-32.38-.71-48.63-.44-19.8-1.61-38.94-4.48-58.56Z"/><path class="o" d="M243.07,206.8s-.15,14.43,6.41,21.13l5.68-16.61-12.1-4.52Z"/><path class="c" d="M324.86,215.21c.32,2.64,.71,5.27,.61,7.84-.3,8.04-13.91,8.44-19.88,9.07-1.46,.15-19.71,1.03-19.82-.49-.47-6.93-.89-13.84-1.47-20.75-1.12-13.54-3.39-27.84-2.26-41.47,.33-3.93,.75-7.86,1.05-11.79,.14-1.81,.37-3.62,.72-5.4,.2-1.03,.56-1.95,.87-2.93,.28-.88,.13-1.93,.52-2.77,.46-1,.81-.29,1.88,0,1.87,.52,3.88,.38,5.7-.27,2.79-1,4.84-2.45,7.24-4.22,1.08-.79,1.48-2.09,2.71-2.75,2.1-1.11,3.32,0,4.88,1.14,2.09,1.51,4.84,2.22,7.12,3.41,2.61,1.36,4.85,3.32,6.54,5.72,3.43,4.86,4.5,11.01,4.87,16.83,.1,1.6,.15,3.21,.16,4.82,.04,7.22-.09,14.34-.66,21.55-.45,5.62-1.1,11.24-1.17,16.88-.02,1.84,.17,3.7,.4,5.56Z"/><g id="b"><path class="m" d="M288.26,155.25c-.34-.55-.3-1.42,.08-1.95l1.29-1.81c.38-.53,.96-.51,1.29,.02l1.14,1.85c.33,.55,.29,1.41-.08,1.95l-1.29,1.8c-.38,.52-.96,.51-1.29-.02l-1.13-1.85Z"/><path class="m" d="M291.08,155.08h-2.21c-.36,3.76-.97,7.62-1.1,11.41-.18,5.17-2.22,9.75-2.05,15.07,.13,4.09-.15,7.49-.54,11.52-.06,.61-.85,5.19-.55,5.64l3.71,5.49,3.96-5.49c-.11-3.94,.1-8.29-.44-12.09-.87-6.17-.76-11.48-.41-17.77,.05-.79-.35-13.78-.38-13.78Z"/></g><path class="m" d="M289.75,152.71c-.02-.09-.09-.22-.2-.35-.96-1.22-2-2.6-2.81-3.93-.2-.32-1.21-2.61-1.78-1.89-1.44,1.8,.92,4.04,2.12,5.09,.43,.38,.93,.81,1.48,1,.05,.02,.61,.13,.95,.15l.2,.1s.02-.07,.04-.17Z"/><path class="m" d="M291.53,151.32c1.86-2,6.31-3.23,7.87-4.56,1.07-.91,2.89-4.21,4.06-3.73-.02,.81,.4,2.28,.15,3.07-.65,2.04-3.49,3.14-4.76,3.62-1.47,.56-3.12,.94-4.51,1.69-.23,.13-3.47,2.7-3.56,2.34-.23-.93,.1-1.73,.75-2.44Z"/><path class="d" d="M351.85,255.03c-.8-11.38-2.6-22.68-4.99-33.83-1.17-5.49-2.51-10.94-3.91-16.38-1.27-4.95-1.76-10.08-3.14-15.01-1.39-4.97-1.6-9.88-3.04-14.83-1.44-4.92-2.23-10.17-4.21-14.89-1.16-2.76-3-4.75-5.03-6.82-4.89-5-11.76-10.59-18.26-13.32-1.42-.59-5.02-2.77-6.43-1.69-1.44,1.11-.59,5.05-.78,6.61-.37,3.02-1.22,5.98-2.3,8.82-2,5.29-4.76,10.45-5.5,16.13-.75,5.75-.33,11.67-.33,17.46,0,10.59-.32,21.25,.65,31.75,1.44,15.64,3.53,31.27,4.88,46.94,1.13,13.1,1.06,26.33,1.77,39.44,.25,4.67,.04,9.46,0,14.14-.03,2.82-.92,5.7-.54,8.47,3.3,.93,6.37-.46,9.65-.9,4.86-.65,10,.32,14.8,1.24,5.62,1.07,11.24,1.87,16.9,.51,1.69-.4,19.74-3.3,19.78-3.17-1.08-3.86-.08-8.43-.91-12.44-1.34-6.45-2.55-12.99-3.78-19.52-1.22-6.45-.73-12.46-1.73-18.85-1.03-6.65-3.06-13.13-3.54-19.86Z"/><polygon class="e" points="242.05 211.61 258.08 207.67 260.85 220.35 243.94 222.1 242.05 211.63 242.05 211.61"/><path class="d" d="M319.45,153.36c-8.64-.96-14.49,13.64-19.02,20.1-4.6,6.55-8.01,17.26-15.75,19.64-7.17,2.2-15.23,5.04-22.5,7.17-6.27,1.84-12.11,4.7-18.38,6.53,0,0,7,9.18,6.12,20.84,0,0,42.85-11.37,58.61-22.76,6.88-7.97,14.79-16.8,18.82-26.67,2.56-6.27,3.53-17.02-1.93-21.84-2.13-1.88-4.11-2.8-5.97-3.01Z"/><path class="c" d="M243.65,207.31c-.27,0-.52-.17-.62-.43-.12-.34,.05-.72,.39-.84,2.51-.91,5.57-1.95,8.73-3.02,5.37-1.82,10.92-3.69,14.7-5.28,2.42-1.01,3.64-1.35,5.67-1.92,1.26-.35,2.84-.79,5.24-1.54,.74-.23,1.51-.45,2.28-.67,3.5-.99,7.11-2.02,9.46-4.62,1.95-2.16,3.61-4.72,5.23-7.18l.82-1.25c2.78-4.22,5.55-8.66,8.45-13.59,.19-.31,.59-.42,.9-.23,.31,.18,.42,.59,.23,.9-2.92,4.95-5.69,9.41-8.49,13.65l-.81,1.24c-1.64,2.51-3.33,5.1-5.35,7.34-2.6,2.89-6.4,3.96-10.08,5.01-.76,.22-1.52,.43-2.25,.66-2.42,.75-4.01,1.2-5.28,1.55-2.05,.57-3.17,.89-5.51,1.87-3.83,1.6-9.4,3.49-14.79,5.31-3.16,1.07-6.2,2.1-8.7,3.01-.07,.03-.15,.04-.22,.04Z"/><path class="c" d="M249.92,228.3c-.3,0-.57-.2-.64-.51-.08-.35,.14-.71,.49-.79,.41-.09,40.78-9.57,58.37-22.65,0-.02,9.26-9.94,11.38-13.76,.18-.32,.58-.43,.89-.25,.32,.18,.43,.58,.25,.89-2.2,3.96-11.27,13.69-11.66,14.1-17.9,13.32-58.53,22.86-58.94,22.95-.05,.01-.1,.02-.15,.02Z"/><path class="l" d="M243.58,210.74l-8.01,2.19c-5.18-1.24-9.78-.26-11.61,.25-.02,0-.03-.03-.05-.03l-6.49,1.31c-1.28,.46-2.56,.93-3.85,1.39-1.15,.41-4.44,1.02-3.89,2.87,.79,2.63,7.1-1.1,8.61-1.19,0,0,1.6-.1,3.26-.2l-4.15,1.28c-1.63,.74-3.27,1.47-4.9,2.21-.87,.39-2.15,.73-2.72,1.54-.69,.99,.29,2.26,1.41,2.17,1.22-.09,2.32-.77,3.44-1.21,1.38-.55,2.76-1.11,4.14-1.66l3.74-.5-3.73,1.23-5.24,3.19s-1.34,1.63-.07,2.34c0,0,.64,.71,2.34-.14l5.24-2.97,4.24-1.03-3.67,1.5c-1.18,.76-2.45,1.35-3.57,2.22-.43,.34-1.1,.8-1.12,1.41-.01,.39,.25,.83,.54,1.08,.89,.75,2.68-.56,3.52-.97,.86-.42,1.73-.84,2.59-1.26l4.33-1.77h0c6.05,0,9.84-2.77,9.84-2.77,0,0,9.69-.8,9.11-1.24,.8-7.07-3.28-11.22-3.28-11.22Z"/></g><path class="c" d="M295.17,181.51c-.08,0-.17-.02-.25-.05-.33-.14-.49-.52-.35-.86,.96-2.29,2.04-4.36,3.49-6.7,.23-.37,.54-.79,.87-1.25,.72-.98,1.61-2.21,1.73-3.03,.1-.74-.27-1.5-.67-2.31-.41-.84-.88-1.79-.87-2.86,.02-2.65,1.7-3.49,3.64-4.47,.5-.25,1.13-.47,1.8-.71,1.19-.42,2.53-.89,3.08-1.53,.69-.8,.25-2.44-.15-3.89-.1-.35-.19-.69-.26-1.01-.21-.9-.4-1.92-.61-2.98-.69-3.64-1.48-7.77-3.42-10.13-.23-.28-.19-.69,.09-.92,.28-.23,.69-.19,.92,.09,2.15,2.61,2.97,6.92,3.7,10.72,.2,1.05,.39,2.04,.6,2.93,.07,.3,.16,.62,.25,.96,.46,1.67,1.02,3.76-.12,5.09-.77,.9-2.29,1.44-3.63,1.91-.63,.22-1.22,.43-1.65,.65-2.06,1.04-2.9,1.53-2.92,3.31,0,.76,.35,1.49,.74,2.27,.47,.95,.96,1.94,.8,3.08-.16,1.14-1.12,2.46-1.97,3.62-.31,.43-.61,.83-.82,1.17-1.41,2.28-2.46,4.29-3.39,6.51-.11,.25-.35,.4-.61,.4Z"/><path class="c" d="M282.27,192.88c-.23,0-.45-.12-.57-.34-1.69-3.06-2.43-6.56-3.14-9.93-.39-1.84-.79-3.74-1.34-5.51-.65-2.08-1.2-3.88-.44-6.29,.32-1.01,.83-1.94,1.32-2.85,1.06-1.94,1.98-3.62,.82-5.58-.34-.58-.97-1.15-1.58-1.7-.78-.7-1.58-1.42-1.96-2.31-.7-1.62,.05-3.06,.7-4.32l.3-.6c.38-.78,.75-1.59,1.13-2.41,1.6-3.48,3.25-7.09,6.08-9.6,.27-.24,.69-.22,.93,.06,.24,.27,.22,.68-.06,.93-2.62,2.33-4.22,5.8-5.76,9.16-.38,.83-.75,1.65-1.14,2.44l-.32,.62c-.6,1.16-1.11,2.16-.66,3.2,.27,.62,.93,1.22,1.64,1.85,.68,.61,1.39,1.25,1.84,2.01,1.54,2.6,.35,4.77-.8,6.88-.46,.85-.94,1.72-1.23,2.62-.64,2.01-.19,3.47,.44,5.5,.57,1.83,.97,3.76,1.37,5.63,.69,3.28,1.41,6.68,3.01,9.57,.18,.32,.06,.72-.26,.89-.1,.06-.21,.08-.32,.08Z"/></g></g><path class="l" d="M225.16,191.52s2.79,1.69,4.59,2.24c1.8,.55,5.47-3.44,5.47-3.44,0,0-5.57-1.7-7.71-1.97,0,0-3.83,.71-2.35,3.17Z"/></g></g></svg>